<svg xmlns="http://www.w3.org/2000/svg" xmlns:xlink="http://www.w3.org/1999/xlink" contentstyletype="text/css" data-diagram-type="CLASS" height="514px" preserveAspectRatio="none" style="width:342px;height:514px;background:#FFFFFF;" version="1.1" viewBox="0 0 342 514" width="342px" zoomAndPan="magnify"><defs></defs><g><!--class Subject--><g class="entity" data-entity="Subject" data-source-line="1" data-uid="ent0002" id="entity_Subject"><rect fill="#F1F1F1" height="67.1201" rx="2.5" ry="2.5" style="stroke:#181818;stroke-width:0.5;" width="82.0205" x="7" y="440.5"></rect><ellipse cx="23.4959" cy="456.5" fill="#B4A7E5" rx="11" ry="11" style="stroke:#181818;stroke-width:1;"></ellipse><path d="M20.0896,451.2813 L20.0896,450.3438 L25.9334,450.3438 L25.9334,451.2813 L24.1365,451.2813 Q23.9646,451.2813 23.8865,451.3438 Q23.8084,451.4063 23.8084,451.5469 L23.8084,461.0313 Q23.8084,461.1719 23.8865,461.2344 Q23.9646,461.2969 24.1365,461.2969 L25.9334,461.2969 L25.9334,462.2344 L20.0896,462.2344 L20.0896,461.2969 L21.8865,461.2969 Q22.1053,461.2969 22.1521,461.25 Q22.2146,461.1875 22.2146,461.0313 L22.2146,451.5469 Q22.2146,451.3906 22.1521,451.3438 Q22.1053,451.2813 21.8865,451.2813 L20.0896,451.2813 Z " fill="#000000"></path><text fill="#000000" font-family="sans-serif" font-size="14" font-style="italic" lengthAdjust="spacing" textLength="46.6963" x="37.8283" y="462.9839">Subject</text><line style="stroke:#181818;stroke-width:0.5;" x1="8" x2="88.0205" y1="472.5" y2="472.5"></line><line style="stroke:#181818;stroke-width:0.5;" x1="8" x2="88.0205" y1="480.5" y2="480.5"></line><ellipse cx="18" cy="495.5601" fill="#84BE84" rx="3" ry="3" style="stroke:#038048;stroke-width:1;"></ellipse><text fill="#000000" font-family="sans-serif" font-size="14" lengthAdjust="spacing" textLength="56.0205" x="27" y="500.5439">request()</text></g><!--class RealSubject--><g class="entity" data-entity="RealSubject" data-source-line="5" data-uid="ent0003" id="entity_RealSubject"><rect fill="#F1F1F1" height="67.1201" rx="2.5" ry="2.5" style="stroke:#181818;stroke-width:0.5;" width="107.4893" x="48.27" y="306.43"></rect><ellipse cx="63.27" cy="322.43" fill="#ADD1B2" rx="11" ry="11" style="stroke:#181818;stroke-width:1;"></ellipse><path d="M62.6138,328.2894 Q60.6294,328.2894 59.4575,326.8206 Q58.3013,325.3363 58.3013,322.2581 Q58.3013,319.6488 59.52,317.8988 Q60.7544,316.1488 62.8794,316.1488 Q63.3794,316.1488 63.9106,316.2894 Q64.3481,316.4769 64.6138,316.4769 Q64.8325,316.4769 64.9263,316.43 Q65.0356,316.3831 65.4888,315.7894 L66.2544,319.5238 L65.3638,319.7894 Q64.9106,318.3363 64.3013,317.7425 Q63.7075,317.1331 62.7544,317.1331 Q61.5356,317.1331 60.8169,318.5706 Q60.0981,319.9925 60.0981,322.18 Q60.0981,324.5863 60.7075,325.8831 Q61.3325,327.1644 62.6919,327.1644 Q63.645,327.1644 64.3325,326.4769 Q65.02,325.7738 65.3481,324.2738 L66.2544,324.68 Q65.8481,326.3831 64.8794,327.3363 Q63.9263,328.2894 62.6138,328.2894 Z " fill="#000000"></path><text fill="#000000" font-family="sans-serif" font-size="14" lengthAdjust="spacing" textLength="75.4893" x="77.27" y="328.9139">RealSubject</text><line style="stroke:#181818;stroke-width:0.5;" x1="49.27" x2="154.7593" y1="338.43" y2="338.43"></line><line style="stroke:#181818;stroke-width:0.5;" x1="49.27" x2="154.7593" y1="346.43" y2="346.43"></line><ellipse cx="59.27" cy="361.4901" fill="#84BE84" rx="3" ry="3" style="stroke:#038048;stroke-width:1;"></ellipse><text fill="#000000" font-family="sans-serif" font-size="14" lengthAdjust="spacing" textLength="56.0205" x="68.27" y="366.4739">request()</text></g><!--class Proxy--><g class="entity" data-entity="Proxy" data-source-line="9" data-uid="ent0004" id="entity_Proxy"><rect fill="#F1F1F1" height="124.4805" rx="2.5" ry="2.5" style="stroke:#181818;stroke-width:0.5;" width="179.3096" x="12.36" y="115"></rect><ellipse cx="79.8717" cy="131" fill="#ADD1B2" rx="11" ry="11" style="stroke:#181818;stroke-width:1;"></ellipse><path d="M79.2155,136.8594 Q77.2311,136.8594 76.0592,135.3906 Q74.903,133.9063 74.903,130.8281 Q74.903,128.2188 76.1217,126.4688 Q77.3561,124.7188 79.4811,124.7188 Q79.9811,124.7188 80.5123,124.8594 Q80.9498,125.0469 81.2155,125.0469 Q81.4342,125.0469 81.528,125 Q81.6373,124.9531 82.0905,124.3594 L82.8561,128.0938 L81.9655,128.3594 Q81.5123,126.9063 80.903,126.3125 Q80.3092,125.7031 79.3561,125.7031 Q78.1373,125.7031 77.4186,127.1406 Q76.6998,128.5625 76.6998,130.75 Q76.6998,133.1563 77.3092,134.4531 Q77.9342,135.7344 79.2936,135.7344 Q80.2467,135.7344 80.9342,135.0469 Q81.6217,134.3438 81.9498,132.8438 L82.8561,133.25 Q82.4498,134.9531 81.4811,135.9063 Q80.528,136.8594 79.2155,136.8594 Z " fill="#000000"></path><text fill="#000000" font-family="sans-serif" font-size="14" lengthAdjust="spacing" textLength="35.7861" x="100.3717" y="137.4839">Proxy</text><line style="stroke:#181818;stroke-width:0.5;" x1="13.36" x2="190.6696" y1="147" y2="147"></line><rect fill="none" height="6" style="stroke:#C82930;stroke-width:1;" width="6" x="20.36" y="159.0601"></rect><text fill="#000000" font-family="sans-serif" font-size="14" lengthAdjust="spacing" textLength="153.3096" x="32.36" y="167.0439">realSubject: RealSubject</text><line style="stroke:#181818;stroke-width:0.5;" x1="13.36" x2="190.6696" y1="174.1201" y2="174.1201"></line><ellipse cx="23.36" cy="189.1802" fill="#84BE84" rx="3" ry="3" style="stroke:#038048;stroke-width:1;"></ellipse><text fill="#000000" font-family="sans-serif" font-size="14" lengthAdjust="spacing" textLength="81.7031" x="32.36" y="194.1641">preRequest()</text><ellipse cx="23.36" cy="208.3003" fill="#84BE84" rx="3" ry="3" style="stroke:#038048;stroke-width:1;"></ellipse><text fill="#000000" font-family="sans-serif" font-size="14" lengthAdjust="spacing" textLength="56.0205" x="32.36" y="213.2842">request()</text><ellipse cx="23.36" cy="227.4204" fill="#84BE84" rx="3" ry="3" style="stroke:#038048;stroke-width:1;"></ellipse><text fill="#000000" font-family="sans-serif" font-size="14" lengthAdjust="spacing" textLength="87.9307" x="32.36" y="232.4043">postRequest()</text></g><!--class Client--><g class="entity" data-entity="Client" data-source-line="16" data-uid="ent0005" id="entity_Client"><rect fill="#F1F1F1" height="48" rx="2.5" ry="2.5" style="stroke:#181818;stroke-width:0.5;" width="67.793" x="68.11" y="7"></rect><ellipse cx="83.11" cy="23" fill="#ADD1B2" rx="11" ry="11" style="stroke:#181818;stroke-width:1;"></ellipse><path d="M82.4538,28.8594 Q80.4694,28.8594 79.2975,27.3906 Q78.1413,25.9063 78.1413,22.8281 Q78.1413,20.2188 79.36,18.4688 Q80.5944,16.7188 82.7194,16.7188 Q83.2194,16.7188 83.7506,16.8594 Q84.1881,17.0469 84.4538,17.0469 Q84.6725,17.0469 84.7663,17 Q84.8756,16.9531 85.3288,16.3594 L86.0944,20.0938 L85.2038,20.3594 Q84.7506,18.9063 84.1413,18.3125 Q83.5475,17.7031 82.5944,17.7031 Q81.3756,17.7031 80.6569,19.1406 Q79.9381,20.5625 79.9381,22.75 Q79.9381,25.1563 80.5475,26.4531 Q81.1725,27.7344 82.5319,27.7344 Q83.485,27.7344 84.1725,27.0469 Q84.86,26.3438 85.1881,24.8438 L86.0944,25.25 Q85.6881,26.9531 84.7194,27.9063 Q83.7663,28.8594 82.4538,28.8594 Z " fill="#000000"></path><text fill="#000000" font-family="sans-serif" font-size="14" lengthAdjust="spacing" textLength="35.793" x="97.11" y="29.4839">Client</text><line style="stroke:#181818;stroke-width:0.5;" x1="69.11" x2="134.903" y1="39" y2="39"></line><line style="stroke:#181818;stroke-width:0.5;" x1="69.11" x2="134.903" y1="47" y2="47"></line></g><g class="entity" data-entity="GMN10" data-source-line="25" data-uid="ent0011" id="entity_GMN10"><path d="M190.37,299.48 L190.37,380.4976 A0,0 0 0 0 190.37,380.4976 L335.6508,380.4976 A0,0 0 0 0 335.6508,380.4976 L335.6508,309.48 L325.6508,299.48 L227.01,299.48 L163.8,239.93 L219.01,299.48 L190.37,299.48 A0,0 0 0 0 190.37,299.48" fill="#FEFFDD" style="stroke:#181818;stroke-width:0.5;"></path><path d="M325.6508,299.48 L325.6508,309.48 L335.6508,309.48 L325.6508,299.48" fill="#FEFFDD" style="stroke:#181818;stroke-width:0.5;"></path><text fill="#000000" font-family="sans-serif" font-size="13" lengthAdjust="spacing" textLength="69.3608" x="196.37" y="319.3779">in request():</text><text fill="#000000" font-family="sans-serif" font-size="13" lengthAdjust="spacing" textLength="79.479" x="196.37" y="337.1323">preRequest();</text><text fill="#000000" font-family="sans-serif" font-size="13" lengthAdjust="spacing" textLength="124.2808" x="196.37" y="354.8867">realSubject.request();</text><text fill="#000000" font-family="sans-serif" font-size="13" lengthAdjust="spacing" textLength="85.2617" x="196.37" y="372.6411">postRequest();</text></g><!--link RealSubject to Subject--><g class="link" data-entity-1="RealSubject" data-entity-2="Subject" data-source-line="19" data-uid="lnk6" id="link_RealSubject_Subject"><path codeline="19" d="M88.52,373.98 C80.28,394.15 76.5715,403.1986 68.3215,423.3786" fill="none" id="RealSubject-to-Subject" style="stroke:#181818;stroke-width:1;stroke-dasharray:7,7;"></path><polygon fill="none" points="61.51,440.04,73.8753,425.6491,62.7677,421.1081,61.51,440.04" style="stroke:#181818;stroke-width:1;"></polygon></g><!--link Proxy to Subject--><g class="link" data-entity-1="Proxy" data-entity-2="Subject" data-source-line="20" data-uid="lnk7" id="link_Proxy_Subject"><path codeline="20" d="M57.49,239.9 C46.66,258.2 36.6,278.88 31.01,299.48 C18.05,347.26 24.0003,387.4023 33.3003,422.7523" fill="none" id="Proxy-to-Subject" style="stroke:#181818;stroke-width:1;stroke-dasharray:7,7;"></path><polygon fill="none" points="37.88,440.16,39.1029,421.2258,27.4978,424.2789,37.88,440.16" style="stroke:#181818;stroke-width:1;"></polygon></g><!--link Proxy to RealSubject--><g class="link" data-entity-1="Proxy" data-entity-2="RealSubject" data-source-line="21" data-uid="lnk8" id="link_Proxy_RealSubject"><path codeline="21" d="M102.01,239.93 C102.01,262.42 102.01,280.98 102.01,300.01" fill="none" id="Proxy-to-RealSubject" style="stroke:#181818;stroke-width:1;"></path><polygon fill="#181818" points="102.01,306.01,106.01,297.01,102.01,301.01,98.01,297.01,102.01,306.01" style="stroke:#181818;stroke-width:1;"></polygon></g><!--link Client to Proxy--><g class="link" data-entity-1="Client" data-entity-2="Proxy" data-source-line="22" data-uid="lnk9" id="link_Client_Proxy"><path codeline="22" d="M102.01,55.5 C102.01,71.62 102.01,87.82 102.01,108.79" fill="none" id="Client-to-Proxy" style="stroke:#181818;stroke-width:1;stroke-dasharray:7,7;"></path><polygon fill="#181818" points="102.01,114.79,106.01,105.79,102.01,109.79,98.01,105.79,102.01,114.79" style="stroke:#181818;stroke-width:1;"></polygon></g><!--SRC=[ROzH3e8m44I_kwVOJurf3m09Frx0r1CKN98QRBLT4erwTwiebCZlxEoR6UkOGciQmdrV7wdXEuXDe4jFaLThU08qdOaHDPbkoI4cooxuwoqTPPYyHVwO_iw1z0YVOTBDHzR_oTlEaakXISXOgDIZ-dM6J_II96KrQp30ahCQwW8upuIrP_OdzErN5TRXsAq0aTSkGMG3LSZqsO8Io1tmZOSN]--></g></svg>