<svg xmlns="http://www.w3.org/2000/svg" xmlns:xlink="http://www.w3.org/1999/xlink" contentstyletype="text/css" data-diagram-type="CLASS" height="1070px" preserveAspectRatio="none" style="width:633px;height:1070px;background:#FFFFFF;" version="1.1" viewBox="0 0 633 1070" width="633px" zoomAndPan="magnify"><defs></defs><g><!--class PostInterface--><g class="entity" data-entity="PostInterface" data-source-line="1" data-uid="ent0002" id="entity_PostInterface"><rect fill="#F1F1F1" height="67.1201" rx="2.5" ry="2.5" style="stroke:#181818;stroke-width:0.5;" width="124.8066" x="220.41" y="996.08"></rect><ellipse cx="240.0528" cy="1012.08" fill="#B4A7E5" rx="11" ry="11" style="stroke:#181818;stroke-width:1;"></ellipse><path d="M236.6466,1006.8613 L236.6466,1005.9238 L242.4903,1005.9238 L242.4903,1006.8613 L240.6934,1006.8613 Q240.5216,1006.8613 240.4434,1006.9238 Q240.3653,1006.9863 240.3653,1007.1269 L240.3653,1016.6113 Q240.3653,1016.7519 240.4434,1016.8144 Q240.5216,1016.8769 240.6934,1016.8769 L242.4903,1016.8769 L242.4903,1017.8144 L236.6466,1017.8144 L236.6466,1016.8769 L238.4434,1016.8769 Q238.6622,1016.8769 238.7091,1016.83 Q238.7716,1016.7675 238.7716,1016.6113 L238.7716,1007.1269 Q238.7716,1006.9706 238.7091,1006.9238 Q238.6622,1006.8613 238.4434,1006.8613 L236.6466,1006.8613 Z " fill="#000000"></path><text fill="#000000" font-family="sans-serif" font-size="14" font-style="italic" lengthAdjust="spacing" textLength="82.4893" x="255.0846" y="1018.5639">PostInterface</text><line style="stroke:#181818;stroke-width:0.5;" x1="221.41" x2="344.2166" y1="1028.08" y2="1028.08"></line><line style="stroke:#181818;stroke-width:0.5;" x1="221.41" x2="344.2166" y1="1036.08" y2="1036.08"></line><ellipse cx="231.41" cy="1051.1401" fill="#84BE84" rx="3" ry="3" style="stroke:#038048;stroke-width:1;"></ellipse><text fill="#000000" font-family="sans-serif" font-size="14" lengthAdjust="spacing" textLength="98.8066" x="240.41" y="1056.1239">viewPost(): void</text></g><!--class RealPost--><g class="entity" data-entity="RealPost" data-source-line="5" data-uid="ent0003" id="entity_RealPost"><rect fill="#F1F1F1" height="67.1201" rx="2.5" ry="2.5" style="stroke:#181818;stroke-width:0.5;" width="124.8066" x="467.41" y="849.96"></rect><ellipse cx="498.61" cy="865.96" fill="#ADD1B2" rx="11" ry="11" style="stroke:#181818;stroke-width:1;"></ellipse><path d="M497.9538,871.8194 Q495.9694,871.8194 494.7975,870.3506 Q493.6413,868.8663 493.6413,865.7881 Q493.6413,863.1788 494.86,861.4288 Q496.0944,859.6788 498.2194,859.6788 Q498.7194,859.6788 499.2506,859.8194 Q499.6881,860.0069 499.9538,860.0069 Q500.1725,860.0069 500.2663,859.96 Q500.3756,859.9131 500.8288,859.3194 L501.5944,863.0538 L500.7038,863.3194 Q500.2506,861.8663 499.6413,861.2725 Q499.0475,860.6631 498.0944,860.6631 Q496.8756,860.6631 496.1569,862.1006 Q495.4381,863.5225 495.4381,865.71 Q495.4381,868.1163 496.0475,869.4131 Q496.6725,870.6944 498.0319,870.6944 Q498.985,870.6944 499.6725,870.0069 Q500.36,869.3038 500.6881,867.8038 L501.5944,868.21 Q501.1881,869.9131 500.2194,870.8663 Q499.2663,871.8194 497.9538,871.8194 Z " fill="#000000"></path><text fill="#000000" font-family="sans-serif" font-size="14" lengthAdjust="spacing" textLength="56.8066" x="516.21" y="872.4439">RealPost</text><line style="stroke:#181818;stroke-width:0.5;" x1="468.41" x2="591.2166" y1="881.96" y2="881.96"></line><line style="stroke:#181818;stroke-width:0.5;" x1="468.41" x2="591.2166" y1="889.96" y2="889.96"></line><ellipse cx="478.41" cy="905.0201" fill="#84BE84" rx="3" ry="3" style="stroke:#038048;stroke-width:1;"></ellipse><text fill="#000000" font-family="sans-serif" font-size="14" lengthAdjust="spacing" textLength="98.8066" x="487.41" y="910.0039">viewPost(): void</text></g><!--class PermissionProxy--><g class="entity" data-entity="PermissionProxy" data-source-line="9" data-uid="ent0004" id="entity_PermissionProxy"><rect fill="#F1F1F1" height="86.2402" rx="2.5" ry="2.5" style="stroke:#181818;stroke-width:0.5;" width="167.627" x="7" y="116"></rect><ellipse cx="35.7698" cy="132" fill="#ADD1B2" rx="11" ry="11" style="stroke:#181818;stroke-width:1;"></ellipse><path d="M35.1136,137.8594 Q33.1292,137.8594 31.9573,136.3906 Q30.8011,134.9063 30.8011,131.8281 Q30.8011,129.2188 32.0198,127.4688 Q33.2542,125.7188 35.3792,125.7188 Q35.8792,125.7188 36.4104,125.8594 Q36.8479,126.0469 37.1136,126.0469 Q37.3323,126.0469 37.4261,126 Q37.5354,125.9531 37.9886,125.3594 L38.7542,129.0938 L37.8636,129.3594 Q37.4104,127.9063 36.8011,127.3125 Q36.2073,126.7031 35.2542,126.7031 Q34.0354,126.7031 33.3167,128.1406 Q32.5979,129.5625 32.5979,131.75 Q32.5979,134.1563 33.2073,135.4531 Q33.8323,136.7344 35.1917,136.7344 Q36.1448,136.7344 36.8323,136.0469 Q37.5198,135.3438 37.8479,133.8438 L38.7542,134.25 Q38.3479,135.9531 37.3792,136.9063 Q36.4261,137.8594 35.1136,137.8594 Z " fill="#000000"></path><text fill="#000000" font-family="sans-serif" font-size="14" lengthAdjust="spacing" textLength="105.0273" x="52.8298" y="138.4839">PermissionProxy</text><line style="stroke:#181818;stroke-width:0.5;" x1="8" x2="173.627" y1="148" y2="148"></line><rect fill="none" height="6" style="stroke:#C82930;stroke-width:1;" width="6" x="15" y="160.0601"></rect><text fill="#000000" font-family="sans-serif" font-size="14" lengthAdjust="spacing" textLength="141.627" x="27" y="168.0439">realPost: PostInterface</text><line style="stroke:#181818;stroke-width:0.5;" x1="8" x2="173.627" y1="175.1201" y2="175.1201"></line><ellipse cx="18" cy="190.1802" fill="#84BE84" rx="3" ry="3" style="stroke:#038048;stroke-width:1;"></ellipse><text fill="#000000" font-family="sans-serif" font-size="14" lengthAdjust="spacing" textLength="98.8066" x="27" y="195.1641">viewPost(): void</text></g><!--class ImageVirtualProxy--><g class="entity" data-entity="ImageVirtualProxy" data-source-line="14" data-uid="ent0005" id="entity_ImageVirtualProxy"><rect fill="#F1F1F1" height="86.2402" rx="2.5" ry="2.5" style="stroke:#181818;stroke-width:0.5;" width="167.627" x="124" y="263.24"></rect><ellipse cx="148.5616" cy="279.24" fill="#ADD1B2" rx="11" ry="11" style="stroke:#181818;stroke-width:1;"></ellipse><path d="M147.9054,285.0994 Q145.921,285.0994 144.7491,283.6306 Q143.5929,282.1463 143.5929,279.0681 Q143.5929,276.4588 144.8116,274.7088 Q146.046,272.9588 148.171,272.9588 Q148.671,272.9588 149.2022,273.0994 Q149.6397,273.2869 149.9054,273.2869 Q150.1241,273.2869 150.2179,273.24 Q150.3272,273.1931 150.7804,272.5994 L151.546,276.3338 L150.6554,276.5994 Q150.2022,275.1463 149.5929,274.5525 Q148.9991,273.9431 148.046,273.9431 Q146.8272,273.9431 146.1085,275.3806 Q145.3897,276.8025 145.3897,278.99 Q145.3897,281.3963 145.9991,282.6931 Q146.6241,283.9744 147.9835,283.9744 Q148.9366,283.9744 149.6241,283.2869 Q150.3116,282.5838 150.6397,281.0838 L151.546,281.49 Q151.1397,283.1931 150.171,284.1463 Q149.2179,285.0994 147.9054,285.0994 Z " fill="#000000"></path><text fill="#000000" font-family="sans-serif" font-size="14" lengthAdjust="spacing" textLength="114.3789" x="164.6864" y="285.7239">ImageVirtualProxy</text><line style="stroke:#181818;stroke-width:0.5;" x1="125" x2="290.627" y1="295.24" y2="295.24"></line><rect fill="none" height="6" style="stroke:#C82930;stroke-width:1;" width="6" x="132" y="307.3001"></rect><text fill="#000000" font-family="sans-serif" font-size="14" lengthAdjust="spacing" textLength="141.627" x="144" y="315.2839">realPost: PostInterface</text><line style="stroke:#181818;stroke-width:0.5;" x1="125" x2="290.627" y1="322.3601" y2="322.3601"></line><ellipse cx="135" cy="337.4202" fill="#84BE84" rx="3" ry="3" style="stroke:#038048;stroke-width:1;"></ellipse><text fill="#000000" font-family="sans-serif" font-size="14" lengthAdjust="spacing" textLength="98.8066" x="144" y="342.4041">viewPost(): void</text></g><!--class RemotePostProxy--><g class="entity" data-entity="RemotePostProxy" data-source-line="19" data-uid="ent0006" id="entity_RemotePostProxy"><rect fill="#F1F1F1" height="86.2402" rx="2.5" ry="2.5" style="stroke:#181818;stroke-width:0.5;" width="167.627" x="245" y="410.48"></rect><ellipse cx="270.263" cy="426.48" fill="#ADD1B2" rx="11" ry="11" style="stroke:#181818;stroke-width:1;"></ellipse><path d="M269.6067,432.3394 Q267.6224,432.3394 266.4505,430.8706 Q265.2942,429.3863 265.2942,426.3081 Q265.2942,423.6988 266.513,421.9488 Q267.7474,420.1988 269.8724,420.1988 Q270.3724,420.1988 270.9036,420.3394 Q271.3411,420.5269 271.6067,420.5269 Q271.8255,420.5269 271.9192,420.48 Q272.0286,420.4331 272.4817,419.8394 L273.2474,423.5738 L272.3567,423.8394 Q271.9036,422.3863 271.2942,421.7925 Q270.7005,421.1831 269.7474,421.1831 Q268.5286,421.1831 267.8099,422.6206 Q267.0911,424.0425 267.0911,426.23 Q267.0911,428.6363 267.7005,429.9331 Q268.3255,431.2144 269.6849,431.2144 Q270.638,431.2144 271.3255,430.5269 Q272.013,429.8238 272.3411,428.3238 L273.2474,428.73 Q272.8411,430.4331 271.8724,431.3863 Q270.9192,432.3394 269.6067,432.3394 Z " fill="#000000"></path><text fill="#000000" font-family="sans-serif" font-size="14" lengthAdjust="spacing" textLength="112.8203" x="286.5437" y="432.9639">RemotePostProxy</text><line style="stroke:#181818;stroke-width:0.5;" x1="246" x2="411.627" y1="442.48" y2="442.48"></line><rect fill="none" height="6" style="stroke:#C82930;stroke-width:1;" width="6" x="253" y="454.5401"></rect><text fill="#000000" font-family="sans-serif" font-size="14" lengthAdjust="spacing" textLength="141.627" x="265" y="462.5239">realPost: PostInterface</text><line style="stroke:#181818;stroke-width:0.5;" x1="246" x2="411.627" y1="469.6001" y2="469.6001"></line><ellipse cx="256" cy="484.6602" fill="#84BE84" rx="3" ry="3" style="stroke:#038048;stroke-width:1;"></ellipse><text fill="#000000" font-family="sans-serif" font-size="14" lengthAdjust="spacing" textLength="98.8066" x="265" y="489.6441">viewPost(): void</text></g><!--class CacheProxy--><g class="entity" data-entity="CacheProxy" data-source-line="24" data-uid="ent0007" id="entity_CacheProxy"><rect fill="#F1F1F1" height="86.2402" rx="2.5" ry="2.5" style="stroke:#181818;stroke-width:0.5;" width="167.627" x="336" y="557.72"></rect><ellipse cx="377.7174" cy="573.72" fill="#ADD1B2" rx="11" ry="11" style="stroke:#181818;stroke-width:1;"></ellipse><path d="M377.0612,579.5794 Q375.0768,579.5794 373.9049,578.1106 Q372.7487,576.6263 372.7487,573.5481 Q372.7487,570.9388 373.9674,569.1888 Q375.2018,567.4388 377.3268,567.4388 Q377.8268,567.4388 378.3581,567.5794 Q378.7956,567.7669 379.0612,567.7669 Q379.2799,567.7669 379.3737,567.72 Q379.4831,567.6731 379.9362,567.0794 L380.7018,570.8138 L379.8112,571.0794 Q379.3581,569.6263 378.7487,569.0325 Q378.1549,568.4231 377.2018,568.4231 Q375.9831,568.4231 375.2643,569.8606 Q374.5456,571.2825 374.5456,573.47 Q374.5456,575.8763 375.1549,577.1731 Q375.7799,578.4544 377.1393,578.4544 Q378.0924,578.4544 378.7799,577.7669 Q379.4674,577.0638 379.7956,575.5638 L380.7018,575.97 Q380.2956,577.6731 379.3268,578.6263 Q378.3737,579.5794 377.0612,579.5794 Z " fill="#000000"></path><text fill="#000000" font-family="sans-serif" font-size="14" lengthAdjust="spacing" textLength="76.2549" x="397.6546" y="580.2039">CacheProxy</text><line style="stroke:#181818;stroke-width:0.5;" x1="337" x2="502.627" y1="589.72" y2="589.72"></line><rect fill="none" height="6" style="stroke:#C82930;stroke-width:1;" width="6" x="344" y="601.7801"></rect><text fill="#000000" font-family="sans-serif" font-size="14" lengthAdjust="spacing" textLength="141.627" x="356" y="609.7639">realPost: PostInterface</text><line style="stroke:#181818;stroke-width:0.5;" x1="337" x2="502.627" y1="616.8401" y2="616.8401"></line><ellipse cx="347" cy="631.9002" fill="#84BE84" rx="3" ry="3" style="stroke:#038048;stroke-width:1;"></ellipse><text fill="#000000" font-family="sans-serif" font-size="14" lengthAdjust="spacing" textLength="98.8066" x="356" y="636.8841">viewPost(): void</text></g><!--class Client--><g class="entity" data-entity="Client" data-source-line="29" data-uid="ent0008" id="entity_Client"><rect fill="#F1F1F1" height="48" rx="2.5" ry="2.5" style="stroke:#181818;stroke-width:0.5;" width="67.793" x="56.92" y="7"></rect><ellipse cx="71.92" cy="23" fill="#ADD1B2" rx="11" ry="11" style="stroke:#181818;stroke-width:1;"></ellipse><path d="M71.2638,28.8594 Q69.2794,28.8594 68.1075,27.3906 Q66.9513,25.9063 66.9513,22.8281 Q66.9513,20.2188 68.17,18.4688 Q69.4044,16.7188 71.5294,16.7188 Q72.0294,16.7188 72.5606,16.8594 Q72.9981,17.0469 73.2638,17.0469 Q73.4825,17.0469 73.5763,17 Q73.6856,16.9531 74.1388,16.3594 L74.9044,20.0938 L74.0138,20.3594 Q73.5606,18.9063 72.9513,18.3125 Q72.3575,17.7031 71.4044,17.7031 Q70.1856,17.7031 69.4669,19.1406 Q68.7481,20.5625 68.7481,22.75 Q68.7481,25.1563 69.3575,26.4531 Q69.9825,27.7344 71.3419,27.7344 Q72.295,27.7344 72.9825,27.0469 Q73.67,26.3438 73.9981,24.8438 L74.9044,25.25 Q74.4981,26.9531 73.5294,27.9063 Q72.5763,28.8594 71.2638,28.8594 Z " fill="#000000"></path><text fill="#000000" font-family="sans-serif" font-size="14" lengthAdjust="spacing" textLength="35.793" x="85.92" y="29.4839">Client</text><line style="stroke:#181818;stroke-width:0.5;" x1="57.92" x2="123.713" y1="39" y2="39"></line><line style="stroke:#181818;stroke-width:0.5;" x1="57.92" x2="123.713" y1="47" y2="47"></line></g><!--class SmartReferenceProxy--><g class="entity" data-entity="SmartReferenceProxy" data-source-line="42" data-uid="ent0017" id="entity_SmartReferenceProxy"><rect fill="#F1F1F1" height="48" rx="2.5" ry="2.5" style="stroke:#181818;stroke-width:0.5;" width="169.7168" x="456.96" y="722.96"></rect><ellipse cx="471.96" cy="738.96" fill="#ADD1B2" rx="11" ry="11" style="stroke:#181818;stroke-width:1;"></ellipse><path d="M471.3038,744.8194 Q469.3194,744.8194 468.1475,743.3506 Q466.9913,741.8663 466.9913,738.7881 Q466.9913,736.1788 468.21,734.4288 Q469.4444,732.6788 471.5694,732.6788 Q472.0694,732.6788 472.6006,732.8194 Q473.0381,733.0069 473.3038,733.0069 Q473.5225,733.0069 473.6163,732.96 Q473.7256,732.9131 474.1788,732.3194 L474.9444,736.0538 L474.0538,736.3194 Q473.6006,734.8663 472.9913,734.2725 Q472.3975,733.6631 471.4444,733.6631 Q470.2256,733.6631 469.5069,735.1006 Q468.7881,736.5225 468.7881,738.71 Q468.7881,741.1163 469.3975,742.4131 Q470.0225,743.6944 471.3819,743.6944 Q472.335,743.6944 473.0225,743.0069 Q473.71,742.3038 474.0381,740.8038 L474.9444,741.21 Q474.5381,742.9131 473.5694,743.8663 Q472.6163,744.8194 471.3038,744.8194 Z " fill="#000000"></path><text fill="#000000" font-family="sans-serif" font-size="14" lengthAdjust="spacing" textLength="137.7168" x="485.96" y="745.4439">SmartReferenceProxy</text><line style="stroke:#181818;stroke-width:0.5;" x1="457.96" x2="625.6768" y1="754.96" y2="754.96"></line><line style="stroke:#181818;stroke-width:0.5;" x1="457.96" x2="625.6768" y1="762.96" y2="762.96"></line></g><!--link RealPost to PostInterface--><g class="link" data-entity-1="RealPost" data-entity-2="PostInterface" data-source-line="32" data-uid="lnk9" id="link_RealPost_PostInterface"><path codeline="32" d="M494.62,917.35 C476.24,933.39 452.83,952.18 429.81,966.08 C403.46,981.99 389.057,989.2464 362.247,999.8564" fill="none" id="RealPost-to-PostInterface" style="stroke:#181818;stroke-width:1;stroke-dasharray:7,7;"></path><polygon fill="none" points="345.51,1006.48,364.4549,1005.4354,360.0391,994.2774,345.51,1006.48" style="stroke:#181818;stroke-width:1;"></polygon><text fill="#000000" font-family="sans-serif" font-size="13" lengthAdjust="spacing" textLength="66.4663" x="457.19" y="962.9779">implements</text></g><!--link PermissionProxy to PostInterface--><g class="link" data-entity-1="PermissionProxy" data-entity-2="PostInterface" data-source-line="33" data-uid="lnk10" id="link_PermissionProxy_PostInterface"><path codeline="33" d="M81.87,202.49 C76.54,231.34 70.81,270.49 70.81,305.36 C70.81,305.36 70.81,305.36 70.81,884.52 C70.81,957.4 140.2793,990.9382 202.7993,1009.2982" fill="none" id="PermissionProxy-to-PostInterface" style="stroke:#181818;stroke-width:1;stroke-dasharray:7,7;"></path><polygon fill="none" points="220.07,1014.37,204.4899,1003.5413,201.1087,1015.0551,220.07,1014.37" style="stroke:#181818;stroke-width:1;"></polygon><text fill="#000000" font-family="sans-serif" font-size="13" lengthAdjust="spacing" textLength="66.4663" x="71.81" y="607.2379">implements</text></g><!--link ImageVirtualProxy to PostInterface--><g class="link" data-entity-1="ImageVirtualProxy" data-entity-2="PostInterface" data-source-line="34" data-uid="lnk11" id="link_ImageVirtualProxy_PostInterface"><path codeline="34" d="M200.66,349.8 C196.4,378.69 191.81,417.85 191.81,452.6 C191.81,452.6 191.81,452.6 191.81,884.52 C191.81,927.72 209.0879,955.3988 234.5279,982.4888" fill="none" id="ImageVirtualProxy-to-PostInterface" style="stroke:#181818;stroke-width:1;stroke-dasharray:7,7;"></path><polygon fill="none" points="246.85,995.61,238.9017,978.3814,230.1542,986.5961,246.85,995.61" style="stroke:#181818;stroke-width:1;"></polygon><text fill="#000000" font-family="sans-serif" font-size="13" lengthAdjust="spacing" textLength="66.4663" x="192.81" y="689.8579">implements</text></g><!--link RemotePostProxy to PostInterface--><g class="link" data-entity-1="RemotePostProxy" data-entity-2="PostInterface" data-source-line="35" data-uid="lnk12" id="link_RemotePostProxy_PostInterface"><path codeline="35" d="M307.83,497.02 C295.7,525.41 282.81,564 282.81,599.84 C282.81,599.84 282.81,599.84 282.81,884.52 C282.81,922.68 282.81,948.52 282.81,977.73" fill="none" id="RemotePostProxy-to-PostInterface" style="stroke:#181818;stroke-width:1;stroke-dasharray:7,7;"></path><polygon fill="none" points="282.81,995.73,288.81,977.73,276.81,977.73,282.81,995.73" style="stroke:#181818;stroke-width:1;"></polygon><text fill="#000000" font-family="sans-serif" font-size="13" lengthAdjust="spacing" textLength="66.4663" x="283.81" y="753.3579">implements</text></g><!--link CacheProxy to PostInterface--><g class="link" data-entity-1="CacheProxy" data-entity-2="PostInterface" data-source-line="36" data-uid="lnk13" id="link_CacheProxy_PostInterface"><path codeline="36" d="M408.32,644.35 C389.5,712.77 350.04,851.29 308.81,966.08 C305.31,975.82 308.0756,969.6457 304.1156,979.1457" fill="none" id="CacheProxy-to-PostInterface" style="stroke:#181818;stroke-width:1;stroke-dasharray:7,7;"></path><polygon fill="none" points="297.19,995.76,309.6537,981.4542,298.5774,976.8371,297.19,995.76" style="stroke:#181818;stroke-width:1;"></polygon><text fill="#000000" font-family="sans-serif" font-size="13" lengthAdjust="spacing" textLength="66.4663" x="363.64" y="816.8579">implements</text></g><!--link PermissionProxy to ImageVirtualProxy--><g class="link" data-entity-1="PermissionProxy" data-entity-2="ImageVirtualProxy" data-source-line="39" data-uid="lnk14" id="link_PermissionProxy_ImageVirtualProxy"><path codeline="39" d="M124.97,202.52 C140.28,221.53 154.5363,239.2173 169.8563,258.2373" fill="none" id="PermissionProxy-to-ImageVirtualProxy" style="stroke:#181818;stroke-width:1;"></path><polygon fill="#181818" points="173.62,262.91,171.0896,253.3918,170.4836,259.0161,164.8593,258.4101,173.62,262.91" style="stroke:#181818;stroke-width:1;"></polygon></g><!--link ImageVirtualProxy to RemotePostProxy--><g class="link" data-entity-1="ImageVirtualProxy" data-entity-2="RemotePostProxy" data-source-line="40" data-uid="lnk15" id="link_ImageVirtualProxy_RemotePostProxy"><path codeline="40" d="M243.14,349.76 C258.97,368.77 273.7703,386.5195 289.6103,405.5395" fill="none" id="ImageVirtualProxy-to-RemotePostProxy" style="stroke:#181818;stroke-width:1;"></path><polygon fill="#181818" points="293.45,410.15,290.7642,400.6744,290.2503,406.3079,284.6168,405.794,293.45,410.15" style="stroke:#181818;stroke-width:1;"></polygon></g><!--link RemotePostProxy to CacheProxy--><g class="link" data-entity-1="RemotePostProxy" data-entity-2="CacheProxy" data-source-line="41" data-uid="lnk16" id="link_RemotePostProxy_CacheProxy"><path codeline="41" d="M355.38,497 C367.29,516.01 378.1157,533.2847 390.0257,552.3047" fill="none" id="RemotePostProxy-to-CacheProxy" style="stroke:#181818;stroke-width:1;"></path><polygon fill="#181818" points="393.21,557.39,391.8237,547.6392,390.5564,553.1523,385.0433,551.885,393.21,557.39" style="stroke:#181818;stroke-width:1;"></polygon></g><!--link CacheProxy to SmartReferenceProxy--><g class="link" data-entity-1="CacheProxy" data-entity-2="SmartReferenceProxy" data-source-line="42" data-uid="lnk18" id="link_CacheProxy_SmartReferenceProxy"><path codeline="42" d="M455.76,644.3 C477.41,669.87 500.2721,696.8916 518.1521,718.0016" fill="none" id="CacheProxy-to-SmartReferenceProxy" style="stroke:#181818;stroke-width:1;"></path><polygon fill="#181818" points="522.03,722.58,519.2654,713.1271,518.7984,718.7646,513.1609,718.2976,522.03,722.58" style="stroke:#181818;stroke-width:1;"></polygon></g><!--link SmartReferenceProxy to RealPost--><g class="link" data-entity-1="SmartReferenceProxy" data-entity-2="RealPost" data-source-line="43" data-uid="lnk19" id="link_SmartReferenceProxy_RealPost"><path codeline="43" d="M539.72,771.4 C537.8,793.01 535.4532,819.3337 533.2932,843.5437" fill="none" id="SmartReferenceProxy-to-RealPost" style="stroke:#181818;stroke-width:1;"></path><polygon fill="#181818" points="532.76,849.52,537.544,840.9111,533.2043,844.5398,529.5756,840.2001,532.76,849.52" style="stroke:#181818;stroke-width:1;"></polygon></g><!--link Client to PermissionProxy--><g class="link" data-entity-1="Client" data-entity-2="PermissionProxy" data-source-line="46" data-uid="lnk20" id="link_Client_PermissionProxy"><path codeline="46" d="M90.81,55.43 C90.81,72.31 90.81,89.57 90.81,109.68" fill="none" id="Client-to-PermissionProxy" style="stroke:#181818;stroke-width:1;stroke-dasharray:7,7;"></path><polygon fill="#181818" points="90.81,115.68,94.81,106.68,90.81,110.68,86.81,106.68,90.81,115.68" style="stroke:#181818;stroke-width:1;"></polygon></g><!--SRC=[oymhIIrAIqnELGZ8BoxnXF6gkJYrop9Joq626ffM2cNvcIbSjLnSoJc9nSKAGQc9EI0P_Ae2KejoCukBC_Fp0ehoAog1YdMBe1gjK6t3QundRc9wQbXcKKafK2yb1WMbvkQNf8BaA3B6EJ4v8vKo4t8oK_E0WGSKW8MaWfvUZHsg4LOAcRa5EQcvGAN5N6XXIKWvHfWHqe0MDeIK8yA0a4ekTOLdC_OzNxBhoUx5poUqlPoyxsdhvkURTx_Vqm4ItDVzViyiXESK7hLDKe2w6yo6k0lC1Di9PWNd9XQLGAKJSzxlwLJ021zTNJlCXAE09Ln02j4zZn4Q84L8NaRsFaWAx9wWrBJKejIyP9WQR88Goo0npiN51Ka7m12qGyyhN000]--></g></svg>