<svg xmlns="http://www.w3.org/2000/svg" xmlns:xlink="http://www.w3.org/1999/xlink" contentstyletype="text/css" data-diagram-type="ACTIVITY" height="432px" preserveAspectRatio="none" style="width:600px;height:432px;background:#FFFFFF;" version="1.1" viewBox="0 0 600 432" width="600px" zoomAndPan="magnify"><defs></defs><g><ellipse cx="343" cy="20" fill="#222222" rx="10" ry="10" style="stroke:#222222;stroke-width:1;"></ellipse><rect fill="#F1F1F1" height="36.3887" rx="12.5" ry="12.5" style="stroke:#181818;stroke-width:0.5;" width="128" x="279" y="50"></rect><text fill="#000000" font-family="sans-serif" font-size="12" lengthAdjust="spacing" textLength="108" x="289" y="73.752">输入待删除的读者名</text><rect fill="#F1F1F1" height="36.3887" rx="12.5" ry="12.5" style="stroke:#181818;stroke-width:0.5;" width="140" x="273" y="106.3887"></rect><text fill="#000000" font-family="sans-serif" font-size="12" lengthAdjust="spacing" textLength="120" x="283" y="130.1406">在数据库中查找该读者</text><polygon fill="#F1F1F1" points="343,162.7773,343,162.7773,355,174.7773,343,186.7773,343,186.7773,331,174.7773,343,162.7773" style="stroke:#181818;stroke-width:0.5;"></polygon><text fill="#000000" font-family="sans-serif" font-size="11" lengthAdjust="spacing" textLength="28.1123" x="302.8877" y="172.3604">[存在]</text><text fill="#000000" font-family="sans-serif" font-size="11" lengthAdjust="spacing" textLength="39.1123" x="355" y="172.3604">[不存在]</text><rect fill="#F1F1F1" height="36.3887" rx="12.5" ry="12.5" style="stroke:#181818;stroke-width:0.5;" width="152" x="109" y="196.7773"></rect><text fill="#000000" font-family="sans-serif" font-size="12" lengthAdjust="spacing" textLength="132" x="119" y="220.5293">判断该读者是否可以删除</text><polygon fill="#F1F1F1" points="185,253.166,185,253.166,197,265.166,185,277.166,185,277.166,173,265.166,185,253.166" style="stroke:#181818;stroke-width:0.5;"></polygon><text fill="#000000" font-family="sans-serif" font-size="11" lengthAdjust="spacing" textLength="50.1123" x="122.8877" y="262.749">[可以删除]</text><text fill="#000000" font-family="sans-serif" font-size="11" lengthAdjust="spacing" textLength="50.1123" x="197" y="262.749">[不可删除]</text><rect fill="#F1F1F1" height="36.3887" rx="12.5" ry="12.5" style="stroke:#181818;stroke-width:0.5;" width="152" x="11" y="287.166"></rect><text fill="#000000" font-family="sans-serif" font-size="12" lengthAdjust="spacing" textLength="132" x="21" y="310.918">在数据库中删除相关信息</text><rect fill="#F1F1F1" height="36.3887" rx="12.5" ry="12.5" style="stroke:#181818;stroke-width:0.5;" width="116" x="29" y="343.5547"></rect><text fill="#000000" font-family="sans-serif" font-size="12" lengthAdjust="spacing" textLength="96" x="39" y="367.3066">显示删除成功信息</text><ellipse cx="87" cy="410.9434" fill="none" rx="11" ry="11" style="stroke:#222222;stroke-width:1;"></ellipse><ellipse cx="87" cy="410.9434" fill="#222222" rx="6" ry="6" style="stroke:#222222;stroke-width:1;"></ellipse><rect fill="#F1F1F1" height="36.3887" rx="12.5" ry="12.5" style="stroke:#181818;stroke-width:0.5;" width="200" x="183" y="287.166"></rect><text fill="#000000" font-family="sans-serif" font-size="12" lengthAdjust="spacing" textLength="180" x="193" y="310.918">显示出错信息（该读者不可删除）</text><ellipse cx="283" cy="354.5547" fill="none" rx="11" ry="11" style="stroke:#222222;stroke-width:1;"></ellipse><ellipse cx="283" cy="354.5547" fill="#222222" rx="6" ry="6" style="stroke:#222222;stroke-width:1;"></ellipse><rect fill="#F1F1F1" height="36.3887" rx="12.5" ry="12.5" style="stroke:#181818;stroke-width:0.5;" width="176" x="413" y="196.7773"></rect><text fill="#000000" font-family="sans-serif" font-size="12" lengthAdjust="spacing" textLength="156" x="423" y="220.5293">显示出错信息（读者不存在）</text><ellipse cx="501" cy="264.166" fill="none" rx="11" ry="11" style="stroke:#222222;stroke-width:1;"></ellipse><ellipse cx="501" cy="264.166" fill="#222222" rx="6" ry="6" style="stroke:#222222;stroke-width:1;"></ellipse><line style="stroke:#181818;stroke-width:1;" x1="343" x2="343" y1="30" y2="50"></line><polygon fill="#181818" points="339,40,343,50,347,40,343,44" style="stroke:#181818;stroke-width:1;"></polygon><line style="stroke:#181818;stroke-width:1;" x1="343" x2="343" y1="86.3887" y2="106.3887"></line><polygon fill="#181818" points="339,96.3887,343,106.3887,347,96.3887,343,100.3887" style="stroke:#181818;stroke-width:1;"></polygon><line style="stroke:#181818;stroke-width:1;" x1="87" x2="87" y1="323.5547" y2="343.5547"></line><polygon fill="#181818" points="83,333.5547,87,343.5547,91,333.5547,87,337.5547" style="stroke:#181818;stroke-width:1;"></polygon><line style="stroke:#181818;stroke-width:1;" x1="87" x2="87" y1="379.9434" y2="399.9434"></line><polygon fill="#181818" points="83,389.9434,87,399.9434,91,389.9434,87,393.9434" style="stroke:#181818;stroke-width:1;"></polygon><line style="stroke:#181818;stroke-width:1;" x1="283" x2="283" y1="323.5547" y2="343.5547"></line><polygon fill="#181818" points="279,333.5547,283,343.5547,287,333.5547,283,337.5547" style="stroke:#181818;stroke-width:1;"></polygon><line style="stroke:#181818;stroke-width:1;" x1="173" x2="87" y1="265.166" y2="265.166"></line><line style="stroke:#181818;stroke-width:1;" x1="87" x2="87" y1="265.166" y2="287.166"></line><polygon fill="#181818" points="83,277.166,87,287.166,91,277.166,87,281.166" style="stroke:#181818;stroke-width:1;"></polygon><line style="stroke:#181818;stroke-width:1;" x1="197" x2="283" y1="265.166" y2="265.166"></line><line style="stroke:#181818;stroke-width:1;" x1="283" x2="283" y1="265.166" y2="287.166"></line><polygon fill="#181818" points="279,277.166,283,287.166,287,277.166,283,281.166" style="stroke:#181818;stroke-width:1;"></polygon><line style="stroke:#181818;stroke-width:1;" x1="185" x2="185" y1="233.166" y2="253.166"></line><polygon fill="#181818" points="181,243.166,185,253.166,189,243.166,185,247.166" style="stroke:#181818;stroke-width:1;"></polygon><line style="stroke:#181818;stroke-width:1;" x1="501" x2="501" y1="233.166" y2="253.166"></line><polygon fill="#181818" points="497,243.166,501,253.166,505,243.166,501,247.166" style="stroke:#181818;stroke-width:1;"></polygon><line style="stroke:#181818;stroke-width:1;" x1="331" x2="185" y1="174.7773" y2="174.7773"></line><line style="stroke:#181818;stroke-width:1;" x1="185" x2="185" y1="174.7773" y2="196.7773"></line><polygon fill="#181818" points="181,186.7773,185,196.7773,189,186.7773,185,190.7773" style="stroke:#181818;stroke-width:1;"></polygon><line style="stroke:#181818;stroke-width:1;" x1="355" x2="501" y1="174.7773" y2="174.7773"></line><line style="stroke:#181818;stroke-width:1;" x1="501" x2="501" y1="174.7773" y2="196.7773"></line><polygon fill="#181818" points="497,186.7773,501,196.7773,505,186.7773,501,190.7773" style="stroke:#181818;stroke-width:1;"></polygon><line style="stroke:#181818;stroke-width:1;" x1="343" x2="343" y1="142.7773" y2="162.7773"></line><polygon fill="#181818" points="339,152.7773,343,162.7773,347,152.7773,343,156.7773" style="stroke:#181818;stroke-width:1;"></polygon><!--SRC=[TL7VJe9G6By_Jt7MZVeA-YYjYxPqkJLhoGEO2qMJi6aacgaDNBO8pAqH8BuCtpbmnIi4GWukkZjdt-_Vz_lgpEarWr3HSmR0Ak2mmCrzIQRZMq-pl0OBVRw4Yl3yHXvrmd-2EN0DbSmKqd4yJOan9OHo65eRgefUjqcRFu4zzeGrR5_zTiyrU6X9PBfmhU_0xe7m7dxfoWJrYNuiNUCB7nsXQWNd2vWvBzTm_XZKKUXtKa0O5u6JYQWUdCX8W_uI1Csrb3Xew8rnbfwQxaKYcMp-PCU90Up6tIt8ZLQASMJaKDcCnuJhGtUM7jUPowlmKRwebqEVQ351o_ea_BRf3wMO6TZS8NsQ4TYTh6Zjh5f1AAMTQk4VsJ_DFJ8Hp65l9uMr-mtBSnvSenjLDda1JlVRF17r-CxX8TpjF6xARtJ8tOeEhGXsRn5EZCwkhqCAKMLg3SXqXfASSSfV]--></g></svg>