<svg xmlns="http://www.w3.org/2000/svg" xmlns:xlink="http://www.w3.org/1999/xlink" contentstyletype="text/css" data-diagram-type="DESCRIPTION" height="713px" preserveAspectRatio="none" style="width:792px;height:713px;background:#FFFFFF;" version="1.1" viewBox="0 0 792 713" width="792px" zoomAndPan="magnify"><defs></defs><g><!--cluster ??????--><g class="cluster" data-entity="......" data-source-line="8" data-uid="ent0005" id="cluster_......"><rect fill="none" height="428" rx="2.5" ry="2.5" style="stroke:#181818;stroke-width:1;" width="663.1" x="123" y="101.06"></rect><text fill="#000000" font-family="sans-serif" font-size="14" font-weight="bold" lengthAdjust="spacing" textLength="86.625" x="411.2375" y="119.1039">旅店管理系统</text></g><!--entity UC1--><g class="entity" data-entity="UC1" data-source-line="9" data-uid="ent0006" id="entity_UC1"><ellipse cx="210.448" cy="327.06" fill="#F1F1F1" rx="42.598" ry="16.52" style="stroke:#181818;stroke-width:0.5;"></ellipse><text fill="#000000" font-family="sans-serif" font-size="14" lengthAdjust="spacing" textLength="56" x="182.448" y="333.12">预定房间</text></g><!--entity UC2--><g class="entity" data-entity="UC2" data-source-line="10" data-uid="ent0007" id="entity_UC2"><ellipse cx="210.448" cy="395.06" fill="#F1F1F1" rx="42.598" ry="16.52" style="stroke:#181818;stroke-width:0.5;"></ellipse><text fill="#000000" font-family="sans-serif" font-size="14" lengthAdjust="spacing" textLength="56" x="182.448" y="401.12">取消预定</text></g><!--entity UC3--><g class="entity" data-entity="UC3" data-source-line="11" data-uid="ent0008" id="entity_UC3"><ellipse cx="210.4534" cy="259.0607" fill="#F1F1F1" rx="71.4534" ry="16.6907" style="stroke:#181818;stroke-width:0.5;"></ellipse><text fill="#000000" font-family="sans-serif" font-size="14" lengthAdjust="spacing" textLength="98" x="161.4534" y="265.1207">查询房间可用性</text></g><!--entity UC4--><g class="entity" data-entity="UC4" data-source-line="12" data-uid="ent0009" id="entity_UC4"><ellipse cx="461.297" cy="428.06" fill="#F1F1F1" rx="62.397" ry="16.52" style="stroke:#181818;stroke-width:0.5;"></ellipse><text fill="#000000" font-family="sans-serif" font-size="14" lengthAdjust="spacing" textLength="84" x="419.297" y="434.12">记录旅客信息</text></g><!--entity UC5--><g class="entity" data-entity="UC5" data-source-line="13" data-uid="ent0010" id="entity_UC5"><ellipse cx="461.2975" cy="360.06" fill="#F1F1F1" rx="52.4975" ry="16.52" style="stroke:#181818;stroke-width:0.5;"></ellipse><text fill="#000000" font-family="sans-serif" font-size="14" lengthAdjust="spacing" textLength="70" x="426.2975" y="366.12">计算总费用</text></g><!--entity UC6--><g class="entity" data-entity="UC6" data-source-line="14" data-uid="ent0011" id="entity_UC6"><ellipse cx="461.298" cy="292.06" fill="#F1F1F1" rx="42.598" ry="16.52" style="stroke:#181818;stroke-width:0.5;"></ellipse><text fill="#000000" font-family="sans-serif" font-size="14" lengthAdjust="spacing" textLength="56" x="433.298" y="298.12">提交定金</text></g><!--entity UC7--><g class="entity" data-entity="UC7" data-source-line="15" data-uid="ent0012" id="entity_UC7"><ellipse cx="461.298" cy="496.06" fill="#F1F1F1" rx="42.598" ry="16.52" style="stroke:#181818;stroke-width:0.5;"></ellipse><text fill="#000000" font-family="sans-serif" font-size="14" lengthAdjust="spacing" textLength="56" x="433.298" y="502.12">退还定金</text></g><!--entity UC8--><g class="entity" data-entity="UC8" data-source-line="16" data-uid="ent0013" id="entity_UC8"><ellipse cx="707.697" cy="207.06" fill="#F1F1F1" rx="62.397" ry="16.52" style="stroke:#181818;stroke-width:0.5;"></ellipse><text fill="#000000" font-family="sans-serif" font-size="14" lengthAdjust="spacing" textLength="84" x="665.697" y="213.12">调整房间价格</text></g><!--entity UC9--><g class="entity" data-entity="UC9" data-source-line="17" data-uid="ent0014" id="entity_UC9"><ellipse cx="210.447" cy="463.06" fill="#F1F1F1" rx="62.397" ry="16.52" style="stroke:#181818;stroke-width:0.5;"></ellipse><text fill="#000000" font-family="sans-serif" font-size="14" lengthAdjust="spacing" textLength="84" x="168.447" y="469.12">打印预定清单</text></g><!--entity UC10--><g class="entity" data-entity="UC10" data-source-line="18" data-uid="ent0015" id="entity_UC10"><ellipse cx="461.297" cy="224.06" fill="#F1F1F1" rx="62.397" ry="16.52" style="stroke:#181818;stroke-width:0.5;"></ellipse><text fill="#000000" font-family="sans-serif" font-size="14" lengthAdjust="spacing" textLength="84" x="419.297" y="230.12">验证入住时间</text></g><!--entity UC11--><g class="entity" data-entity="UC11" data-source-line="19" data-uid="ent0016" id="entity_UC11"><ellipse cx="461.297" cy="156.06" fill="#F1F1F1" rx="62.397" ry="16.52" style="stroke:#181818;stroke-width:0.5;"></ellipse><text fill="#000000" font-family="sans-serif" font-size="14" lengthAdjust="spacing" textLength="84" x="419.297" y="162.12">选择支付方式</text></g><!--entity Customer--><g class="entity" data-entity="Customer" data-source-line="4" data-uid="ent0002" id="entity_Customer"><ellipse cx="41" cy="296" fill="#F1F1F1" rx="8" ry="8" style="stroke:#181818;stroke-width:0.5;"></ellipse><path d="M41,304 L41,331 M28,312 L54,312 M41,331 L28,346 M41,331 L54,346" fill="none" style="stroke:#181818;stroke-width:0.5;"></path><text fill="#000000" font-family="sans-serif" font-size="14" lengthAdjust="spacing" textLength="28" x="27" y="363.5439">旅客</text></g><!--entity Admin--><g class="entity" data-entity="Admin" data-source-line="5" data-uid="ent0003" id="entity_Admin"><ellipse cx="461.3" cy="14" fill="#F1F1F1" rx="8" ry="8" style="stroke:#181818;stroke-width:0.5;"></ellipse><path d="M461.3,22 L461.3,49 M448.3,30 L474.3,30 M461.3,49 L448.3,64 M461.3,49 L474.3,64" fill="none" style="stroke:#181818;stroke-width:0.5;"></path><text fill="#000000" font-family="sans-serif" font-size="14" lengthAdjust="spacing" textLength="70" x="426.3" y="81.5439">系统管理员</text></g><!--entity Timer--><g class="entity" data-entity="Timer" data-source-line="6" data-uid="ent0004" id="entity_Timer"><ellipse cx="41" cy="432" fill="#F1F1F1" rx="8" ry="8" style="stroke:#181818;stroke-width:0.5;"></ellipse><path d="M41,440 L41,467 M28,448 L54,448 M41,467 L28,482 M41,467 L54,482" fill="none" style="stroke:#181818;stroke-width:0.5;"></path><text fill="#000000" font-family="sans-serif" font-size="14" lengthAdjust="spacing" textLength="70" x="6" y="499.5439">系统定时器</text></g><g class="entity" data-entity="GMN29" data-source-line="40" data-uid="ent0030" id="entity_GMN29"><path d="M405.3,547.3 L405.3,592.8088 L517.3,592.8088 L517.3,557.3 L507.3,547.3 L405.3,547.3" fill="#FEFFDD" style="stroke:#181818;stroke-width:0.5;"></path><path d="M507.3,547.3 L507.3,557.3 L517.3,557.3 L507.3,547.3" fill="#FEFFDD" style="stroke:#181818;stroke-width:1;"></path><text fill="#000000" font-family="sans-serif" font-size="13" lengthAdjust="spacing" textLength="91" x="411.3" y="567.1979">六小时内可取消</text><text fill="#000000" font-family="sans-serif" font-size="13" lengthAdjust="spacing" textLength="91" x="411.3" y="584.9523">并退还全部定金</text></g><g class="entity" data-entity="GMN32" data-source-line="45" data-uid="ent0033" id="entity_GMN32"><path d="M638.7,545.43 L638.7,608.6932 L776.7,608.6932 L776.7,555.43 L766.7,545.43 L638.7,545.43" fill="#FEFFDD" style="stroke:#181818;stroke-width:0.5;"></path><path d="M766.7,545.43 L766.7,555.43 L776.7,555.43 L766.7,545.43" fill="#FEFFDD" style="stroke:#181818;stroke-width:1;"></path><text fill="#000000" font-family="sans-serif" font-size="13" lengthAdjust="spacing" textLength="91" x="644.7" y="565.3279">周一至周五半价</text><text fill="#000000" font-family="sans-serif" font-size="13" lengthAdjust="spacing" textLength="52" x="644.7" y="583.0823">周末全价</text><text fill="#000000" font-family="sans-serif" font-size="13" lengthAdjust="spacing" textLength="117" x="644.7" y="600.8367">按季节调整基础价格</text></g><g class="entity" data-entity="GMN35" data-source-line="51" data-uid="ent0036" id="entity_GMN35"><path d="M638.7,643.43 L638.7,706.6932 L776.7,706.6932 L776.7,653.43 L766.7,643.43 L638.7,643.43" fill="#FEFFDD" style="stroke:#181818;stroke-width:0.5;"></path><path d="M766.7,643.43 L766.7,653.43 L776.7,653.43 L766.7,643.43" fill="#FEFFDD" style="stroke:#181818;stroke-width:1;"></path><text fill="#000000" font-family="sans-serif" font-size="13" lengthAdjust="spacing" textLength="104" x="644.7" y="663.3279">记录：姓名、地址</text><text fill="#000000" font-family="sans-serif" font-size="13" lengthAdjust="spacing" textLength="104" x="644.7" y="681.0823">联系电话、证件号</text><text fill="#000000" font-family="sans-serif" font-size="13" lengthAdjust="spacing" textLength="117" x="644.7" y="698.8367">房间类型、预定天数</text></g><g class="entity" data-entity="GMN38" data-source-line="57" data-uid="ent0039" id="entity_GMN38"><path d="M154.45,57.18 L154.45,84.9344 L266.45,84.9344 L266.45,67.18 L256.45,57.18 L154.45,57.18" fill="#FEFFDD" style="stroke:#181818;stroke-width:0.5;"></path><path d="M256.45,57.18 L256.45,67.18 L266.45,67.18 L256.45,57.18" fill="#FEFFDD" style="stroke:#181818;stroke-width:1;"></path><text fill="#000000" font-family="sans-serif" font-size="13" lengthAdjust="spacing" textLength="91" x="160.45" y="77.0779">每周一自动执行</text></g><!--link Customer to UC1--><g class="link" data-entity-1="Customer" data-entity-2="UC1" data-source-line="22" data-uid="lnk17" id="link_Customer_UC1"><path d="M55.42,327.06 C79.48,327.06 124.87,327.06 161.68,327.06" fill="none" id="Customer-to-UC1" style="stroke:#181818;stroke-width:1;"></path><polygon fill="#181818" points="167.68,327.06,158.68,323.06,162.68,327.06,158.68,331.06,167.68,327.06" style="stroke:#181818;stroke-width:1;"></polygon></g><!--link Customer to UC2--><g class="link" data-entity-1="Customer" data-entity-2="UC2" data-source-line="23" data-uid="lnk18" id="link_Customer_UC2"><path d="M55.29,333.69 C69.8,340.83 93.8,352.33 115,361.06 C135.47,369.49 153.1995,375.9589 171.5895,382.3189" fill="none" id="Customer-to-UC2" style="stroke:#181818;stroke-width:1;"></path><polygon fill="#181818" points="177.26,384.28,170.0617,377.5581,172.5346,382.6458,167.4469,385.1187,177.26,384.28" style="stroke:#181818;stroke-width:1;"></polygon></g><!--link Customer to UC3--><g class="link" data-entity-1="Customer" data-entity-2="UC3" data-source-line="24" data-uid="lnk19" id="link_Customer_UC3"><path d="M55.29,320.42 C69.8,313.29 93.8,301.79 115,293.06 C132.4,285.89 146.2701,280.7113 163.0401,274.8113" fill="none" id="Customer-to-UC3" style="stroke:#181818;stroke-width:1;"></path><polygon fill="#181818" points="168.7,272.82,158.8826,272.0336,163.9834,274.4794,161.5376,279.5802,168.7,272.82" style="stroke:#181818;stroke-width:1;"></polygon></g><!--link UC1 to UC4--><g class="link" data-entity-1="UC1" data-entity-2="UC4" data-source-line="26" data-uid="lnk20" id="link_UC1_UC4"><path d="M240.99,338.92 C254.03,344.75 269.24,352.39 281.91,361.06 C296.96,371.36 295.94,380.25 311.91,389.06 C340.71,404.94 370.3727,413.4224 399.4627,419.1424" fill="none" id="UC1-to-UC4" style="stroke:#181818;stroke-width:1;stroke-dasharray:7,7;"></path><polygon fill="#181818" points="405.35,420.3,397.2908,414.6387,400.4439,419.3353,395.7474,422.4884,405.35,420.3" style="stroke:#181818;stroke-width:1;"></polygon><text fill="#000000" font-family="sans-serif" font-size="13" lengthAdjust="spacing" textLength="55.6563" x="312.91" y="385.9579">«include»</text></g><!--link UC1 to UC5--><g class="link" data-entity-1="UC1" data-entity-2="UC5" data-source-line="27" data-uid="lnk21" id="link_UC1_UC5"><path d="M241.73,338.44 C261.42,345.25 287.81,353.29 311.91,357.06 C343.86,362.06 374.1508,362.9783 402.8408,362.5083" fill="none" id="UC1-to-UC5" style="stroke:#181818;stroke-width:1;stroke-dasharray:7,7;"></path><polygon fill="#181818" points="408.84,362.41,399.7757,358.558,403.8407,362.4919,399.9067,366.5569,408.84,362.41" style="stroke:#181818;stroke-width:1;"></polygon><text fill="#000000" font-family="sans-serif" font-size="13" lengthAdjust="spacing" textLength="55.6563" x="312.91" y="353.9579">«include»</text></g><!--link UC1 to UC6--><g class="link" data-entity-1="UC1" data-entity-2="UC6" data-source-line="28" data-uid="lnk22" id="link_UC1_UC6"><path d="M251.16,321.47 C297.68,314.93 368.3386,304.9964 414.7986,298.4564" fill="none" id="UC1-to-UC6" style="stroke:#181818;stroke-width:1;stroke-dasharray:7,7;"></path><polygon fill="#181818" points="420.74,297.62,411.2703,294.9136,415.7888,298.317,412.3854,302.8355,420.74,297.62" style="stroke:#181818;stroke-width:1;"></polygon><text fill="#000000" font-family="sans-serif" font-size="13" lengthAdjust="spacing" textLength="55.6563" x="312.91" y="302.2879">«include»</text></g><!--link UC1 to UC10--><g class="link" data-entity-1="UC1" data-entity-2="UC10" data-source-line="29" data-uid="lnk23" id="link_UC1_UC10"><path d="M238.26,314.23 C251.43,307.9 267.52,300.12 281.91,293.06 C295.29,286.49 298.21,283.95 311.91,278.06 C348.17,262.45 384.9093,249.2512 415.0893,238.9912" fill="none" id="UC1-to-UC10" style="stroke:#181818;stroke-width:1;stroke-dasharray:7,7;"></path><polygon fill="#181818" points="420.77,237.06,410.9615,236.1697,416.0361,238.6693,413.5364,243.744,420.77,237.06" style="stroke:#181818;stroke-width:1;"></polygon><text fill="#000000" font-family="sans-serif" font-size="13" lengthAdjust="spacing" textLength="55.6563" x="312.91" y="252.5479">«include»</text></g><!--link UC1 to UC11--><g class="link" data-entity-1="UC1" data-entity-2="UC11" data-source-line="30" data-uid="lnk24" id="link_UC1_UC11"><path d="M244.17,316.71 C257.18,311.31 271.5,303.59 281.91,293.06 C303.99,270.72 289.9,251.48 311.91,229.06 C341.27,199.14 379.7404,181.5637 412.2504,170.3037" fill="none" id="UC1-to-UC11" style="stroke:#181818;stroke-width:1;stroke-dasharray:7,7;"></path><polygon fill="#181818" points="417.92,168.34,408.1065,167.5058,413.1954,169.9764,410.7248,175.0652,417.92,168.34" style="stroke:#181818;stroke-width:1;"></polygon><text fill="#000000" font-family="sans-serif" font-size="13" lengthAdjust="spacing" textLength="55.6563" x="312.91" y="187.0579">«include»</text></g><!--link UC2 to UC7--><g class="link" data-entity-1="UC2" data-entity-2="UC7" data-source-line="32" data-uid="lnk25" id="link_UC2_UC7"><path d="M239.5,407.35 C259.59,416.08 287.33,428 311.91,438.06 C352.48,454.67 394.0962,470.7957 424.1762,482.3057" fill="none" id="UC2-to-UC7" style="stroke:#181818;stroke-width:1;stroke-dasharray:7,7;"></path><polygon fill="#181818" points="429.78,484.45,422.8039,477.4978,425.1102,482.6631,419.9449,484.9695,429.78,484.45" style="stroke:#181818;stroke-width:1;"></polygon><text fill="#000000" font-family="sans-serif" font-size="13" lengthAdjust="spacing" textLength="55.6563" x="312.91" y="434.9579">«include»</text></g><!--link UC5 to UC8--><g class="link" data-entity-1="UC5" data-entity-2="UC8" data-source-line="34" data-uid="lnk26" id="link_UC5_UC8"><path d="M489.13,345.74 C499.97,339.82 512.53,332.77 523.7,326.06 C582.49,290.72 644.6639,249.2372 678.9539,225.9872" fill="none" id="UC5-to-UC8" style="stroke:#181818;stroke-width:1;stroke-dasharray:7,7;"></path><polygon fill="#181818" points="683.92,222.62,674.2261,224.3601,679.7816,225.426,678.7157,230.9815,683.92,222.62" style="stroke:#181818;stroke-width:1;"></polygon><text fill="#000000" font-family="sans-serif" font-size="13" lengthAdjust="spacing" textLength="53.4917" x="554.7" y="254.0179">«extend»</text><text fill="#000000" font-family="sans-serif" font-size="13" lengthAdjust="spacing" textLength="52" x="555.4458" y="271.7723">季节调整</text></g><!--link Admin to UC8--><g class="link" data-entity-1="Admin" data-entity-2="UC8" data-source-line="36" data-uid="lnk27" id="link_Admin_UC8"><path d="M496.8,67.93 C547.33,101.42 635.129,159.6149 678.379,188.2849" fill="none" id="Admin-to-UC8" style="stroke:#181818;stroke-width:1;"></path><polygon fill="#181818" points="683.38,191.6,678.0886,183.2933,679.2125,188.8374,673.6684,189.9613,683.38,191.6" style="stroke:#181818;stroke-width:1;"></polygon></g><!--link Timer to UC9--><g class="link" data-entity-1="Timer" data-entity-2="UC9" data-source-line="37" data-uid="lnk28" id="link_Timer_UC9"><path d="M76.29,463.06 C96.86,463.06 117.64,463.06 141.78,463.06" fill="none" id="Timer-to-UC9" style="stroke:#181818;stroke-width:1;"></path><polygon fill="#181818" points="147.78,463.06,138.78,459.06,142.78,463.06,138.78,467.06,147.78,463.06" style="stroke:#181818;stroke-width:1;"></polygon></g><!--link UC2 to GMN29--><g class="link" data-entity-1="UC2" data-entity-2="GMN29" data-source-line="40" data-uid="lnk31" id="link_UC2_GMN29"><path d="M242.45,406.21 C255.47,411.82 270.27,419.48 281.91,429.06 C299.07,443.18 295.88,453.66 311.91,469.06 C345.77,501.6 360.04,502.68 398.91,529.06 C407.5,534.89 416.8,541.13 425.5,546.95" fill="none" id="UC2-GMN29" style="stroke:#181818;stroke-width:1;stroke-dasharray:7,7;"></path></g><!--link UC5 to GMN32--><g class="link" data-entity-1="UC5" data-entity-2="GMN32" data-source-line="45" data-uid="lnk34" id="link_UC5_GMN32"><path d="M492.09,373.79 C502.61,379.33 514.17,386.27 523.7,394.06 C584.72,443.95 580.49,475.92 638.7,529.06 C644.68,534.51 651.29,539.88 657.98,544.93" fill="none" id="UC5-GMN32" style="stroke:#181818;stroke-width:1;stroke-dasharray:7,7;"></path></g><!--link UC4 to GMN35--><g class="link" data-entity-1="UC4" data-entity-2="GMN35" data-source-line="51" data-uid="lnk37" id="link_UC4_GMN35"><path d="M494.73,442.46 C504.66,447.77 515.19,454.39 523.7,462.06 C541.01,477.66 540.34,485.97 553.7,505.06 C591.39,558.9 592.51,579.31 638.7,626.06 C644.53,631.96 651.14,637.66 657.88,642.96" fill="none" id="UC4-GMN35" style="stroke:#181818;stroke-width:1;stroke-dasharray:7,7;"></path></g><!--link UC9 to GMN38--><g class="link" data-entity-1="UC9" data-entity-2="GMN38" data-source-line="57" data-uid="lnk40" id="link_UC9_GMN38"><path d="M155.42,454.84 C131.26,447.91 106.02,435.12 95.5,411.56 C70.96,356.56 70.96,195.55 95.5,140.56 C107.66,113.3 136.4,95.92 162.1,85.36" fill="none" id="UC9-GMN38" style="stroke:#181818;stroke-width:1;stroke-dasharray:7,7;"></path></g><!--SRC=[VPFVJXf15CRlvoactci4nJ-D8MbyXBPtlTd2IZV2he4bQTCqMMfHKSbg1B56Iw4Qq4QMHak5rVWmtJExNFKLEhCpj2o6tksStpVdcvdpRL9UqR6kuRIIUAtZk9AMOxgYgIYpggXhKbfAuJKfjYebv6VwswIC6PRKH596I8hfMXfFa4eUMlK9B6NmSZQZQoavFK3kjUtQLRTLS_SsOF_8rpoDfnGrA83MCQbqu5FJ5pnNM0VqruWxz2gy3TynWTyXZBCPEIPbgA1V_yXwR3tqApT-ZnVBeM4EvY7fR76LuE5XJghddbNd-y6qt5AJ60qXd1aMUgqst9VvZPs76ibPGZKRLDNSLeKOjdVJfRs4919mDFUStXazJdzpN_2vm8qCmtiu2l3vW4LxdPHl-8aT-oVvSYTK2m6NmW4Ks-9rRlDGB0lLOi3hSjUpSf0_T-vDEeUXDvmE7gb0TYv8oNBi8tBOXJjp80kXzmWDPeyd9wF- -uyKmgE56OIe34zDiSKiVeANbXGrbip6vMXqY4J6ahcn93Gz7eL646LXmUOVeuX02pwIt-Yo6ez6NwfmzTNR_i2dW92VQN6j1UG7MAmM4L8rNHP_bxOYaWVvAsYpnuQDF0qSpoUhTpjYylbcVxt9vu-e9sPT7lTYcOBzfdDhU9lNxADNWk8s3GIlavDlj15Vajt2yA6XsdDh1e_EVmnOhddeVzyTG-C0zeg_Z1oSjE7KO2XNOZzawOTddT8wZP5ZTy3q_Vnikjzj-Bn34GyXd5sGSdlKxvMcqs1mGvPCOfc3Irt2TfCK6bvjzz-cFm00]--></g></svg>