<svg xmlns="http://www.w3.org/2000/svg" xmlns:xlink="http://www.w3.org/1999/xlink" contentstyletype="text/css" data-diagram-type="CLASS" height="227px" preserveAspectRatio="none" style="width:251px;height:227px;background:#FFFFFF;" version="1.1" viewBox="0 0 251 227" width="251px" zoomAndPan="magnify"><defs></defs><g><!--class ReportGenerator--><g class="entity" data-entity="ReportGenerator" data-source-line="1" data-uid="ent0002" id="entity_ReportGenerator"><rect fill="#F1F1F1" height="67.1201" rx="2.5" ry="2.5" style="stroke:#181818;stroke-width:0.5;" width="237.6748" x="7" y="7"></rect><ellipse cx="69.0601" cy="23" fill="#ADD1B2" rx="11" ry="11" style="stroke:#181818;stroke-width:1;"></ellipse><path d="M68.4038,28.8594 Q66.4194,28.8594 65.2476,27.3906 Q64.0913,25.9063 64.0913,22.8281 Q64.0913,20.2188 65.3101,18.4688 Q66.5444,16.7188 68.6694,16.7188 Q69.1694,16.7188 69.7007,16.8594 Q70.1382,17.0469 70.4038,17.0469 Q70.6226,17.0469 70.7163,17 Q70.8257,16.9531 71.2788,16.3594 L72.0444,20.0938 L71.1538,20.3594 Q70.7007,18.9063 70.0913,18.3125 Q69.4976,17.7031 68.5444,17.7031 Q67.3257,17.7031 66.6069,19.1406 Q65.8882,20.5625 65.8882,22.75 Q65.8882,25.1563 66.4976,26.4531 Q67.1226,27.7344 68.4819,27.7344 Q69.4351,27.7344 70.1226,27.0469 Q70.8101,26.3438 71.1382,24.8438 L72.0444,25.25 Q71.6382,26.9531 70.6694,27.9063 Q69.7163,28.8594 68.4038,28.8594 Z " fill="#000000"></path><text fill="#000000" font-family="sans-serif" font-size="14" lengthAdjust="spacing" textLength="105.0547" x="89.5601" y="29.4839">ReportGenerator</text><line style="stroke:#181818;stroke-width:0.5;" x1="8" x2="243.6748" y1="39" y2="39"></line><line style="stroke:#181818;stroke-width:0.5;" x1="8" x2="243.6748" y1="47" y2="47"></line><ellipse cx="18" cy="62.0601" fill="#84BE84" rx="3" ry="3" style="stroke:#038048;stroke-width:1;"></ellipse><text fill="#000000" font-family="sans-serif" font-size="14" lengthAdjust="spacing" textLength="211.6748" x="27" y="67.0439">generateReport(data: String): void</text></g><!--class Printer--><g class="entity" data-entity="Printer" data-source-line="5" data-uid="ent0003" id="entity_Printer"><rect fill="#F1F1F1" height="67.1201" rx="2.5" ry="2.5" style="stroke:#181818;stroke-width:0.5;" width="197.1787" x="27.25" y="153.12"></rect><ellipse cx="100.9722" cy="169.12" fill="#ADD1B2" rx="11" ry="11" style="stroke:#181818;stroke-width:1;"></ellipse><path d="M100.3159,174.9794 Q98.3315,174.9794 97.1597,173.5106 Q96.0034,172.0263 96.0034,168.9481 Q96.0034,166.3388 97.2222,164.5888 Q98.4565,162.8388 100.5815,162.8388 Q101.0815,162.8388 101.6128,162.9794 Q102.0503,163.1669 102.3159,163.1669 Q102.5347,163.1669 102.6284,163.12 Q102.7378,163.0731 103.1909,162.4794 L103.9565,166.2138 L103.0659,166.4794 Q102.6128,165.0263 102.0034,164.4325 Q101.4097,163.8231 100.4565,163.8231 Q99.2378,163.8231 98.519,165.2606 Q97.8003,166.6825 97.8003,168.87 Q97.8003,171.2763 98.4097,172.5731 Q99.0347,173.8544 100.394,173.8544 Q101.3472,173.8544 102.0347,173.1669 Q102.7222,172.4638 103.0503,170.9638 L103.9565,171.37 Q103.5503,173.0731 102.5815,174.0263 Q101.6284,174.9794 100.3159,174.9794 Z " fill="#000000"></path><text fill="#000000" font-family="sans-serif" font-size="14" lengthAdjust="spacing" textLength="41.2344" x="121.4722" y="175.6039">Printer</text><line style="stroke:#181818;stroke-width:0.5;" x1="28.25" x2="223.4287" y1="185.12" y2="185.12"></line><line style="stroke:#181818;stroke-width:0.5;" x1="28.25" x2="223.4287" y1="193.12" y2="193.12"></line><ellipse cx="38.25" cy="208.1801" fill="#84BE84" rx="3" ry="3" style="stroke:#038048;stroke-width:1;"></ellipse><text fill="#000000" font-family="sans-serif" font-size="14" lengthAdjust="spacing" textLength="171.1787" x="47.25" y="213.1639">print(message: String): void</text></g><!--link ReportGenerator to Printer--><g class="link" data-entity-1="ReportGenerator" data-entity-2="Printer" data-source-line="9" data-uid="lnk4" id="link_ReportGenerator_Printer"><path codeline="9" d="M125.84,74.26 C125.84,97.85 125.84,123.55 125.84,147.11" fill="none" id="ReportGenerator-to-Printer" style="stroke:#181818;stroke-width:1;stroke-dasharray:7,7;"></path><polygon fill="#181818" points="125.84,153.11,129.84,144.11,125.84,148.11,121.84,144.11,125.84,153.11" style="stroke:#181818;stroke-width:1;"></polygon><text fill="#000000" font-family="sans-serif" font-size="13" lengthAdjust="spacing" textLength="67.9517" x="126.84" y="120.0179">depends on</text></g><!--SRC=[Iyv9B2vM24ejo2ygSK_DIorABCalKgZcKb3GJeTmKo6I6Yc99ObM2i4bHPbvwPfM2cNvcIbSjLnSoM030e2Y9QbGZGKWZaPkQd5nOdeg5YtejkdfsS4Di598IIr8pKifLiZF0m00]--></g></svg>