<svg xmlns="http://www.w3.org/2000/svg" xmlns:xlink="http://www.w3.org/1999/xlink" contentstyletype="text/css" data-diagram-type="CLASS" height="246px" preserveAspectRatio="none" style="width:133px;height:246px;background:#FFFFFF;" version="1.1" viewBox="0 0 133 246" width="133px" zoomAndPan="magnify"><defs></defs><g><!--class Car--><g class="entity" data-entity="Car" data-source-line="1" data-uid="ent0002" id="entity_Car"><rect fill="#F1F1F1" height="86.2402" rx="2.5" ry="2.5" style="stroke:#181818;stroke-width:0.5;" width="119.4131" x="7" y="7"></rect><ellipse cx="51.1845" cy="23" fill="#ADD1B2" rx="11" ry="11" style="stroke:#181818;stroke-width:1;"></ellipse><path d="M50.5283,28.8594 Q48.5439,28.8594 47.372,27.3906 Q46.2158,25.9063 46.2158,22.8281 Q46.2158,20.2188 47.4345,18.4688 Q48.6689,16.7188 50.7939,16.7188 Q51.2939,16.7188 51.8251,16.8594 Q52.2626,17.0469 52.5283,17.0469 Q52.747,17.0469 52.8408,17 Q52.9501,16.9531 53.4033,16.3594 L54.1689,20.0938 L53.2783,20.3594 Q52.8251,18.9063 52.2158,18.3125 Q51.622,17.7031 50.6689,17.7031 Q49.4501,17.7031 48.7314,19.1406 Q48.0126,20.5625 48.0126,22.75 Q48.0126,25.1563 48.622,26.4531 Q49.247,27.7344 50.6064,27.7344 Q51.5595,27.7344 52.247,27.0469 Q52.9345,26.3438 53.2626,24.8438 L54.1689,25.25 Q53.7626,26.9531 52.7939,27.9063 Q51.8408,28.8594 50.5283,28.8594 Z " fill="#000000"></path><text fill="#000000" font-family="sans-serif" font-size="14" lengthAdjust="spacing" textLength="22.5586" x="71.67" y="29.4839">Car</text><line style="stroke:#181818;stroke-width:0.5;" x1="8" x2="125.4131" y1="39" y2="39"></line><rect fill="none" height="6" style="stroke:#C82930;stroke-width:1;" width="6" x="15" y="51.0601"></rect><text fill="#000000" font-family="sans-serif" font-size="14" lengthAdjust="spacing" textLength="93.4131" x="27" y="59.0439">engine: Engine</text><line style="stroke:#181818;stroke-width:0.5;" x1="8" x2="125.4131" y1="66.1201" y2="66.1201"></line><ellipse cx="18" cy="81.1802" fill="#84BE84" rx="3" ry="3" style="stroke:#038048;stroke-width:1;"></ellipse><text fill="#000000" font-family="sans-serif" font-size="14" lengthAdjust="spacing" textLength="73.1309" x="27" y="86.1641">drive(): void</text></g><!--class Engine--><g class="entity" data-entity="Engine" data-source-line="6" data-uid="ent0003" id="entity_Engine"><rect fill="#F1F1F1" height="67.1201" rx="2.5" ry="2.5" style="stroke:#181818;stroke-width:0.5;" width="96.0137" x="18.7" y="172.24"></rect><ellipse cx="42.8894" cy="188.24" fill="#ADD1B2" rx="11" ry="11" style="stroke:#181818;stroke-width:1;"></ellipse><path d="M42.2332,194.0994 Q40.2488,194.0994 39.0769,192.6306 Q37.9207,191.1463 37.9207,188.0681 Q37.9207,185.4588 39.1394,183.7088 Q40.3738,181.9588 42.4988,181.9588 Q42.9988,181.9588 43.53,182.0994 Q43.9675,182.2869 44.2332,182.2869 Q44.4519,182.2869 44.5457,182.24 Q44.655,182.1931 45.1082,181.5994 L45.8738,185.3338 L44.9832,185.5994 Q44.53,184.1463 43.9207,183.5525 Q43.3269,182.9431 42.3738,182.9431 Q41.155,182.9431 40.4363,184.3806 Q39.7175,185.8025 39.7175,187.99 Q39.7175,190.3963 40.3269,191.6931 Q40.9519,192.9744 42.3113,192.9744 Q43.2644,192.9744 43.9519,192.2869 Q44.6394,191.5838 44.9675,190.0838 L45.8738,190.49 Q45.4675,192.1931 44.4988,193.1463 Q43.5457,194.0994 42.2332,194.0994 Z " fill="#000000"></path><text fill="#000000" font-family="sans-serif" font-size="14" lengthAdjust="spacing" textLength="43.5928" x="58.9315" y="194.7239">Engine</text><line style="stroke:#181818;stroke-width:0.5;" x1="19.7" x2="113.7137" y1="204.24" y2="204.24"></line><line style="stroke:#181818;stroke-width:0.5;" x1="19.7" x2="113.7137" y1="212.24" y2="212.24"></line><ellipse cx="29.7" cy="227.3001" fill="#84BE84" rx="3" ry="3" style="stroke:#038048;stroke-width:1;"></ellipse><text fill="#000000" font-family="sans-serif" font-size="14" lengthAdjust="spacing" textLength="70.0137" x="38.7" y="232.2839">start(): void</text></g><!--link Car to Engine--><g class="link" data-entity-1="Car" data-entity-2="Engine" data-source-line="10" data-uid="lnk4" id="link_Car_Engine"><path codeline="10" d="M66.71,93.52 C66.71,118.22 66.71,142.9 66.71,165.79" fill="none" id="Car-to-Engine" style="stroke:#181818;stroke-width:1;"></path><polygon fill="#181818" points="66.71,171.79,70.71,162.79,66.71,166.79,62.71,162.79,66.71,171.79" style="stroke:#181818;stroke-width:1;"></polygon><text fill="#000000" font-family="sans-serif" font-size="13" lengthAdjust="spacing" textLength="20.96" x="67.71" y="139.1379">has</text></g><!--SRC=[Iyv9B2vMS4uiKgZcKb3GJSrBpynBjL9m1TD04UsKeiooL0rDAuMo_CmKhbekhcIm3eW2i2RjufB4eX9a9I3ZT7NjO8gi538IYm40]--></g></svg>