<svg xmlns="http://www.w3.org/2000/svg" xmlns:xlink="http://www.w3.org/1999/xlink" contentstyletype="text/css" data-diagram-type="CLASS" height="373px" preserveAspectRatio="none" style="width:649px;height:373px;background:#FFFFFF;" version="1.1" viewBox="0 0 649 373" width="649px" zoomAndPan="magnify"><defs></defs><g><!--class Command--><g class="entity" data-entity="Command" data-source-line="1" data-uid="ent0002" id="entity_Command"><rect fill="#F1F1F1" height="67.1201" rx="2.5" ry="2.5" style="stroke:#181818;stroke-width:0.5;" width="96.5791" x="210.06" y="299.24"></rect><ellipse cx="225.06" cy="315.24" fill="#B4A7E5" rx="11" ry="11" style="stroke:#181818;stroke-width:1;"></ellipse><path d="M221.6538,310.0213 L221.6538,309.0838 L227.4975,309.0838 L227.4975,310.0213 L225.7006,310.0213 Q225.5288,310.0213 225.4506,310.0838 Q225.3725,310.1463 225.3725,310.2869 L225.3725,319.7713 Q225.3725,319.9119 225.4506,319.9744 Q225.5288,320.0369 225.7006,320.0369 L227.4975,320.0369 L227.4975,320.9744 L221.6538,320.9744 L221.6538,320.0369 L223.4506,320.0369 Q223.6694,320.0369 223.7163,319.99 Q223.7788,319.9275 223.7788,319.7713 L223.7788,310.2869 Q223.7788,310.1306 223.7163,310.0838 Q223.6694,310.0213 223.4506,310.0213 L221.6538,310.0213 Z " fill="#000000"></path><text fill="#000000" font-family="sans-serif" font-size="14" font-style="italic" lengthAdjust="spacing" textLength="64.5791" x="239.06" y="321.7239">Command</text><line style="stroke:#181818;stroke-width:0.5;" x1="211.06" x2="305.6391" y1="331.24" y2="331.24"></line><line style="stroke:#181818;stroke-width:0.5;" x1="211.06" x2="305.6391" y1="339.24" y2="339.24"></line><ellipse cx="221.06" cy="354.3001" fill="#84BE84" rx="3" ry="3" style="stroke:#038048;stroke-width:1;"></ellipse><text fill="#000000" font-family="sans-serif" font-size="14" lengthAdjust="spacing" textLength="58.3584" x="230.06" y="359.2839">execute()</text></g><!--class ConcreteCommandA--><g class="entity" data-entity="ConcreteCommandA" data-source-line="5" data-uid="ent0003" id="entity_ConcreteCommandA"><rect fill="#F1F1F1" height="86.2402" rx="2.5" ry="2.5" style="stroke:#181818;stroke-width:0.5;" width="162.7236" x="97.99" y="134"></rect><ellipse cx="112.99" cy="150" fill="#ADD1B2" rx="11" ry="11" style="stroke:#181818;stroke-width:1;"></ellipse><path d="M112.3338,155.8594 Q110.3494,155.8594 109.1775,154.3906 Q108.0213,152.9063 108.0213,149.8281 Q108.0213,147.2188 109.24,145.4688 Q110.4744,143.7188 112.5994,143.7188 Q113.0994,143.7188 113.6306,143.8594 Q114.0681,144.0469 114.3338,144.0469 Q114.5525,144.0469 114.6463,144 Q114.7556,143.9531 115.2088,143.3594 L115.9744,147.0938 L115.0838,147.3594 Q114.6306,145.9063 114.0213,145.3125 Q113.4275,144.7031 112.4744,144.7031 Q111.2556,144.7031 110.5369,146.1406 Q109.8181,147.5625 109.8181,149.75 Q109.8181,152.1563 110.4275,153.4531 Q111.0525,154.7344 112.4119,154.7344 Q113.365,154.7344 114.0525,154.0469 Q114.74,153.3438 115.0681,151.8438 L115.9744,152.25 Q115.5681,153.9531 114.5994,154.9063 Q113.6463,155.8594 112.3338,155.8594 Z " fill="#000000"></path><text fill="#000000" font-family="sans-serif" font-size="14" lengthAdjust="spacing" textLength="130.7236" x="126.99" y="156.4839">ConcreteCommandA</text><line style="stroke:#181818;stroke-width:0.5;" x1="98.99" x2="259.7136" y1="166" y2="166"></line><rect fill="none" height="6" style="stroke:#C82930;stroke-width:1;" width="6" x="105.99" y="178.0601"></rect><text fill="#000000" font-family="sans-serif" font-size="14" lengthAdjust="spacing" textLength="112.8135" x="117.99" y="186.0439">receiver: Receiver</text><line style="stroke:#181818;stroke-width:0.5;" x1="98.99" x2="259.7136" y1="193.1201" y2="193.1201"></line><ellipse cx="108.99" cy="208.1802" fill="#84BE84" rx="3" ry="3" style="stroke:#038048;stroke-width:1;"></ellipse><text fill="#000000" font-family="sans-serif" font-size="14" lengthAdjust="spacing" textLength="58.3584" x="117.99" y="213.1641">execute()</text></g><!--class Invoker--><g class="entity" data-entity="Invoker" data-source-line="10" data-uid="ent0004" id="entity_Invoker"><rect fill="#F1F1F1" height="86.2402" rx="2.5" ry="2.5" style="stroke:#181818;stroke-width:0.5;" width="159.8271" x="305.44" y="134"></rect><ellipse cx="358.1485" cy="150" fill="#ADD1B2" rx="11" ry="11" style="stroke:#181818;stroke-width:1;"></ellipse><path d="M357.4922,155.8594 Q355.5079,155.8594 354.336,154.3906 Q353.1797,152.9063 353.1797,149.8281 Q353.1797,147.2188 354.3985,145.4688 Q355.6329,143.7188 357.7579,143.7188 Q358.2579,143.7188 358.7891,143.8594 Q359.2266,144.0469 359.4922,144.0469 Q359.711,144.0469 359.8047,144 Q359.9141,143.9531 360.3672,143.3594 L361.1329,147.0938 L360.2422,147.3594 Q359.7891,145.9063 359.1797,145.3125 Q358.586,144.7031 357.6329,144.7031 Q356.4141,144.7031 355.6954,146.1406 Q354.9766,147.5625 354.9766,149.75 Q354.9766,152.1563 355.586,153.4531 Q356.211,154.7344 357.5704,154.7344 Q358.5235,154.7344 359.211,154.0469 Q359.8985,153.3438 360.2266,151.8438 L361.1329,152.25 Q360.7266,153.9531 359.7579,154.9063 Q358.8047,155.8594 357.4922,155.8594 Z " fill="#000000"></path><text fill="#000000" font-family="sans-serif" font-size="14" lengthAdjust="spacing" textLength="45.9102" x="378.6485" y="156.4839">Invoker</text><line style="stroke:#181818;stroke-width:0.5;" x1="306.44" x2="464.2671" y1="166" y2="166"></line><rect fill="none" height="6" style="stroke:#C82930;stroke-width:1;" width="6" x="313.44" y="178.0601"></rect><text fill="#000000" font-family="sans-serif" font-size="14" lengthAdjust="spacing" textLength="133.8271" x="325.44" y="186.0439">command: Command</text><line style="stroke:#181818;stroke-width:0.5;" x1="306.44" x2="464.2671" y1="193.1201" y2="193.1201"></line><ellipse cx="316.44" cy="208.1802" fill="#84BE84" rx="3" ry="3" style="stroke:#038048;stroke-width:1;"></ellipse><text fill="#000000" font-family="sans-serif" font-size="14" lengthAdjust="spacing" textLength="30.3311" x="325.44" y="213.1641">call()</text></g><!--class Receiver--><g class="entity" data-entity="Receiver" data-source-line="15" data-uid="ent0005" id="entity_Receiver"><rect fill="#F1F1F1" height="67.1201" rx="2.5" ry="2.5" style="stroke:#181818;stroke-width:0.5;" width="87.2412" x="555.73" y="299.24"></rect><ellipse cx="570.73" cy="315.24" fill="#ADD1B2" rx="11" ry="11" style="stroke:#181818;stroke-width:1;"></ellipse><path d="M570.0738,321.0994 Q568.0894,321.0994 566.9175,319.6306 Q565.7613,318.1463 565.7613,315.0681 Q565.7613,312.4588 566.98,310.7088 Q568.2144,308.9588 570.3394,308.9588 Q570.8394,308.9588 571.3706,309.0994 Q571.8081,309.2869 572.0738,309.2869 Q572.2925,309.2869 572.3863,309.24 Q572.4956,309.1931 572.9488,308.5994 L573.7144,312.3338 L572.8238,312.5994 Q572.3706,311.1463 571.7613,310.5525 Q571.1675,309.9431 570.2144,309.9431 Q568.9956,309.9431 568.2769,311.3806 Q567.5581,312.8025 567.5581,314.99 Q567.5581,317.3963 568.1675,318.6931 Q568.7925,319.9744 570.1519,319.9744 Q571.105,319.9744 571.7925,319.2869 Q572.48,318.5838 572.8081,317.0838 L573.7144,317.49 Q573.3081,319.1931 572.3394,320.1463 Q571.3863,321.0994 570.0738,321.0994 Z " fill="#000000"></path><text fill="#000000" font-family="sans-serif" font-size="14" lengthAdjust="spacing" textLength="55.2412" x="584.73" y="321.7239">Receiver</text><line style="stroke:#181818;stroke-width:0.5;" x1="556.73" x2="641.9712" y1="331.24" y2="331.24"></line><line style="stroke:#181818;stroke-width:0.5;" x1="556.73" x2="641.9712" y1="339.24" y2="339.24"></line><ellipse cx="566.73" cy="354.3001" fill="#84BE84" rx="3" ry="3" style="stroke:#038048;stroke-width:1;"></ellipse><text fill="#000000" font-family="sans-serif" font-size="14" lengthAdjust="spacing" textLength="46.6826" x="575.73" y="359.2839">action()</text></g><!--class Client--><g class="entity" data-entity="Client" data-source-line="19" data-uid="ent0006" id="entity_Client"><rect fill="#F1F1F1" height="48" rx="2.5" ry="2.5" style="stroke:#181818;stroke-width:0.5;" width="67.793" x="351.45" y="7"></rect><ellipse cx="366.45" cy="23" fill="#ADD1B2" rx="11" ry="11" style="stroke:#181818;stroke-width:1;"></ellipse><path d="M365.7938,28.8594 Q363.8094,28.8594 362.6375,27.3906 Q361.4813,25.9063 361.4813,22.8281 Q361.4813,20.2188 362.7,18.4688 Q363.9344,16.7188 366.0594,16.7188 Q366.5594,16.7188 367.0906,16.8594 Q367.5281,17.0469 367.7938,17.0469 Q368.0125,17.0469 368.1063,17 Q368.2156,16.9531 368.6688,16.3594 L369.4344,20.0938 L368.5438,20.3594 Q368.0906,18.9063 367.4813,18.3125 Q366.8875,17.7031 365.9344,17.7031 Q364.7156,17.7031 363.9969,19.1406 Q363.2781,20.5625 363.2781,22.75 Q363.2781,25.1563 363.8875,26.4531 Q364.5125,27.7344 365.8719,27.7344 Q366.825,27.7344 367.5125,27.0469 Q368.2,26.3438 368.5281,24.8438 L369.4344,25.25 Q369.0281,26.9531 368.0594,27.9063 Q367.1063,28.8594 365.7938,28.8594 Z " fill="#000000"></path><text fill="#000000" font-family="sans-serif" font-size="14" lengthAdjust="spacing" textLength="35.793" x="380.45" y="29.4839">Client</text><line style="stroke:#181818;stroke-width:0.5;" x1="352.45" x2="418.243" y1="39" y2="39"></line><line style="stroke:#181818;stroke-width:0.5;" x1="352.45" x2="418.243" y1="47" y2="47"></line></g><g class="entity" data-entity="GMN13" data-source-line="30" data-uid="ent0014" id="entity_GMN13"><path d="M6,310.05 L6,355.5588 L152.7026,355.5588 L152.7026,320.05 L142.7026,310.05 L6,310.05" fill="#FEFFDD" style="stroke:#181818;stroke-width:0.5;"></path><path d="M142.7026,310.05 L142.7026,320.05 L152.7026,320.05 L142.7026,310.05" fill="#FEFFDD" style="stroke:#181818;stroke-width:1;"></path><text fill="#000000" font-family="sans-serif" font-size="13" lengthAdjust="spacing" textLength="71.5317" x="12" y="329.9479">in execute():</text><text fill="#000000" font-family="sans-serif" font-size="13" lengthAdjust="spacing" textLength="96.8081" x="40.8945" y="347.7023">receiver.action();</text></g><g class="entity" data-entity="GMN16" data-source-line="35" data-uid="ent0017" id="entity_GMN16"><path d="M352.16,310.05 L352.16,355.5588 L520.5462,355.5588 L520.5462,320.05 L510.5462,310.05 L352.16,310.05" fill="#FEFFDD" style="stroke:#181818;stroke-width:0.5;"></path><path d="M510.5462,310.05 L510.5462,320.05 L520.5462,320.05 L510.5462,310.05" fill="#FEFFDD" style="stroke:#181818;stroke-width:1;"></path><text fill="#000000" font-family="sans-serif" font-size="13" lengthAdjust="spacing" textLength="45.5063" x="358.16" y="329.9479">in call():</text><text fill="#000000" font-family="sans-serif" font-size="13" lengthAdjust="spacing" textLength="118.4917" x="387.0545" y="347.7023">command.execute();</text></g><!--link ConcreteCommandA to Command--><g class="link" data-entity-1="ConcreteCommandA" data-entity-2="Command" data-source-line="22" data-uid="lnk7" id="link_ConcreteCommandA_Command"><path codeline="22" d="M139.85,220.73 C130.15,236.34 124.92,253.91 134.35,269.24 C143.14,283.51 162.3016,293.8624 193.1916,306.6124" fill="none" id="ConcreteCommandA-to-Command" style="stroke:#181818;stroke-width:1;stroke-dasharray:7,7;"></path><polygon fill="none" points="209.83,313.48,195.4808,301.0663,190.9024,312.1586,209.83,313.48" style="stroke:#181818;stroke-width:1;"></polygon><text fill="#000000" font-family="sans-serif" font-size="13" lengthAdjust="spacing" textLength="66.4663" x="135.35" y="266.1379">implements</text></g><!--link ConcreteCommandA to Receiver--><g class="link" data-entity-1="ConcreteCommandA" data-entity-2="Receiver" data-source-line="23" data-uid="lnk8" id="link_ConcreteCommandA_Receiver"><path codeline="23" d="M196.49,220.32 C206.07,238.42 219.85,257.95 238.35,269.24 C295.54,304.14 474.25,279.76 538.35,299.24 C543.98,300.95 544.2268,300.7194 549.7768,303.2394" fill="none" id="ConcreteCommandA-to-Receiver" style="stroke:#181818;stroke-width:1;"></path><polygon fill="#181818" points="555.24,305.72,548.6989,298.357,550.6873,303.6528,545.3915,305.6413,555.24,305.72" style="stroke:#181818;stroke-width:1;"></polygon><text fill="#000000" font-family="sans-serif" font-size="13" lengthAdjust="spacing" textLength="66.479" x="239.35" y="266.1379">Association</text></g><!--link Invoker to Command--><g class="link" data-entity-1="Invoker" data-entity-2="Command" data-source-line="24" data-uid="lnk9" id="link_Invoker_Command"><path codeline="24" d="M346.084,229.8265 C334.064,245.3865 327.47,253.54 314.35,269.24 C306.13,279.08 300.946,285.0832 292.426,294.5832" fill="none" id="Invoker-Command" style="stroke:#181818;stroke-width:1;"></path><polygon fill="none" points="353.42,220.33,346.5865,222.6329,346.084,229.8265,352.9175,227.5236,353.42,220.33" style="stroke:#181818;stroke-width:1;"></polygon><polygon fill="#181818" points="288.42,299.05,297.4068,295.0205,291.7583,295.3277,291.4511,289.6792,288.42,299.05" style="stroke:#181818;stroke-width:1;"></polygon><text fill="#000000" font-family="sans-serif" font-size="13" lengthAdjust="spacing" textLength="70.1099" x="329.36" y="266.1379">Aggregation</text></g><!--link Client to Receiver--><g class="link" data-entity-1="Client" data-entity-2="Receiver" data-source-line="25" data-uid="lnk10" id="link_Client_Receiver"><path codeline="25" d="M408.56,55.32 C417.61,64.5 428.03,75.18 437.35,85 C457.71,106.44 464.73,110.26 482.35,134 C523.01,188.78 558.7786,253.3136 579.8886,293.6636" fill="none" id="Client-to-Receiver" style="stroke:#181818;stroke-width:1;stroke-dasharray:7,7;"></path><polygon fill="#181818" points="582.67,298.98,582.0422,289.1512,580.3522,294.5497,574.9537,292.8597,582.67,298.98" style="stroke:#181818;stroke-width:1;"></polygon><text fill="#000000" font-family="sans-serif" font-size="13" lengthAdjust="spacing" textLength="42.6309" x="539" y="183.5179">creates</text></g><!--link Client to ConcreteCommandA--><g class="link" data-entity-1="Client" data-entity-2="ConcreteCommandA" data-source-line="26" data-uid="lnk11" id="link_Client_ConcreteCommandA"><path codeline="26" d="M351.8,55.48 C321.58,76.61 281.3663,104.7505 244.8463,130.3005" fill="none" id="Client-to-ConcreteCommandA" style="stroke:#181818;stroke-width:1;stroke-dasharray:7,7;"></path><polygon fill="#181818" points="239.93,133.74,249.5974,131.8583,244.0269,130.8737,245.0114,125.3032,239.93,133.74" style="stroke:#181818;stroke-width:1;"></polygon><text fill="#000000" font-family="sans-serif" font-size="13" lengthAdjust="spacing" textLength="42.6309" x="307.86" y="100.8979">creates</text></g><!--link Client to Invoker--><g class="link" data-entity-1="Client" data-entity-2="Invoker" data-source-line="27" data-uid="lnk12" id="link_Client_Invoker"><path codeline="27" d="M385.35,55.48 C385.35,76.61 385.35,102.19 385.35,127.74" fill="none" id="Client-to-Invoker" style="stroke:#181818;stroke-width:1;stroke-dasharray:7,7;"></path><polygon fill="#181818" points="385.35,133.74,389.35,124.74,385.35,128.74,381.35,124.74,385.35,133.74" style="stroke:#181818;stroke-width:1;"></polygon><text fill="#000000" font-family="sans-serif" font-size="13" lengthAdjust="spacing" textLength="42.6309" x="386.35" y="100.8979">creates</text></g><!--link ConcreteCommandA to GMN13--><g class="link" data-entity-1="ConcreteCommandA" data-entity-2="GMN13" data-source-line="30" data-uid="lnk15" id="link_ConcreteCommandA_GMN13"><path d="M142.91,220.53 C135.41,230.04 127.83,240.27 121.35,250.24 C108.85,269.47 97.12,292.87 89.26,309.67" fill="none" id="ConcreteCommandA-GMN13" style="stroke:#181818;stroke-width:1;stroke-dasharray:7,7;"></path></g><!--link Invoker to GMN16--><g class="link" data-entity-1="Invoker" data-entity-2="GMN16" data-source-line="35" data-uid="lnk18" id="link_Invoker_GMN16"><path d="M413.19,220.69 C418.3,230.1 423.05,240.26 426.35,250.24 C432.8,269.74 435.16,293.11 435.99,309.83" fill="none" id="Invoker-GMN16" style="stroke:#181818;stroke-width:1;stroke-dasharray:7,7;"></path></g><!--SRC=[RP51QiCm44NNdbFCCgNO1r0XOBhgjZTGbOaHbKP5ceH2shj7gYN7ZRCJcl_V_ynO5ef7RGXVW_UQ3nVedkcRp4bezmI_0CRfbFAKJIIXgXgph8zao9ufAdolhyVUDpw7Juh5OcQxQcdPOBHpQtLZbIBQY0tyhuUpn78f7_ULS1X-zWsiqFelHpwBqrRPz_ibHuqf1MDrIO9Q5KDHBAXncY9Dis8kaBDM1CnqBPJMm_lCXw8QTvi11o7y22B1OpXkAD1PncN52hgk7M5ekte1uWCMpePMu_uWyzeBeTvaMB0tmXK0]--></g></svg>