<svg xmlns="http://www.w3.org/2000/svg" xmlns:xlink="http://www.w3.org/1999/xlink" contentstyletype="text/css" data-diagram-type="CLASS" height="507px" preserveAspectRatio="none" style="width:970px;height:507px;background:#FFFFFF;" version="1.1" viewBox="0 0 970 507" width="970px" zoomAndPan="magnify"><defs></defs><g><!--class Command--><g class="entity" data-entity="Command" data-source-line="1" data-uid="ent0002" id="entity_Command"><rect fill="#F1F1F1" height="67.1201" rx="2.5" ry="2.5" style="stroke:#181818;stroke-width:0.5;" width="117.8203" x="422.65" y="404.4"></rect><ellipse cx="447.2085" cy="420.4" fill="#B4A7E5" rx="11" ry="11" style="stroke:#181818;stroke-width:1;"></ellipse><path d="M443.8023,415.1813 L443.8023,414.2438 L449.646,414.2438 L449.646,415.1813 L447.8492,415.1813 Q447.6773,415.1813 447.5992,415.2438 Q447.521,415.3063 447.521,415.4469 L447.521,424.9313 Q447.521,425.0719 447.5992,425.1344 Q447.6773,425.1969 447.8492,425.1969 L449.646,425.1969 L449.646,426.1344 L443.8023,426.1344 L443.8023,425.1969 L445.5992,425.1969 Q445.8179,425.1969 445.8648,425.15 Q445.9273,425.0875 445.9273,424.9313 L445.9273,415.4469 Q445.9273,415.2906 445.8648,415.2438 Q445.8179,415.1813 445.5992,415.1813 L443.8023,415.1813 Z " fill="#000000"></path><text fill="#000000" font-family="sans-serif" font-size="14" font-style="italic" lengthAdjust="spacing" textLength="64.5791" x="463.3327" y="426.8839">Command</text><line style="stroke:#181818;stroke-width:0.5;" x1="423.65" x2="539.4703" y1="436.4" y2="436.4"></line><line style="stroke:#181818;stroke-width:0.5;" x1="423.65" x2="539.4703" y1="444.4" y2="444.4"></line><ellipse cx="433.65" cy="459.4601" fill="#84BE84" rx="3" ry="3" style="stroke:#038048;stroke-width:1;"></ellipse><text fill="#000000" font-family="sans-serif" font-size="14" lengthAdjust="spacing" textLength="91.8203" x="442.65" y="464.4439">execute(): void</text></g><!--class AddCommand--><g class="entity" data-entity="AddCommand" data-source-line="5" data-uid="ent0003" id="entity_AddCommand"><rect fill="#F1F1F1" height="86.2402" rx="2.5" ry="2.5" style="stroke:#181818;stroke-width:0.5;" width="187.0684" x="68.03" y="191.36"></rect><ellipse cx="112.5696" cy="207.36" fill="#ADD1B2" rx="11" ry="11" style="stroke:#181818;stroke-width:1;"></ellipse><path d="M111.9133,213.2194 Q109.9289,213.2194 108.7571,211.7506 Q107.6008,210.2663 107.6008,207.1881 Q107.6008,204.5788 108.8196,202.8288 Q110.0539,201.0788 112.1789,201.0788 Q112.6789,201.0788 113.2102,201.2194 Q113.6477,201.4069 113.9133,201.4069 Q114.1321,201.4069 114.2258,201.36 Q114.3352,201.3131 114.7883,200.7194 L115.5539,204.4538 L114.6633,204.7194 Q114.2102,203.2663 113.6008,202.6725 Q113.0071,202.0631 112.0539,202.0631 Q110.8352,202.0631 110.1164,203.5006 Q109.3977,204.9225 109.3977,207.11 Q109.3977,209.5163 110.0071,210.8131 Q110.6321,212.0944 111.9914,212.0944 Q112.9446,212.0944 113.6321,211.4069 Q114.3196,210.7038 114.6477,209.2038 L115.5539,209.61 Q115.1477,211.3131 114.1789,212.2663 Q113.2258,213.2194 111.9133,213.2194 Z " fill="#000000"></path><text fill="#000000" font-family="sans-serif" font-size="14" lengthAdjust="spacing" textLength="89.4893" x="133.0696" y="213.8439">AddCommand</text><line style="stroke:#181818;stroke-width:0.5;" x1="69.03" x2="254.0984" y1="223.36" y2="223.36"></line><rect fill="none" height="6" style="stroke:#C82930;stroke-width:1;" width="6" x="76.03" y="235.4201"></rect><text fill="#000000" font-family="sans-serif" font-size="14" lengthAdjust="spacing" textLength="161.0684" x="88.03" y="243.4039">calculatorCore: Calculator</text><line style="stroke:#181818;stroke-width:0.5;" x1="69.03" x2="254.0984" y1="250.4801" y2="250.4801"></line><ellipse cx="79.03" cy="265.5402" fill="#84BE84" rx="3" ry="3" style="stroke:#038048;stroke-width:1;"></ellipse><text fill="#000000" font-family="sans-serif" font-size="14" lengthAdjust="spacing" textLength="91.8203" x="88.03" y="270.5241">execute(): void</text></g><!--class SubtractCommand--><g class="entity" data-entity="SubtractCommand" data-source-line="10" data-uid="ent0004" id="entity_SubtractCommand"><rect fill="#F1F1F1" height="86.2402" rx="2.5" ry="2.5" style="stroke:#181818;stroke-width:0.5;" width="187.0684" x="293.03" y="191.36"></rect><ellipse cx="325.2882" cy="207.36" fill="#ADD1B2" rx="11" ry="11" style="stroke:#181818;stroke-width:1;"></ellipse><path d="M324.632,213.2194 Q322.6476,213.2194 321.4757,211.7506 Q320.3195,210.2663 320.3195,207.1881 Q320.3195,204.5788 321.5382,202.8288 Q322.7726,201.0788 324.8976,201.0788 Q325.3976,201.0788 325.9288,201.2194 Q326.3663,201.4069 326.632,201.4069 Q326.8507,201.4069 326.9445,201.36 Q327.0538,201.3131 327.507,200.7194 L328.2726,204.4538 L327.382,204.7194 Q326.9288,203.2663 326.3195,202.6725 Q325.7257,202.0631 324.7726,202.0631 Q323.5538,202.0631 322.8351,203.5006 Q322.1163,204.9225 322.1163,207.11 Q322.1163,209.5163 322.7257,210.8131 Q323.3507,212.0944 324.7101,212.0944 Q325.6632,212.0944 326.3507,211.4069 Q327.0382,210.7038 327.3663,209.2038 L328.2726,209.61 Q327.8663,211.3131 326.8976,212.2663 Q325.9445,213.2194 324.632,213.2194 Z " fill="#000000"></path><text fill="#000000" font-family="sans-serif" font-size="14" lengthAdjust="spacing" textLength="116.7168" x="343.1234" y="213.8439">SubtractCommand</text><line style="stroke:#181818;stroke-width:0.5;" x1="294.03" x2="479.0984" y1="223.36" y2="223.36"></line><rect fill="none" height="6" style="stroke:#C82930;stroke-width:1;" width="6" x="301.03" y="235.4201"></rect><text fill="#000000" font-family="sans-serif" font-size="14" lengthAdjust="spacing" textLength="161.0684" x="313.03" y="243.4039">calculatorCore: Calculator</text><line style="stroke:#181818;stroke-width:0.5;" x1="294.03" x2="479.0984" y1="250.4801" y2="250.4801"></line><ellipse cx="304.03" cy="265.5402" fill="#84BE84" rx="3" ry="3" style="stroke:#038048;stroke-width:1;"></ellipse><text fill="#000000" font-family="sans-serif" font-size="14" lengthAdjust="spacing" textLength="91.8203" x="313.03" y="270.5241">execute(): void</text></g><!--class Calculator--><g class="entity" data-entity="Calculator" data-source-line="15" data-uid="ent0005" id="entity_Calculator"><rect fill="#F1F1F1" height="124.4805" rx="2.5" ry="2.5" style="stroke:#181818;stroke-width:0.5;" width="140.4131" x="240.35" y="375.72"></rect><ellipse cx="275.7736" cy="391.72" fill="#ADD1B2" rx="11" ry="11" style="stroke:#181818;stroke-width:1;"></ellipse><path d="M275.1173,397.5794 Q273.133,397.5794 271.9611,396.1106 Q270.8048,394.6262 270.8048,391.5481 Q270.8048,388.9387 272.0236,387.1887 Q273.258,385.4387 275.383,385.4387 Q275.883,385.4387 276.4142,385.5794 Q276.8517,385.7669 277.1173,385.7669 Q277.3361,385.7669 277.4298,385.72 Q277.5392,385.6731 277.9923,385.0794 L278.758,388.8137 L277.8673,389.0794 Q277.4142,387.6262 276.8048,387.0325 Q276.2111,386.4231 275.258,386.4231 Q274.0392,386.4231 273.3205,387.8606 Q272.6017,389.2825 272.6017,391.47 Q272.6017,393.8762 273.2111,395.1731 Q273.8361,396.4544 275.1955,396.4544 Q276.1486,396.4544 276.8361,395.7669 Q277.5236,395.0637 277.8517,393.5637 L278.758,393.97 Q278.3517,395.6731 277.383,396.6262 Q276.4298,397.5794 275.1173,397.5794 Z " fill="#000000"></path><text fill="#000000" font-family="sans-serif" font-size="14" lengthAdjust="spacing" textLength="63.0273" x="294.3122" y="398.2039">Calculator</text><line style="stroke:#181818;stroke-width:0.5;" x1="241.35" x2="379.7631" y1="407.72" y2="407.72"></line><rect fill="none" height="6" style="stroke:#C82930;stroke-width:1;" width="6" x="248.35" y="419.7801"></rect><text fill="#000000" font-family="sans-serif" font-size="14" lengthAdjust="spacing" textLength="83.2891" x="260.35" y="427.7639">value: double</text><line style="stroke:#181818;stroke-width:0.5;" x1="241.35" x2="379.7631" y1="434.8401" y2="434.8401"></line><ellipse cx="251.35" cy="449.9002" fill="#84BE84" rx="3" ry="3" style="stroke:#038048;stroke-width:1;"></ellipse><text fill="#000000" font-family="sans-serif" font-size="14" lengthAdjust="spacing" textLength="66.1445" x="260.35" y="454.8841">add(): void</text><ellipse cx="251.35" cy="469.0203" fill="#84BE84" rx="3" ry="3" style="stroke:#038048;stroke-width:1;"></ellipse><text fill="#000000" font-family="sans-serif" font-size="14" lengthAdjust="spacing" textLength="88.6963" x="260.35" y="474.0042">subtract():void</text><ellipse cx="251.35" cy="488.1404" fill="#84BE84" rx="3" ry="3" style="stroke:#038048;stroke-width:1;"></ellipse><text fill="#000000" font-family="sans-serif" font-size="14" lengthAdjust="spacing" textLength="114.4131" x="260.35" y="493.1243">getValue(): double</text></g><!--class CalculatorInvoker--><g class="entity" data-entity="CalculatorInvoker" data-source-line="22" data-uid="ent0006" id="entity_CalculatorInvoker"><rect fill="#F1F1F1" height="86.2402" rx="2.5" ry="2.5" style="stroke:#181818;stroke-width:0.5;" width="243.8955" x="616.61" y="7"></rect><ellipse cx="679.839" cy="23" fill="#ADD1B2" rx="11" ry="11" style="stroke:#181818;stroke-width:1;"></ellipse><path d="M679.1828,28.8594 Q677.1984,28.8594 676.0265,27.3906 Q674.8703,25.9063 674.8703,22.8281 Q674.8703,20.2188 676.089,18.4688 Q677.3234,16.7188 679.4484,16.7188 Q679.9484,16.7188 680.4796,16.8594 Q680.9171,17.0469 681.1828,17.0469 Q681.4015,17.0469 681.4953,17 Q681.6046,16.9531 682.0578,16.3594 L682.8234,20.0938 L681.9328,20.3594 Q681.4796,18.9063 680.8703,18.3125 Q680.2765,17.7031 679.3234,17.7031 Q678.1046,17.7031 677.3859,19.1406 Q676.6671,20.5625 676.6671,22.75 Q676.6671,25.1563 677.2765,26.4531 Q677.9015,27.7344 679.2609,27.7344 Q680.214,27.7344 680.9015,27.0469 Q681.589,26.3438 681.9171,24.8438 L682.8234,25.25 Q682.4171,26.9531 681.4484,27.9063 Q680.4953,28.8594 679.1828,28.8594 Z " fill="#000000"></path><text fill="#000000" font-family="sans-serif" font-size="14" lengthAdjust="spacing" textLength="108.9375" x="700.339" y="29.4839">CalculatorInvoker</text><line style="stroke:#181818;stroke-width:0.5;" x1="617.61" x2="859.5055" y1="39" y2="39"></line><rect fill="none" height="6" style="stroke:#C82930;stroke-width:1;" width="6" x="624.61" y="51.0601"></rect><text fill="#000000" font-family="sans-serif" font-size="14" lengthAdjust="spacing" textLength="217.8955" x="636.61" y="59.0439">commandQueue: CommandQueue</text><line style="stroke:#181818;stroke-width:0.5;" x1="617.61" x2="859.5055" y1="66.1201" y2="66.1201"></line><ellipse cx="627.61" cy="81.1802" fill="#84BE84" rx="3" ry="3" style="stroke:#038048;stroke-width:1;"></ellipse><text fill="#000000" font-family="sans-serif" font-size="14" lengthAdjust="spacing" textLength="96.4824" x="636.61" y="86.1641">compute(): void</text></g><!--class CommandQueue--><g class="entity" data-entity="CommandQueue" data-source-line="27" data-uid="ent0007" id="entity_CommandQueue"><rect fill="#F1F1F1" height="124.4805" rx="2.5" ry="2.5" style="stroke:#181818;stroke-width:0.5;" width="204.9648" x="516.08" y="172.24"></rect><ellipse cx="561.0058" cy="188.24" fill="#ADD1B2" rx="11" ry="11" style="stroke:#181818;stroke-width:1;"></ellipse><path d="M560.3495,194.0994 Q558.3652,194.0994 557.1933,192.6306 Q556.037,191.1463 556.037,188.0681 Q556.037,185.4588 557.2558,183.7088 Q558.4902,181.9588 560.6152,181.9588 Q561.1152,181.9588 561.6464,182.0994 Q562.0839,182.2869 562.3495,182.2869 Q562.5683,182.2869 562.662,182.24 Q562.7714,182.1931 563.2245,181.5994 L563.9902,185.3338 L563.0995,185.5994 Q562.6464,184.1463 562.037,183.5525 Q561.4433,182.9431 560.4902,182.9431 Q559.2714,182.9431 558.5527,184.3806 Q557.8339,185.8025 557.8339,187.99 Q557.8339,190.3963 558.4433,191.6931 Q559.0683,192.9744 560.4277,192.9744 Q561.3808,192.9744 562.0683,192.2869 Q562.7558,191.5838 563.0839,190.0838 L563.9902,190.49 Q563.5839,192.1931 562.6152,193.1463 Q561.662,194.0994 560.3495,194.0994 Z " fill="#000000"></path><text fill="#000000" font-family="sans-serif" font-size="14" lengthAdjust="spacing" textLength="106.6133" x="581.5058" y="194.7239">CommandQueue</text><line style="stroke:#181818;stroke-width:0.5;" x1="517.08" x2="720.0448" y1="204.24" y2="204.24"></line><rect fill="none" height="6" style="stroke:#C82930;stroke-width:1;" width="6" x="524.08" y="216.3001"></rect><text fill="#000000" font-family="sans-serif" font-size="14" lengthAdjust="spacing" textLength="178.9648" x="536.08" y="224.2839">commands: List&lt;Command&gt;</text><line style="stroke:#181818;stroke-width:0.5;" x1="517.08" x2="720.0448" y1="231.3601" y2="231.3601"></line><ellipse cx="527.08" cy="246.4202" fill="#84BE84" rx="3" ry="3" style="stroke:#038048;stroke-width:1;"></ellipse><text fill="#000000" font-family="sans-serif" font-size="14" lengthAdjust="spacing" textLength="130.7236" x="536.08" y="251.4041">addCommand(): void</text><ellipse cx="527.08" cy="265.5403" fill="#84BE84" rx="3" ry="3" style="stroke:#038048;stroke-width:1;"></ellipse><text fill="#000000" font-family="sans-serif" font-size="14" lengthAdjust="spacing" textLength="150.1582" x="536.08" y="270.5242">removeCommand():void</text><ellipse cx="527.08" cy="284.6604" fill="#84BE84" rx="3" ry="3" style="stroke:#038048;stroke-width:1;"></ellipse><text fill="#000000" font-family="sans-serif" font-size="14" lengthAdjust="spacing" textLength="91.8203" x="536.08" y="289.6443">execute(): void</text></g><g class="entity" data-entity="GMN14" data-source-line="42" data-uid="ent0015" id="entity_GMN14"><path d="M755.85,211.72 L755.85,257.2288 A0,0 0 0 0 755.85,257.2288 L963.268,257.2288 A0,0 0 0 0 963.268,257.2288 L963.268,221.72 L953.268,211.72 L848.88,211.72 L766.63,93.41 L840.88,211.72 L755.85,211.72 A0,0 0 0 0 755.85,211.72" fill="#FEFFDD" style="stroke:#181818;stroke-width:0.5;"></path><path d="M953.268,211.72 L953.268,221.72 L963.268,221.72 L953.268,211.72" fill="#FEFFDD" style="stroke:#181818;stroke-width:0.5;"></path><text fill="#000000" font-family="sans-serif" font-size="13" lengthAdjust="spacing" textLength="75.8608" x="761.85" y="231.6179">in compute():</text><text fill="#000000" font-family="sans-serif" font-size="13" lengthAdjust="spacing" textLength="157.5234" x="790.7445" y="249.3723">commandQueue.execute();</text></g><g class="entity" data-entity="GMN17" data-source-line="47" data-uid="ent0018" id="entity_GMN17"><path d="M574.99,397.45 L574.99,478.4676 L848.1253,478.4676 L848.1253,407.45 L838.1253,397.45 L574.99,397.45" fill="#FEFFDD" style="stroke:#181818;stroke-width:0.5;"></path><path d="M838.1253,397.45 L838.1253,407.45 L848.1253,407.45 L838.1253,397.45" fill="#FEFFDD" style="stroke:#181818;stroke-width:1;"></path><text fill="#000000" font-family="sans-serif" font-size="13" lengthAdjust="spacing" textLength="71.5317" x="580.99" y="417.3479">in execute():</text><text fill="#000000" font-family="sans-serif" font-size="13" lengthAdjust="spacing" textLength="223.2407" x="609.8845" y="435.1023">for(Command command : commands){</text><text fill="#000000" font-family="sans-serif" font-size="13" lengthAdjust="spacing" textLength="118.4917" x="638.7791" y="452.8567">command.execute();</text><text fill="#000000" font-family="sans-serif" font-size="13" lengthAdjust="spacing" textLength="4.3418" x="609.8845" y="470.6111">}</text></g><g class="entity" data-entity="GMN20" data-source-line="54" data-uid="ent0021" id="entity_GMN20"><path d="M6,415.21 L6,460.7188 L201.1226,460.7188 L201.1226,425.21 L191.1226,415.21 L6,415.21" fill="#FEFFDD" style="stroke:#181818;stroke-width:0.5;"></path><path d="M191.1226,415.21 L191.1226,425.21 L201.1226,425.21 L191.1226,415.21" fill="#FEFFDD" style="stroke:#181818;stroke-width:1;"></path><text fill="#000000" font-family="sans-serif" font-size="13" lengthAdjust="spacing" textLength="71.5317" x="12" y="435.1079">in execute():</text><text fill="#000000" font-family="sans-serif" font-size="13" lengthAdjust="spacing" textLength="145.228" x="40.8945" y="452.8623">this.calculatorCore.add();</text></g><!--link AddCommand to Command--><g class="link" data-entity-1="AddCommand" data-entity-2="Command" data-source-line="34" data-uid="lnk8" id="link_AddCommand_Command"><path codeline="34" d="M193.52,277.97 C213.26,301.32 240.51,328.88 270.56,345.72 C321.54,374.28 345.52,351.21 398.56,375.72 C414.49,383.08 416.1161,382.8139 429.6661,393.2239" fill="none" id="AddCommand-to-Command" style="stroke:#181818;stroke-width:1;stroke-dasharray:7,7;"></path><polygon fill="none" points="443.94,404.19,433.3215,388.4659,426.0107,397.9818,443.94,404.19" style="stroke:#181818;stroke-width:1;"></polygon><text fill="#000000" font-family="sans-serif" font-size="13" lengthAdjust="spacing" textLength="66.4663" x="271.56" y="342.6179">implements</text></g><!--link SubtractCommand to Command--><g class="link" data-entity-1="SubtractCommand" data-entity-2="Command" data-source-line="35" data-uid="lnk9" id="link_SubtractCommand_Command"><path codeline="35" d="M406.48,277.72 C424.21,315.33 442.1206,353.3303 458.3806,387.8003" fill="none" id="SubtractCommand-to-Command" style="stroke:#181818;stroke-width:1;stroke-dasharray:7,7;"></path><polygon fill="none" points="466.06,404.08,463.8072,385.2405,452.9541,390.3601,466.06,404.08" style="stroke:#181818;stroke-width:1;"></polygon><text fill="#000000" font-family="sans-serif" font-size="13" lengthAdjust="spacing" textLength="66.4663" x="437.91" y="342.6179">implements</text></g><!--link AddCommand to Calculator--><g class="link" data-entity-1="AddCommand" data-entity-2="Calculator" data-source-line="36" data-uid="lnk10" id="link_AddCommand_Calculator"><path codeline="36" d="M149.91,277.87 C146.39,299.67 146.23,325.77 158.56,345.72 C174.24,371.08 192.77,360.76 218.56,375.72 C225.62,379.81 227.7835,381.0316 234.9735,385.5616" fill="none" id="AddCommand-to-Calculator" style="stroke:#181818;stroke-width:1;"></path><polygon fill="#181818" points="240.05,388.76,234.5676,380.5781,235.8196,386.0947,230.3031,387.3467,240.05,388.76" style="stroke:#181818;stroke-width:1;"></polygon><text fill="#000000" font-family="sans-serif" font-size="13" lengthAdjust="spacing" textLength="66.479" x="159.56" y="342.6179">Association</text></g><!--link SubtractCommand to Calculator--><g class="link" data-entity-1="SubtractCommand" data-entity-2="Calculator" data-source-line="37" data-uid="lnk11" id="link_SubtractCommand_Calculator"><path codeline="37" d="M370.63,277.72 C359.97,305.99 347.8676,338.0561 335.9476,369.6561" fill="none" id="SubtractCommand-to-Calculator" style="stroke:#181818;stroke-width:1;"></path><polygon fill="#181818" points="333.83,375.27,340.749,368.2609,335.5947,370.5918,333.2639,365.4374,333.83,375.27" style="stroke:#181818;stroke-width:1;"></polygon><text fill="#000000" font-family="sans-serif" font-size="13" lengthAdjust="spacing" textLength="66.479" x="351.84" y="342.6179">Association</text></g><!--link CalculatorInvoker to CommandQueue--><g class="link" data-entity-1="CalculatorInvoker" data-entity-2="CommandQueue" data-source-line="38" data-uid="lnk12" id="link_CalculatorInvoker_CommandQueue"><path codeline="38" d="M704.1341,103.4347 C688.7641,126.7947 679.2882,141.1978 662.2782,167.0478" fill="none" id="CalculatorInvoker-CommandQueue" style="stroke:#181818;stroke-width:1;"></path><polygon fill="none" points="710.73,93.41,704.0905,96.2237,704.1341,103.4347,710.7736,100.621,710.73,93.41" style="stroke:#181818;stroke-width:1;"></polygon><polygon fill="#181818" points="658.98,172.06,667.2687,166.7405,661.7285,167.8832,660.5858,162.3429,658.98,172.06" style="stroke:#181818;stroke-width:1;"></polygon><text fill="#000000" font-family="sans-serif" font-size="13" lengthAdjust="spacing" textLength="70.1099" x="690.31" y="139.1379">Aggregation</text></g><!--link CommandQueue to Command--><g class="link" data-entity-1="CommandQueue" data-entity-2="Command" data-source-line="39" data-uid="lnk13" id="link_CommandQueue_Command"><path codeline="39" d="M569.963,306.9436 C545.963,342.2436 526.9132,370.258 507.2532,399.178" fill="none" id="CommandQueue-Command" style="stroke:#181818;stroke-width:1;"></path><polygon fill="none" points="576.71,297.02,570.0286,299.7328,569.963,306.9436,576.6444,304.2308,576.71,297.02" style="stroke:#181818;stroke-width:1;"></polygon><polygon fill="#181818" points="503.88,404.14,512.2478,398.9458,506.691,400.005,505.6318,394.4482,503.88,404.14" style="stroke:#181818;stroke-width:1;"></polygon><text fill="#000000" font-family="sans-serif" font-size="13" lengthAdjust="spacing" textLength="70.1099" x="555.17" y="342.6179">Aggregation</text></g><!--link CommandQueue to GMN17--><g class="link" data-entity-1="CommandQueue" data-entity-2="GMN17" data-source-line="47" data-uid="lnk19" id="link_CommandQueue_GMN17"><path d="M672.47,297.07 C678.96,306.56 684.93,316.59 689.56,326.72 C699.67,348.81 705.15,375.49 708.11,397.07" fill="none" id="CommandQueue-GMN17" style="stroke:#181818;stroke-width:1;stroke-dasharray:7,7;"></path></g><!--link AddCommand to GMN20--><g class="link" data-entity-1="AddCommand" data-entity-2="GMN20" data-source-line="54" data-uid="lnk22" id="link_AddCommand_GMN20"><path d="M142.92,278.09 C136.79,293.24 130.32,310.55 125.56,326.72 C116.74,356.67 110.35,392.25 106.8,414.72" fill="none" id="AddCommand-GMN20" style="stroke:#181818;stroke-width:1;stroke-dasharray:7,7;"></path></g><!--SRC=[fLFBReCm43pRN-5ZeYXy0AsG4ATAlLILUZVsXbe5RsGRLAdDlzSG1vkGvD8RNizZcG6b7PW35y0gx3gkvGybE_W6qJlOR7Cse9BqHAbekRMib3B2zeAtec-vGrEXWPnLy_cHndjVEyE5-xTGH8qQ0szxJvNOroru6fToff2T3QP-52ODk8-HCe82wORoYnxm2oO3STxthOVHfqfEnClvs-FjBHDW8cDpzggiUmxNnNdZS4eMDz3X074UnbUXaD4lbiEoxBUuEETCTSSMEj3EqglmxmCJiVs-I1B9MMaj2iMTGhtIUuHTfSfmWYzoBPl6G1C8oSq2kuHHZGvOZSvXn_2mReyIfLaiY1AITfdDMJvHyAymggqr4y8a5mlmSWSqcqi2GPhbboUxzRNFbgaR8QVxZh60jP_xL3PR_ZJPzBqdR_07]--></g></svg>