<svg xmlns="http://www.w3.org/2000/svg" xmlns:xlink="http://www.w3.org/1999/xlink" contentstyletype="text/css" data-diagram-type="CLASS" height="443px" preserveAspectRatio="none" style="width:639px;height:443px;background:#FFFFFF;" version="1.1" viewBox="0 0 639 443" width="639px" zoomAndPan="magnify"><defs></defs><g><!--class Client--><g class="entity" data-entity="Client" data-source-line="1" data-uid="ent0002" id="entity_Client"><rect fill="#F1F1F1" height="48" rx="2.5" ry="2.5" style="stroke:#181818;stroke-width:0.5;" width="67.793" x="275.51" y="7"></rect><ellipse cx="290.51" cy="23" fill="#ADD1B2" rx="11" ry="11" style="stroke:#181818;stroke-width:1;"></ellipse><path d="M289.8538,28.8594 Q287.8694,28.8594 286.6975,27.3906 Q285.5413,25.9063 285.5413,22.8281 Q285.5413,20.2188 286.76,18.4688 Q287.9944,16.7188 290.1194,16.7188 Q290.6194,16.7188 291.1506,16.8594 Q291.5881,17.0469 291.8538,17.0469 Q292.0725,17.0469 292.1663,17 Q292.2756,16.9531 292.7288,16.3594 L293.4944,20.0938 L292.6038,20.3594 Q292.1506,18.9063 291.5413,18.3125 Q290.9475,17.7031 289.9944,17.7031 Q288.7756,17.7031 288.0569,19.1406 Q287.3381,20.5625 287.3381,22.75 Q287.3381,25.1563 287.9475,26.4531 Q288.5725,27.7344 289.9319,27.7344 Q290.885,27.7344 291.5725,27.0469 Q292.26,26.3438 292.5881,24.8438 L293.4944,25.25 Q293.0881,26.9531 292.1194,27.9063 Q291.1663,28.8594 289.8538,28.8594 Z " fill="#000000"></path><text fill="#000000" font-family="sans-serif" font-size="14" lengthAdjust="spacing" textLength="35.793" x="304.51" y="29.4839">Client</text><line style="stroke:#181818;stroke-width:0.5;" x1="276.51" x2="342.303" y1="39" y2="39"></line><line style="stroke:#181818;stroke-width:0.5;" x1="276.51" x2="342.303" y1="47" y2="47"></line></g><!--class Facade--><g class="entity" data-entity="Facade" data-source-line="5" data-uid="ent0003" id="entity_Facade"><rect fill="#F1F1F1" height="124.4805" rx="2.5" ry="2.5" style="stroke:#181818;stroke-width:0.5;" width="144.2686" x="237.28" y="134"></rect><ellipse cx="281.8161" cy="150" fill="#ADD1B2" rx="11" ry="11" style="stroke:#181818;stroke-width:1;"></ellipse><path d="M281.1599,155.8594 Q279.1755,155.8594 278.0036,154.3906 Q276.8474,152.9063 276.8474,149.8281 Q276.8474,147.2188 278.0661,145.4688 Q279.3005,143.7188 281.4255,143.7188 Q281.9255,143.7188 282.4568,143.8594 Q282.8943,144.0469 283.1599,144.0469 Q283.3786,144.0469 283.4724,144 Q283.5818,143.9531 284.0349,143.3594 L284.8005,147.0938 L283.9099,147.3594 Q283.4568,145.9063 282.8474,145.3125 Q282.2536,144.7031 281.3005,144.7031 Q280.0818,144.7031 279.363,146.1406 Q278.6443,147.5625 278.6443,149.75 Q278.6443,152.1563 279.2536,153.4531 Q279.8786,154.7344 281.238,154.7344 Q282.1911,154.7344 282.8786,154.0469 Q283.5661,153.3438 283.8943,151.8438 L284.8005,152.25 Q284.3943,153.9531 283.4255,154.9063 Q282.4724,155.8594 281.1599,155.8594 Z " fill="#000000"></path><text fill="#000000" font-family="sans-serif" font-size="14" lengthAdjust="spacing" textLength="46.6963" x="302.3161" y="156.4839">Facade</text><line style="stroke:#181818;stroke-width:0.5;" x1="238.28" x2="380.5486" y1="166" y2="166"></line><rect fill="none" height="6" style="stroke:#C82930;stroke-width:1;" width="6" x="245.28" y="178.0601"></rect><text fill="#000000" font-family="sans-serif" font-size="14" lengthAdjust="spacing" textLength="116.7236" x="257.28" y="186.0439">objA: SubSystemA</text><rect fill="none" height="6" style="stroke:#C82930;stroke-width:1;" width="6" x="245.28" y="197.1802"></rect><text fill="#000000" font-family="sans-serif" font-size="14" lengthAdjust="spacing" textLength="116.7236" x="257.28" y="205.1641">objB: SubSystemB</text><rect fill="none" height="6" style="stroke:#C82930;stroke-width:1;" width="6" x="245.28" y="216.3003"></rect><text fill="#000000" font-family="sans-serif" font-size="14" lengthAdjust="spacing" textLength="118.2686" x="257.28" y="224.2842">objC: SubSystemC</text><line style="stroke:#181818;stroke-width:0.5;" x1="238.28" x2="380.5486" y1="231.3604" y2="231.3604"></line><text fill="#000000" font-family="sans-serif" font-size="14" lengthAdjust="spacing" textLength="89.4824" x="243.28" y="251.4043">Method(): void</text></g><!--class SubSystemA--><g class="entity" data-entity="SubSystemA" data-source-line="13" data-uid="ent0004" id="entity_SubSystemA"><rect fill="#F1F1F1" height="67.1201" rx="2.5" ry="2.5" style="stroke:#181818;stroke-width:0.5;" width="124.8203" x="7" y="353.3"></rect><ellipse cx="27.3534" cy="369.3" fill="#ADD1B2" rx="11" ry="11" style="stroke:#181818;stroke-width:1;"></ellipse><path d="M26.6972,375.1594 Q24.7128,375.1594 23.5409,373.6906 Q22.3847,372.2063 22.3847,369.1281 Q22.3847,366.5188 23.6034,364.7688 Q24.8378,363.0188 26.9628,363.0188 Q27.4628,363.0188 27.994,363.1594 Q28.4315,363.3469 28.6972,363.3469 Q28.9159,363.3469 29.0097,363.3 Q29.119,363.2531 29.5722,362.6594 L30.3378,366.3938 L29.4472,366.6594 Q28.994,365.2063 28.3847,364.6125 Q27.7909,364.0031 26.8378,364.0031 Q25.619,364.0031 24.9003,365.4406 Q24.1815,366.8625 24.1815,369.05 Q24.1815,371.4563 24.7909,372.7531 Q25.4159,374.0344 26.7753,374.0344 Q27.7284,374.0344 28.4159,373.3469 Q29.1034,372.6438 29.4315,371.1438 L30.3378,371.55 Q29.9315,373.2531 28.9628,374.2063 Q28.0097,375.1594 26.6972,375.1594 Z " fill="#000000"></path><text fill="#000000" font-family="sans-serif" font-size="14" lengthAdjust="spacing" textLength="80.9238" x="42.5431" y="375.7839">SubSystemA</text><line style="stroke:#181818;stroke-width:0.5;" x1="8" x2="130.8203" y1="385.3" y2="385.3"></line><line style="stroke:#181818;stroke-width:0.5;" x1="8" x2="130.8203" y1="393.3" y2="393.3"></line><ellipse cx="18" cy="408.3601" fill="#84BE84" rx="3" ry="3" style="stroke:#038048;stroke-width:1;"></ellipse><text fill="#000000" font-family="sans-serif" font-size="14" lengthAdjust="spacing" textLength="98.8203" x="27" y="413.3439">MethodA(): void</text></g><!--class SubSystemB--><g class="entity" data-entity="SubSystemB" data-source-line="17" data-uid="ent0005" id="entity_SubSystemB"><rect fill="#F1F1F1" height="67.1201" rx="2.5" ry="2.5" style="stroke:#181818;stroke-width:0.5;" width="124.8203" x="167" y="353.3"></rect><ellipse cx="187.3534" cy="369.3" fill="#ADD1B2" rx="11" ry="11" style="stroke:#181818;stroke-width:1;"></ellipse><path d="M186.6972,375.1594 Q184.7128,375.1594 183.5409,373.6906 Q182.3847,372.2063 182.3847,369.1281 Q182.3847,366.5188 183.6034,364.7688 Q184.8378,363.0188 186.9628,363.0188 Q187.4628,363.0188 187.994,363.1594 Q188.4315,363.3469 188.6972,363.3469 Q188.9159,363.3469 189.0097,363.3 Q189.119,363.2531 189.5722,362.6594 L190.3378,366.3938 L189.4472,366.6594 Q188.994,365.2063 188.3847,364.6125 Q187.7909,364.0031 186.8378,364.0031 Q185.619,364.0031 184.9003,365.4406 Q184.1815,366.8625 184.1815,369.05 Q184.1815,371.4563 184.7909,372.7531 Q185.4159,374.0344 186.7753,374.0344 Q187.7284,374.0344 188.4159,373.3469 Q189.1034,372.6438 189.4315,371.1438 L190.3378,371.55 Q189.9315,373.2531 188.9628,374.2063 Q188.0097,375.1594 186.6972,375.1594 Z " fill="#000000"></path><text fill="#000000" font-family="sans-serif" font-size="14" lengthAdjust="spacing" textLength="80.9238" x="202.5431" y="375.7839">SubSystemB</text><line style="stroke:#181818;stroke-width:0.5;" x1="168" x2="290.8203" y1="385.3" y2="385.3"></line><line style="stroke:#181818;stroke-width:0.5;" x1="168" x2="290.8203" y1="393.3" y2="393.3"></line><ellipse cx="178" cy="408.3601" fill="#84BE84" rx="3" ry="3" style="stroke:#038048;stroke-width:1;"></ellipse><text fill="#000000" font-family="sans-serif" font-size="14" lengthAdjust="spacing" textLength="98.8203" x="187" y="413.3439">MethodB(): void</text></g><!--class SubSystemC--><g class="entity" data-entity="SubSystemC" data-source-line="21" data-uid="ent0006" id="entity_SubSystemC"><rect fill="#F1F1F1" height="67.1201" rx="2.5" ry="2.5" style="stroke:#181818;stroke-width:0.5;" width="125.5928" x="326.61" y="353.3"></rect><ellipse cx="346.9634" cy="369.3" fill="#ADD1B2" rx="11" ry="11" style="stroke:#181818;stroke-width:1;"></ellipse><path d="M346.3072,375.1594 Q344.3228,375.1594 343.1509,373.6906 Q341.9947,372.2063 341.9947,369.1281 Q341.9947,366.5188 343.2134,364.7688 Q344.4478,363.0188 346.5728,363.0188 Q347.0728,363.0188 347.604,363.1594 Q348.0415,363.3469 348.3072,363.3469 Q348.5259,363.3469 348.6197,363.3 Q348.729,363.2531 349.1822,362.6594 L349.9478,366.3938 L349.0572,366.6594 Q348.604,365.2063 347.9947,364.6125 Q347.4009,364.0031 346.4478,364.0031 Q345.229,364.0031 344.5103,365.4406 Q343.7915,366.8625 343.7915,369.05 Q343.7915,371.4563 344.4009,372.7531 Q345.0259,374.0344 346.3853,374.0344 Q347.3384,374.0344 348.0259,373.3469 Q348.7134,372.6438 349.0415,371.1438 L349.9478,371.55 Q349.5415,373.2531 348.5728,374.2063 Q347.6197,375.1594 346.3072,375.1594 Z " fill="#000000"></path><text fill="#000000" font-family="sans-serif" font-size="14" lengthAdjust="spacing" textLength="81.6963" x="362.1531" y="375.7839">SubSystemC</text><line style="stroke:#181818;stroke-width:0.5;" x1="327.61" x2="451.2028" y1="385.3" y2="385.3"></line><line style="stroke:#181818;stroke-width:0.5;" x1="327.61" x2="451.2028" y1="393.3" y2="393.3"></line><ellipse cx="337.61" cy="408.3601" fill="#84BE84" rx="3" ry="3" style="stroke:#038048;stroke-width:1;"></ellipse><text fill="#000000" font-family="sans-serif" font-size="14" lengthAdjust="spacing" textLength="99.5928" x="346.61" y="413.3439">MethodC(): void</text></g><g class="entity" data-entity="GMN11" data-source-line="31" data-uid="ent0012" id="entity_GMN11"><path d="M486.78,337.48 L486.78,436.252 L632.0417,436.252 L632.0417,347.48 L622.0417,337.48 L486.78,337.48" fill="#FEFFDD" style="stroke:#181818;stroke-width:0.5;"></path><path d="M622.0417,337.48 L622.0417,347.48 L632.0417,347.48 L622.0417,337.48" fill="#FEFFDD" style="stroke:#181818;stroke-width:1;"></path><text fill="#000000" font-family="sans-serif" font-size="13" lengthAdjust="spacing" textLength="83.8208" x="492.78" y="357.3779">void Method(){</text><text fill="#000000" font-family="sans-serif" font-size="13" lengthAdjust="spacing" textLength="93.9326" x="521.6745" y="375.1323">objA.MethodA();</text><text fill="#000000" font-family="sans-serif" font-size="13" lengthAdjust="spacing" textLength="93.9326" x="521.6745" y="392.8867">objB.MethodB();</text><text fill="#000000" font-family="sans-serif" font-size="13" lengthAdjust="spacing" textLength="95.3672" x="521.6745" y="410.6411">objC.MethodC();</text><text fill="#000000" font-family="sans-serif" font-size="13" lengthAdjust="spacing" textLength="4.3418" x="492.78" y="428.3955">}</text></g><!--link Facade to SubSystemA--><g class="link" data-entity-1="Facade" data-entity-2="SubSystemA" data-source-line="25" data-uid="lnk7" id="link_Facade_SubSystemA"><path codeline="25" d="M237.03,248.71 C219.61,261.47 201.2,275.27 184.41,288.48 C157.99,309.26 133.6591,329.7961 111.4491,348.9961" fill="none" id="Facade-to-SubSystemA" style="stroke:#181818;stroke-width:1;"></path><polygon fill="#181818" points="106.91,352.92,116.3345,350.0602,110.6925,349.6501,111.1026,344.0081,106.91,352.92" style="stroke:#181818;stroke-width:1;"></polygon><text fill="#000000" font-family="sans-serif" font-size="13" lengthAdjust="spacing" textLength="70.1099" x="185.41" y="304.3779">Aggregation</text></g><!--link Facade to SubSystemB--><g class="link" data-entity-1="Facade" data-entity-2="SubSystemB" data-source-line="26" data-uid="lnk8" id="link_Facade_SubSystemB"><path codeline="26" d="M283.33,258.74 C270.01,290.13 256.6942,321.5469 245.6842,347.4869" fill="none" id="Facade-to-SubSystemB" style="stroke:#181818;stroke-width:1;"></path><polygon fill="#181818" points="243.34,353.01,250.5384,346.2882,245.2935,348.4074,243.1743,343.1625,243.34,353.01" style="stroke:#181818;stroke-width:1;"></polygon><text fill="#000000" font-family="sans-serif" font-size="13" lengthAdjust="spacing" textLength="70.1099" x="270.41" y="304.3779">Aggregation</text></g><!--link Facade to SubSystemC--><g class="link" data-entity-1="Facade" data-entity-2="SubSystemC" data-source-line="27" data-uid="lnk9" id="link_Facade_SubSystemC"><path codeline="27" d="M336.5,258.5 C340.86,268.5 345.29,278.77 349.41,288.48 C358.48,309.85 366.1387,328.4224 373.8287,347.3224" fill="none" id="Facade-to-SubSystemC" style="stroke:#181818;stroke-width:1;"></path><polygon fill="#181818" points="376.09,352.88,376.4032,343.0361,374.2056,348.2487,368.9931,346.0511,376.09,352.88" style="stroke:#181818;stroke-width:1;"></polygon><text fill="#000000" font-family="sans-serif" font-size="13" lengthAdjust="spacing" textLength="70.1099" x="358.22" y="304.3779">Aggregation</text></g><!--link Client to Facade--><g class="link" data-entity-1="Client" data-entity-2="Facade" data-source-line="28" data-uid="lnk10" id="link_Client_Facade"><path codeline="28" d="M309.41,55.39 C309.41,75.75 309.41,100.21 309.41,127.5" fill="none" id="Client-to-Facade" style="stroke:#181818;stroke-width:1;stroke-dasharray:7,7;"></path><polygon fill="#181818" points="309.41,133.5,313.41,124.5,309.41,128.5,305.41,124.5,309.41,133.5" style="stroke:#181818;stroke-width:1;"></polygon><text fill="#000000" font-family="sans-serif" font-size="13" lengthAdjust="spacing" textLength="70.8398" x="310.41" y="100.8979">dependency</text></g><!--link Facade to GMN11--><g class="link" data-entity-1="Facade" data-entity-2="GMN11" data-source-line="31" data-uid="lnk13" id="link_Facade_GMN11"><path d="M382,247.95 C400.23,260.97 419.66,275.08 437.41,288.48 C457.96,303.99 480.06,321.4 499.73,337.16" fill="none" id="Facade-GMN11" style="stroke:#181818;stroke-width:1;stroke-dasharray:7,7;"></path></g><!--SRC=[XP113e8m44NNp2bcgJ7q03KXeKtSkU84q8w8WTP8DI66krii0YO6joyl_yzyLUTjYxAkoBWdHD03g3Swv2hNv55iYqlACRiNMTSwQjA0n0A9WEG2IPyL7ScThTviEJvifUViESldxuALhcXYriIA9cTDBhNm2iPnicZcc9RbZShSLTRyLCH_HNuhOKPaB1dduwZfIaQJKHs0iOwmiCxP1krfL20QpiJFLFw5Q1YSJQli0n5i6c0aaas_UjA3xy6X0bu0]--></g></svg>