<svg xmlns="http://www.w3.org/2000/svg" xmlns:xlink="http://www.w3.org/1999/xlink" contentstyletype="text/css" data-diagram-type="CLASS" height="227px" preserveAspectRatio="none" style="width:102px;height:227px;background:#FFFFFF;" version="1.1" viewBox="0 0 102 227" width="102px" zoomAndPan="magnify"><defs></defs><g><!--class Flyable--><g class="entity" data-entity="Flyable" data-source-line="1" data-uid="ent0002" id="entity_Flyable"><rect fill="#F1F1F1" height="67.1201" rx="2.5" ry="2.5" style="stroke:#181818;stroke-width:0.5;" width="82.7861" x="7" y="153.12"></rect><ellipse cx="24.5449" cy="169.12" fill="#B4A7E5" rx="11" ry="11" style="stroke:#181818;stroke-width:1;"></ellipse><path d="M21.1386,163.9013 L21.1386,162.9638 L26.9824,162.9638 L26.9824,163.9013 L25.1855,163.9013 Q25.0136,163.9013 24.9355,163.9638 Q24.8574,164.0263 24.8574,164.1669 L24.8574,173.6513 Q24.8574,173.7919 24.9355,173.8544 Q25.0136,173.9169 25.1855,173.9169 L26.9824,173.9169 L26.9824,174.8544 L21.1386,174.8544 L21.1386,173.9169 L22.9355,173.9169 Q23.1542,173.9169 23.2011,173.87 Q23.2636,173.8075 23.2636,173.6513 L23.2636,164.1669 Q23.2636,164.0106 23.2011,163.9638 Q23.1542,163.9013 22.9355,163.9013 L21.1386,163.9013 Z " fill="#000000"></path><text fill="#000000" font-family="sans-serif" font-size="14" font-style="italic" lengthAdjust="spacing" textLength="45.1309" x="39.1104" y="175.6039">Flyable</text><line style="stroke:#181818;stroke-width:0.5;" x1="8" x2="88.7861" y1="185.12" y2="185.12"></line><line style="stroke:#181818;stroke-width:0.5;" x1="8" x2="88.7861" y1="193.12" y2="193.12"></line><ellipse cx="18" cy="208.1801" fill="#84BE84" rx="3" ry="3" style="stroke:#038048;stroke-width:1;"></ellipse><text fill="#000000" font-family="sans-serif" font-size="14" lengthAdjust="spacing" textLength="56.7861" x="27" y="213.1639">fly(): void</text></g><!--class Bird--><g class="entity" data-entity="Bird" data-source-line="5" data-uid="ent0003" id="entity_Bird"><rect fill="#F1F1F1" height="67.1201" rx="2.5" ry="2.5" style="stroke:#181818;stroke-width:0.5;" width="82.7861" x="7" y="7"></rect><ellipse cx="33.6503" cy="23" fill="#ADD1B2" rx="11" ry="11" style="stroke:#181818;stroke-width:1;"></ellipse><path d="M32.9941,28.8594 Q31.0097,28.8594 29.8378,27.3906 Q28.6816,25.9063 28.6816,22.8281 Q28.6816,20.2188 29.9003,18.4688 Q31.1347,16.7188 33.2597,16.7188 Q33.7597,16.7188 34.291,16.8594 Q34.7285,17.0469 34.9941,17.0469 Q35.2128,17.0469 35.3066,17 Q35.416,16.9531 35.8691,16.3594 L36.6347,20.0938 L35.7441,20.3594 Q35.291,18.9063 34.6816,18.3125 Q34.0878,17.7031 33.1347,17.7031 Q31.916,17.7031 31.1972,19.1406 Q30.4785,20.5625 30.4785,22.75 Q30.4785,25.1563 31.0878,26.4531 Q31.7128,27.7344 33.0722,27.7344 Q34.0253,27.7344 34.7128,27.0469 Q35.4003,26.3438 35.7285,24.8438 L36.6347,25.25 Q36.2285,26.9531 35.2597,27.9063 Q34.3066,28.8594 32.9941,28.8594 Z " fill="#000000"></path><text fill="#000000" font-family="sans-serif" font-size="14" lengthAdjust="spacing" textLength="24.8965" x="50.2393" y="29.4839">Bird</text><line style="stroke:#181818;stroke-width:0.5;" x1="8" x2="88.7861" y1="39" y2="39"></line><line style="stroke:#181818;stroke-width:0.5;" x1="8" x2="88.7861" y1="47" y2="47"></line><ellipse cx="18" cy="62.0601" fill="#84BE84" rx="3" ry="3" style="stroke:#038048;stroke-width:1;"></ellipse><text fill="#000000" font-family="sans-serif" font-size="14" lengthAdjust="spacing" textLength="56.7861" x="27" y="67.0439">fly(): void</text></g><!--link Bird to Flyable--><g class="link" data-entity-1="Bird" data-entity-2="Flyable" data-source-line="9" data-uid="lnk4" id="link_Bird_Flyable"><path codeline="9" d="M48.39,74.26 C48.39,97.85 48.39,111.55 48.39,135.11" fill="none" id="Bird-to-Flyable" style="stroke:#181818;stroke-width:1;stroke-dasharray:7,7;"></path><polygon fill="none" points="48.39,153.11,54.39,135.11,42.39,135.11,48.39,153.11" style="stroke:#181818;stroke-width:1;"></polygon><text fill="#000000" font-family="sans-serif" font-size="13" lengthAdjust="spacing" textLength="44.7954" x="49.39" y="120.0179">realizes</text></g><!--SRC=[oymhIIrAIqnELN3BgKnCoabLgEPIKD1EowdKqBHIAClFJE6gvU9ApaaiBbPmoYnAmIeDbj3Jgx636sAbK9IQc9DPbLeC0000]--></g></svg>