<svg xmlns="http://www.w3.org/2000/svg" xmlns:xlink="http://www.w3.org/1999/xlink" contentstyletype="text/css" data-diagram-type="CLASS" height="373px" preserveAspectRatio="none" style="width:610px;height:373px;background:#FFFFFF;" version="1.1" viewBox="0 0 610 373" width="610px" zoomAndPan="magnify"><defs></defs><g><!--class Logger--><g class="entity" data-entity="Logger" data-source-line="1" data-uid="ent0002" id="entity_Logger"><rect fill="#F1F1F1" height="67.1201" rx="2.5" ry="2.5" style="stroke:#181818;stroke-width:0.5;" width="180.8477" x="215" y="299.24"></rect><ellipse cx="279.3774" cy="315.24" fill="#B4A7E5" rx="11" ry="11" style="stroke:#181818;stroke-width:1;"></ellipse><path d="M275.9712,310.0213 L275.9712,309.0838 L281.8149,309.0838 L281.8149,310.0213 L280.0181,310.0213 Q279.8462,310.0213 279.7681,310.0838 Q279.6899,310.1463 279.6899,310.2869 L279.6899,319.7713 Q279.6899,319.9119 279.7681,319.9744 Q279.8462,320.0369 280.0181,320.0369 L281.8149,320.0369 L281.8149,320.9744 L275.9712,320.9744 L275.9712,320.0369 L277.7681,320.0369 Q277.9868,320.0369 278.0337,319.99 Q278.0962,319.9275 278.0962,319.7713 L278.0962,310.2869 Q278.0962,310.1306 278.0337,310.0838 Q277.9868,310.0213 277.7681,310.0213 L275.9712,310.0213 Z " fill="#000000"></path><text fill="#000000" font-family="sans-serif" font-size="14" font-style="italic" lengthAdjust="spacing" textLength="43.5928" x="299.8774" y="321.7239">Logger</text><line style="stroke:#181818;stroke-width:0.5;" x1="216" x2="394.8477" y1="331.24" y2="331.24"></line><line style="stroke:#181818;stroke-width:0.5;" x1="216" x2="394.8477" y1="339.24" y2="339.24"></line><ellipse cx="226" cy="354.3001" fill="#84BE84" rx="3" ry="3" style="stroke:#038048;stroke-width:1;"></ellipse><text fill="#000000" font-family="sans-serif" font-size="14" lengthAdjust="spacing" textLength="154.8477" x="235" y="359.2839">void log(String message)</text></g><!--class ConsoleLogger--><g class="entity" data-entity="ConsoleLogger" data-source-line="5" data-uid="ent0003" id="entity_ConsoleLogger"><rect fill="#F1F1F1" height="67.1201" rx="2.5" ry="2.5" style="stroke:#181818;stroke-width:0.5;" width="180.8477" x="7" y="153.12"></rect><ellipse cx="46.2503" cy="169.12" fill="#ADD1B2" rx="11" ry="11" style="stroke:#181818;stroke-width:1;"></ellipse><path d="M45.5941,174.9794 Q43.6097,174.9794 42.4378,173.5106 Q41.2816,172.0263 41.2816,168.9481 Q41.2816,166.3388 42.5003,164.5888 Q43.7347,162.8388 45.8597,162.8388 Q46.3597,162.8388 46.891,162.9794 Q47.3285,163.1669 47.5941,163.1669 Q47.8128,163.1669 47.9066,163.12 Q48.016,163.0731 48.4691,162.4794 L49.2347,166.2138 L48.3441,166.4794 Q47.891,165.0263 47.2816,164.4325 Q46.6878,163.8231 45.7347,163.8231 Q44.516,163.8231 43.7972,165.2606 Q43.0785,166.6825 43.0785,168.87 Q43.0785,171.2763 43.6878,172.5731 Q44.3128,173.8544 45.6722,173.8544 Q46.6253,173.8544 47.3128,173.1669 Q48.0003,172.4638 48.3285,170.9638 L49.2347,171.37 Q48.8285,173.0731 47.8597,174.0263 Q46.9066,174.9794 45.5941,174.9794 Z " fill="#000000"></path><text fill="#000000" font-family="sans-serif" font-size="14" lengthAdjust="spacing" textLength="94.958" x="65.6393" y="175.6039">ConsoleLogger</text><line style="stroke:#181818;stroke-width:0.5;" x1="8" x2="186.8477" y1="185.12" y2="185.12"></line><line style="stroke:#181818;stroke-width:0.5;" x1="8" x2="186.8477" y1="193.12" y2="193.12"></line><ellipse cx="18" cy="208.1801" fill="#84BE84" rx="3" ry="3" style="stroke:#038048;stroke-width:1;"></ellipse><text fill="#000000" font-family="sans-serif" font-size="14" lengthAdjust="spacing" textLength="154.8477" x="27" y="213.1639">void log(String message)</text></g><!--class FileLogger--><g class="entity" data-entity="FileLogger" data-source-line="9" data-uid="ent0004" id="entity_FileLogger"><rect fill="#F1F1F1" height="67.1201" rx="2.5" ry="2.5" style="stroke:#181818;stroke-width:0.5;" width="180.8477" x="423" y="153.12"></rect><ellipse cx="476.0981" cy="169.12" fill="#ADD1B2" rx="11" ry="11" style="stroke:#181818;stroke-width:1;"></ellipse><path d="M475.4419,174.9794 Q473.4575,174.9794 472.2856,173.5106 Q471.1294,172.0263 471.1294,168.9481 Q471.1294,166.3388 472.3481,164.5888 Q473.5825,162.8388 475.7075,162.8388 Q476.2075,162.8388 476.7388,162.9794 Q477.1763,163.1669 477.4419,163.1669 Q477.6606,163.1669 477.7544,163.12 Q477.8638,163.0731 478.3169,162.4794 L479.0825,166.2138 L478.1919,166.4794 Q477.7388,165.0263 477.1294,164.4325 Q476.5356,163.8231 475.5825,163.8231 Q474.3638,163.8231 473.645,165.2606 Q472.9263,166.6825 472.9263,168.87 Q472.9263,171.2763 473.5356,172.5731 Q474.1606,173.8544 475.52,173.8544 Q476.4731,173.8544 477.1606,173.1669 Q477.8481,172.4638 478.1763,170.9638 L479.0825,171.37 Q478.6763,173.0731 477.7075,174.0263 Q476.7544,174.9794 475.4419,174.9794 Z " fill="#000000"></path><text fill="#000000" font-family="sans-serif" font-size="14" lengthAdjust="spacing" textLength="66.1514" x="496.5981" y="175.6039">FileLogger</text><line style="stroke:#181818;stroke-width:0.5;" x1="424" x2="602.8477" y1="185.12" y2="185.12"></line><line style="stroke:#181818;stroke-width:0.5;" x1="424" x2="602.8477" y1="193.12" y2="193.12"></line><ellipse cx="434" cy="208.1801" fill="#84BE84" rx="3" ry="3" style="stroke:#038048;stroke-width:1;"></ellipse><text fill="#000000" font-family="sans-serif" font-size="14" lengthAdjust="spacing" textLength="154.8477" x="443" y="213.1639">void log(String message)</text></g><!--class LoggerFactory--><g class="entity" data-entity="LoggerFactory" data-source-line="15" data-uid="ent0005" id="entity_LoggerFactory"><rect fill="#F1F1F1" height="67.1201" rx="2.5" ry="2.5" style="stroke:#181818;stroke-width:0.5;" width="165.3096" x="222.77" y="153.12"></rect><ellipse cx="257.1385" cy="169.12" fill="#B4A7E5" rx="11" ry="11" style="stroke:#181818;stroke-width:1;"></ellipse><path d="M253.7322,163.9013 L253.7322,162.9638 L259.576,162.9638 L259.576,163.9013 L257.7791,163.9013 Q257.6072,163.9013 257.5291,163.9638 Q257.451,164.0263 257.451,164.1669 L257.451,173.6513 Q257.451,173.7919 257.5291,173.8544 Q257.6072,173.9169 257.7791,173.9169 L259.576,173.9169 L259.576,174.8544 L253.7322,174.8544 L253.7322,173.9169 L255.5291,173.9169 Q255.7478,173.9169 255.7947,173.87 Q255.8572,173.8075 255.8572,173.6513 L255.8572,164.1669 Q255.8572,164.0106 255.7947,163.9638 Q255.7478,163.9013 255.5291,163.9013 L253.7322,163.9013 Z " fill="#000000"></path><text fill="#000000" font-family="sans-serif" font-size="14" font-style="italic" lengthAdjust="spacing" textLength="90.2686" x="275.4426" y="175.6039">LoggerFactory</text><line style="stroke:#181818;stroke-width:0.5;" x1="223.77" x2="387.0796" y1="185.12" y2="185.12"></line><line style="stroke:#181818;stroke-width:0.5;" x1="223.77" x2="387.0796" y1="193.12" y2="193.12"></line><ellipse cx="233.77" cy="208.1801" fill="#84BE84" rx="3" ry="3" style="stroke:#038048;stroke-width:1;"></ellipse><text fill="#000000" font-family="sans-serif" font-size="14" lengthAdjust="spacing" textLength="139.3096" x="242.77" y="213.1639">Logger createLogger()</text></g><!--class ConsoleLoggerFactory--><g class="entity" data-entity="ConsoleLoggerFactory" data-source-line="19" data-uid="ent0006" id="entity_ConsoleLoggerFactory"><rect fill="#F1F1F1" height="67.1201" rx="2.5" ry="2.5" style="stroke:#181818;stroke-width:0.5;" width="173.6338" x="111.61" y="7"></rect><ellipse cx="126.61" cy="23" fill="#ADD1B2" rx="11" ry="11" style="stroke:#181818;stroke-width:1;"></ellipse><path d="M125.9538,28.8594 Q123.9694,28.8594 122.7975,27.3906 Q121.6413,25.9063 121.6413,22.8281 Q121.6413,20.2188 122.86,18.4688 Q124.0944,16.7188 126.2194,16.7188 Q126.7194,16.7188 127.2506,16.8594 Q127.6881,17.0469 127.9538,17.0469 Q128.1725,17.0469 128.2663,17 Q128.3756,16.9531 128.8288,16.3594 L129.5944,20.0938 L128.7038,20.3594 Q128.2506,18.9063 127.6413,18.3125 Q127.0475,17.7031 126.0944,17.7031 Q124.8756,17.7031 124.1569,19.1406 Q123.4381,20.5625 123.4381,22.75 Q123.4381,25.1563 124.0475,26.4531 Q124.6725,27.7344 126.0319,27.7344 Q126.985,27.7344 127.6725,27.0469 Q128.36,26.3438 128.6881,24.8438 L129.5944,25.25 Q129.1881,26.9531 128.2194,27.9063 Q127.2663,28.8594 125.9538,28.8594 Z " fill="#000000"></path><text fill="#000000" font-family="sans-serif" font-size="14" lengthAdjust="spacing" textLength="141.6338" x="140.61" y="29.4839">ConsoleLoggerFactory</text><line style="stroke:#181818;stroke-width:0.5;" x1="112.61" x2="284.2438" y1="39" y2="39"></line><line style="stroke:#181818;stroke-width:0.5;" x1="112.61" x2="284.2438" y1="47" y2="47"></line><ellipse cx="122.61" cy="62.0601" fill="#84BE84" rx="3" ry="3" style="stroke:#038048;stroke-width:1;"></ellipse><text fill="#000000" font-family="sans-serif" font-size="14" lengthAdjust="spacing" textLength="139.3096" x="131.61" y="67.0439">Logger createLogger()</text></g><!--class FileLoggerFactory--><g class="entity" data-entity="FileLoggerFactory" data-source-line="23" data-uid="ent0007" id="entity_FileLoggerFactory"><rect fill="#F1F1F1" height="67.1201" rx="2.5" ry="2.5" style="stroke:#181818;stroke-width:0.5;" width="165.3096" x="320.77" y="7"></rect><ellipse cx="344.9871" cy="23" fill="#ADD1B2" rx="11" ry="11" style="stroke:#181818;stroke-width:1;"></ellipse><path d="M344.3308,28.8594 Q342.3465,28.8594 341.1746,27.3906 Q340.0183,25.9063 340.0183,22.8281 Q340.0183,20.2188 341.2371,18.4688 Q342.4715,16.7188 344.5965,16.7188 Q345.0965,16.7188 345.6277,16.8594 Q346.0652,17.0469 346.3308,17.0469 Q346.5496,17.0469 346.6433,17 Q346.7527,16.9531 347.2058,16.3594 L347.9715,20.0938 L347.0808,20.3594 Q346.6277,18.9063 346.0183,18.3125 Q345.4246,17.7031 344.4715,17.7031 Q343.2527,17.7031 342.534,19.1406 Q341.8152,20.5625 341.8152,22.75 Q341.8152,25.1563 342.4246,26.4531 Q343.0496,27.7344 344.409,27.7344 Q345.3621,27.7344 346.0496,27.0469 Q346.7371,26.3438 347.0652,24.8438 L347.9715,25.25 Q347.5652,26.9531 346.5965,27.9063 Q345.6433,28.8594 344.3308,28.8594 Z " fill="#000000"></path><text fill="#000000" font-family="sans-serif" font-size="14" lengthAdjust="spacing" textLength="112.8271" x="361.0353" y="29.4839">FileLoggerFactory</text><line style="stroke:#181818;stroke-width:0.5;" x1="321.77" x2="485.0796" y1="39" y2="39"></line><line style="stroke:#181818;stroke-width:0.5;" x1="321.77" x2="485.0796" y1="47" y2="47"></line><ellipse cx="331.77" cy="62.0601" fill="#84BE84" rx="3" ry="3" style="stroke:#038048;stroke-width:1;"></ellipse><text fill="#000000" font-family="sans-serif" font-size="14" lengthAdjust="spacing" textLength="139.3096" x="340.77" y="67.0439">Logger createLogger()</text></g><!--link ConsoleLogger to Logger--><g class="link" data-entity-1="ConsoleLogger" data-entity-2="Logger" data-source-line="28" data-uid="lnk8" id="link_ConsoleLogger_Logger"><path codeline="28" d="M144.88,220.56 C178.69,243.99 209.1637,265.1097 243.0137,288.5597" fill="none" id="ConsoleLogger-to-Logger" style="stroke:#181818;stroke-width:1;stroke-dasharray:7,7;"></path><polygon fill="none" points="257.81,298.81,246.4305,283.6276,239.5969,293.4918,257.81,298.81" style="stroke:#181818;stroke-width:1;"></polygon><text fill="#000000" font-family="sans-serif" font-size="13" lengthAdjust="spacing" textLength="66.4663" x="214.88" y="266.1379">implements</text></g><!--link FileLogger to Logger--><g class="link" data-entity-1="FileLogger" data-entity-2="Logger" data-source-line="29" data-uid="lnk9" id="link_FileLogger_Logger"><path codeline="29" d="M465.97,220.56 C432.15,243.99 401.6863,265.1097 367.8363,288.5597" fill="none" id="FileLogger-to-Logger" style="stroke:#181818;stroke-width:1;stroke-dasharray:7,7;"></path><polygon fill="none" points="353.04,298.81,371.2531,293.4918,364.4195,283.6276,353.04,298.81" style="stroke:#181818;stroke-width:1;"></polygon><text fill="#000000" font-family="sans-serif" font-size="13" lengthAdjust="spacing" textLength="66.4663" x="422.88" y="266.1379">implements</text></g><!--link ConsoleLoggerFactory to LoggerFactory--><g class="link" data-entity-1="ConsoleLoggerFactory" data-entity-2="LoggerFactory" data-source-line="31" data-uid="lnk10" id="link_ConsoleLoggerFactory_LoggerFactory"><path codeline="31" d="M222.7,74.26 C240.21,97.85 253.0208,115.0972 270.5108,138.6572" fill="none" id="ConsoleLoggerFactory-to-LoggerFactory" style="stroke:#181818;stroke-width:1;stroke-dasharray:7,7;"></path><polygon fill="none" points="281.24,153.11,275.3284,135.0808,265.6932,142.2336,281.24,153.11" style="stroke:#181818;stroke-width:1;"></polygon><text fill="#000000" font-family="sans-serif" font-size="13" lengthAdjust="spacing" textLength="66.4663" x="259.33" y="120.0179">implements</text></g><!--link FileLoggerFactory to LoggerFactory--><g class="link" data-entity-1="FileLoggerFactory" data-entity-2="LoggerFactory" data-source-line="32" data-uid="lnk11" id="link_FileLoggerFactory_LoggerFactory"><path codeline="32" d="M381.19,74.26 C365.15,97.85 353.7112,114.6651 337.6912,138.2251" fill="none" id="FileLoggerFactory-to-LoggerFactory" style="stroke:#181818;stroke-width:1;stroke-dasharray:7,7;"></path><polygon fill="none" points="327.57,153.11,342.6529,141.5988,332.7296,134.8513,327.57,153.11" style="stroke:#181818;stroke-width:1;"></polygon><text fill="#000000" font-family="sans-serif" font-size="13" lengthAdjust="spacing" textLength="66.4663" x="361.29" y="120.0179">implements</text></g><!--link ConsoleLoggerFactory to ConsoleLogger--><g class="link" data-entity-1="ConsoleLoggerFactory" data-entity-2="ConsoleLogger" data-source-line="34" data-uid="lnk12" id="link_ConsoleLoggerFactory_ConsoleLogger"><path codeline="34" d="M168.72,74.48 C160.82,83.8 152.51,94.14 145.42,104.12 C134.49,119.53 126.6423,132.3266 118.0623,147.5066" fill="none" id="ConsoleLoggerFactory-to-ConsoleLogger" style="stroke:#181818;stroke-width:1;stroke-dasharray:7,7;"></path><polygon fill="#181818" points="115.11,152.73,123.0208,146.8632,117.5703,148.3772,116.0563,142.9267,115.11,152.73" style="stroke:#181818;stroke-width:1;"></polygon><text fill="#000000" font-family="sans-serif" font-size="13" lengthAdjust="spacing" textLength="57.0908" x="146.42" y="120.0179">«creates»</text></g><!--link FileLoggerFactory to FileLogger--><g class="link" data-entity-1="FileLoggerFactory" data-entity-2="FileLogger" data-source-line="35" data-uid="lnk13" id="link_FileLoggerFactory_FileLogger"><path codeline="35" d="M428.38,74.26 C446.39,97.85 466.94,124.7803 484.92,148.3403" fill="none" id="FileLoggerFactory-to-FileLogger" style="stroke:#181818;stroke-width:1;stroke-dasharray:7,7;"></path><polygon fill="#181818" points="488.56,153.11,486.2797,143.5287,485.5266,149.1352,479.9201,148.3821,488.56,153.11" style="stroke:#181818;stroke-width:1;"></polygon><text fill="#000000" font-family="sans-serif" font-size="13" lengthAdjust="spacing" textLength="57.0908" x="466.01" y="120.0179">«creates»</text></g><!--SRC=[bP3D2i8m48JFxbFiiIBq0Kh9HUZ9cqyGuXe2-P5i44HzTv46saW3yRhCDpCxnYUALwa8Jq5hYa_O7Ux1ND06tPrJD5wZ8sQfQGzl06KbCnw3vs3f7sGohNe0yrDgaYg5-FY2ym5L99coNrShreujvLeOA5AmxryY5ntGk9ibHpunBAPL2MprNQlpgUBR2DHIH3dNWECuFyj2RAQ8rL25-WC0]--></g></svg>