<svg xmlns="http://www.w3.org/2000/svg" xmlns:xlink="http://www.w3.org/1999/xlink" contentstyletype="text/css" data-diagram-type="CLASS" height="354px" preserveAspectRatio="none" style="width:366px;height:354px;background:#FFFFFF;" version="1.1" viewBox="0 0 366 354" width="366px" zoomAndPan="magnify"><defs></defs><g><!--class Product--><g class="entity" data-entity="Product" data-source-line="2" data-uid="ent0002" id="entity_Product"><rect fill="#F1F1F1" height="48" rx="2.5" ry="2.5" style="stroke:#181818;stroke-width:0.5;" width="80.248" x="35.4" y="299.24"></rect><ellipse cx="50.4" cy="315.24" fill="#B4A7E5" rx="11" ry="11" style="stroke:#181818;stroke-width:1;"></ellipse><path d="M46.9938,310.0213 L46.9938,309.0838 L52.8375,309.0838 L52.8375,310.0213 L51.0406,310.0213 Q50.8688,310.0213 50.7906,310.0838 Q50.7125,310.1463 50.7125,310.2869 L50.7125,319.7713 Q50.7125,319.9119 50.7906,319.9744 Q50.8688,320.0369 51.0406,320.0369 L52.8375,320.0369 L52.8375,320.9744 L46.9938,320.9744 L46.9938,320.0369 L48.7906,320.0369 Q49.0094,320.0369 49.0563,319.99 Q49.1188,319.9275 49.1188,319.7713 L49.1188,310.2869 Q49.1188,310.1306 49.0563,310.0838 Q49.0094,310.0213 48.7906,310.0213 L46.9938,310.0213 Z " fill="#000000"></path><text fill="#000000" font-family="sans-serif" font-size="14" font-style="italic" lengthAdjust="spacing" textLength="48.248" x="64.4" y="321.7239">Product</text><line style="stroke:#181818;stroke-width:0.5;" x1="36.4" x2="114.648" y1="331.24" y2="331.24"></line><line style="stroke:#181818;stroke-width:0.5;" x1="36.4" x2="114.648" y1="339.24" y2="339.24"></line></g><!--class ConcreteProduct--><g class="entity" data-entity="ConcreteProduct" data-source-line="5" data-uid="ent0003" id="entity_ConcreteProduct"><rect fill="#F1F1F1" height="48" rx="2.5" ry="2.5" style="stroke:#181818;stroke-width:0.5;" width="137.0547" x="7" y="162.68"></rect><ellipse cx="22" cy="178.68" fill="#ADD1B2" rx="11" ry="11" style="stroke:#181818;stroke-width:1;"></ellipse><path d="M21.3438,184.5394 Q19.3594,184.5394 18.1875,183.0706 Q17.0313,181.5863 17.0313,178.5081 Q17.0313,175.8988 18.25,174.1488 Q19.4844,172.3988 21.6094,172.3988 Q22.1094,172.3988 22.6406,172.5394 Q23.0781,172.7269 23.3438,172.7269 Q23.5625,172.7269 23.6563,172.68 Q23.7656,172.6331 24.2188,172.0394 L24.9844,175.7738 L24.0938,176.0394 Q23.6406,174.5863 23.0313,173.9925 Q22.4375,173.3831 21.4844,173.3831 Q20.2656,173.3831 19.5469,174.8206 Q18.8281,176.2425 18.8281,178.43 Q18.8281,180.8363 19.4375,182.1331 Q20.0625,183.4144 21.4219,183.4144 Q22.375,183.4144 23.0625,182.7269 Q23.75,182.0238 24.0781,180.5238 L24.9844,180.93 Q24.5781,182.6331 23.6094,183.5863 Q22.6563,184.5394 21.3438,184.5394 Z " fill="#000000"></path><text fill="#000000" font-family="sans-serif" font-size="14" lengthAdjust="spacing" textLength="105.0547" x="36" y="185.1639">ConcreteProduct</text><line style="stroke:#181818;stroke-width:0.5;" x1="8" x2="143.0547" y1="194.68" y2="194.68"></line><line style="stroke:#181818;stroke-width:0.5;" x1="8" x2="143.0547" y1="202.68" y2="202.68"></line></g><!--class Factory--><g class="entity" data-entity="Factory" data-source-line="8" data-uid="ent0004" id="entity_Factory"><rect fill="#F1F1F1" height="67.1201" rx="2.5" ry="2.5" style="stroke:#181818;stroke-width:0.5;" width="180.0615" x="179.5" y="153.12"></rect><ellipse cx="241.9429" cy="169.12" fill="#B4A7E5" rx="11" ry="11" style="stroke:#181818;stroke-width:1;"></ellipse><path d="M238.5366,163.9013 L238.5366,162.9638 L244.3804,162.9638 L244.3804,163.9013 L242.5835,163.9013 Q242.4116,163.9013 242.3335,163.9638 Q242.2554,164.0263 242.2554,164.1669 L242.2554,173.6513 Q242.2554,173.7919 242.3335,173.8544 Q242.4116,173.9169 242.5835,173.9169 L244.3804,173.9169 L244.3804,174.8544 L238.5366,174.8544 L238.5366,173.9169 L240.3335,173.9169 Q240.5522,173.9169 240.5991,173.87 Q240.6616,173.8075 240.6616,173.6513 L240.6616,164.1669 Q240.6616,164.0106 240.5991,163.9638 Q240.5522,163.9013 240.3335,163.9013 L238.5366,163.9013 Z " fill="#000000"></path><text fill="#000000" font-family="sans-serif" font-size="14" font-style="italic" lengthAdjust="spacing" textLength="46.6758" x="262.4429" y="175.6039">Factory</text><line style="stroke:#181818;stroke-width:0.5;" x1="180.5" x2="358.5615" y1="185.12" y2="185.12"></line><line style="stroke:#181818;stroke-width:0.5;" x1="180.5" x2="358.5615" y1="193.12" y2="193.12"></line><ellipse cx="190.5" cy="208.1801" fill="#84BE84" rx="3" ry="3" style="stroke:#038048;stroke-width:1;"></ellipse><text fill="#000000" font-family="sans-serif" font-size="14" lengthAdjust="spacing" textLength="154.0615" x="199.5" y="213.1639">factoryMethod(): Product</text></g><!--class ConcreteFactory--><g class="entity" data-entity="ConcreteFactory" data-source-line="12" data-uid="ent0005" id="entity_ConcreteFactory"><rect fill="#F1F1F1" height="67.1201" rx="2.5" ry="2.5" style="stroke:#181818;stroke-width:0.5;" width="180.0615" x="82.5" y="7"></rect><ellipse cx="117.5606" cy="23" fill="#ADD1B2" rx="11" ry="11" style="stroke:#181818;stroke-width:1;"></ellipse><path d="M116.9043,28.8594 Q114.92,28.8594 113.7481,27.3906 Q112.5918,25.9063 112.5918,22.8281 Q112.5918,20.2188 113.8106,18.4688 Q115.045,16.7188 117.17,16.7188 Q117.67,16.7188 118.2012,16.8594 Q118.6387,17.0469 118.9043,17.0469 Q119.1231,17.0469 119.2168,17 Q119.3262,16.9531 119.7793,16.3594 L120.545,20.0938 L119.6543,20.3594 Q119.2012,18.9063 118.5918,18.3125 Q117.9981,17.7031 117.045,17.7031 Q115.8262,17.7031 115.1075,19.1406 Q114.3887,20.5625 114.3887,22.75 Q114.3887,25.1563 114.9981,26.4531 Q115.6231,27.7344 116.9825,27.7344 Q117.9356,27.7344 118.6231,27.0469 Q119.3106,26.3438 119.6387,24.8438 L120.545,25.25 Q120.1387,26.9531 119.17,27.9063 Q118.2168,28.8594 116.9043,28.8594 Z " fill="#000000"></path><text fill="#000000" font-family="sans-serif" font-size="14" lengthAdjust="spacing" textLength="103.4824" x="136.0185" y="29.4839">ConcreteFactory</text><line style="stroke:#181818;stroke-width:0.5;" x1="83.5" x2="261.5615" y1="39" y2="39"></line><line style="stroke:#181818;stroke-width:0.5;" x1="83.5" x2="261.5615" y1="47" y2="47"></line><ellipse cx="93.5" cy="62.0601" fill="#84BE84" rx="3" ry="3" style="stroke:#038048;stroke-width:1;"></ellipse><text fill="#000000" font-family="sans-serif" font-size="14" lengthAdjust="spacing" textLength="154.0615" x="102.5" y="67.0439">factoryMethod(): Product</text></g><!--link ConcreteProduct to Product--><g class="link" data-entity-1="ConcreteProduct" data-entity-2="Product" data-source-line="16" data-uid="lnk6" id="link_ConcreteProduct_Product"><path codeline="16" d="M75.53,211.12 C75.53,235.82 75.53,256.47 75.53,281.07" fill="none" id="ConcreteProduct-to-Product" style="stroke:#181818;stroke-width:1;stroke-dasharray:7,7;"></path><polygon fill="none" points="75.53,299.07,81.53,281.07,69.53,281.07,75.53,299.07" style="stroke:#181818;stroke-width:1;"></polygon><text fill="#000000" font-family="sans-serif" font-size="13" lengthAdjust="spacing" textLength="59.9663" x="76.53" y="266.1379">implement</text></g><!--link ConcreteFactory to Factory--><g class="link" data-entity-1="ConcreteFactory" data-entity-2="Factory" data-source-line="17" data-uid="lnk7" id="link_ConcreteFactory_Factory"><path codeline="17" d="M194.54,74.26 C210.41,97.85 221.7026,114.6152 237.5526,138.1752" fill="none" id="ConcreteFactory-to-Factory" style="stroke:#181818;stroke-width:1;stroke-dasharray:7,7;"></path><polygon fill="none" points="247.6,153.11,242.5309,134.826,232.5743,141.5243,247.6,153.11" style="stroke:#181818;stroke-width:1;"></polygon><text fill="#000000" font-family="sans-serif" font-size="13" lengthAdjust="spacing" textLength="59.9663" x="227.83" y="120.0179">implement</text></g><!--link ConcreteFactory to ConcreteProduct--><g class="link" data-entity-1="ConcreteFactory" data-entity-2="ConcreteProduct" data-source-line="18" data-uid="lnk8" id="link_ConcreteFactory_ConcreteProduct"><path codeline="18" d="M150.52,74.26 C132.41,101.17 110.5403,133.6625 94.4603,157.5525" fill="none" id="ConcreteFactory-to-ConcreteProduct" style="stroke:#181818;stroke-width:1;stroke-dasharray:7,7;"></path><polygon fill="#181818" points="91.11,162.53,99.4538,157.2973,93.9019,158.3821,92.8171,152.8302,91.11,162.53" style="stroke:#181818;stroke-width:1;"></polygon><text fill="#000000" font-family="sans-serif" font-size="13" lengthAdjust="spacing" textLength="57.0908" x="130.83" y="120.0179">«creates»</text></g><!--SRC=[bL1TQuCm57tFhxYFofYej8E5uaDTrz7LKcRNFMTwjG6Rb7WLzlNV5siTesECGG8vEH_tSAKYD8N84DP6vqr6RmpWmrvxiahKDSHQPGO9V_BootihCjBcfUCkYlwT8ErqxhXy2Fujzt_UipRWUU_HeE8WzuSAzwZec_AKtojFu2zbT3w7msHYiI2ieuW1O-jAA7fCbj2YgQLM47YX7uwzm7UUC8ULRi4VWn_mqEUZQuZJ3NIyovpvUWcrRenTMovhClAv8HlWieLe1JmqYkGUENJ8sIGkfBFX4sQgbKQhO-t5Dkb5SASfFMWwYgz6brD9aAAnlM2Ri1iiH5EHjMOwbwhaC9_UiwLGPIDAE-Prns9juxkTnAjF]--></g></svg>