<svg xmlns="http://www.w3.org/2000/svg" xmlns:xlink="http://www.w3.org/1999/xlink" contentstyletype="text/css" data-diagram-type="CLASS" height="411px" preserveAspectRatio="none" style="width:661px;height:411px;background:#FFFFFF;" version="1.1" viewBox="0 0 661 411" width="661px" zoomAndPan="magnify"><defs></defs><g><!--class Abstraction--><g class="entity" data-entity="Abstraction" data-source-line="1" data-uid="ent0002" id="entity_Abstraction"><rect fill="#F1F1F1" height="105.3604" rx="2.5" ry="2.5" style="stroke:#181818;stroke-width:0.5;" width="225.165" x="429.39" y="153.12"></rect><ellipse cx="502.7054" cy="169.12" fill="#A9DCDF" rx="11" ry="11" style="stroke:#181818;stroke-width:1;"></ellipse><path d="M503.1273,169.6044 L500.5648,169.6044 L500.0336,171.9013 Q499.9711,172.2294 499.9711,172.3856 Q499.9711,172.6044 500.0179,172.7606 Q500.0804,172.9169 500.3617,172.9169 L500.8304,172.9169 L500.8304,173.8544 L497.8461,173.8544 L497.8461,172.9169 L498.2992,172.9169 Q498.4711,172.9169 498.5961,172.8231 Q498.7211,172.7138 498.7679,172.4169 L501.4086,162.0888 L502.8148,161.62 L505.3929,172.3856 Q505.5023,172.6981 505.6273,172.8075 Q505.7679,172.9169 505.9398,172.9169 L506.4086,172.9169 L506.4086,173.8544 L503.0179,173.8544 L503.0179,172.9169 L503.5492,172.9169 Q503.7679,172.9169 503.7836,172.87 Q503.8148,172.8075 503.8148,172.7294 Q503.8148,172.5106 503.7679,172.3231 L503.1273,169.6044 Z M498.5648,173.4481 L498.5648,173.4481 Z M499.2367,173.4481 L499.2367,173.4481 Z M503.9554,173.4481 L503.9554,173.4481 Z M505.0804,173.4481 L505.0804,173.4481 Z M501.8929,163.5106 L501.9554,163.5106 L500.8461,168.6669 L502.9398,168.6669 L501.8929,163.5106 Z " fill="#000000"></path><text fill="#000000" font-family="sans-serif" font-size="14" font-style="italic" lengthAdjust="spacing" textLength="70.0342" x="523.2054" y="175.6039">Abstraction</text><line style="stroke:#181818;stroke-width:0.5;" x1="430.39" x2="653.555" y1="185.12" y2="185.12"></line><polygon fill="none" points="440.39,195.1801,444.39,199.1801,440.39,203.1801,436.39,199.1801" style="stroke:#B38D22;stroke-width:1;"></polygon><text fill="#000000" font-family="sans-serif" font-size="14" lengthAdjust="spacing" textLength="111.2549" x="449.39" y="205.1639">impl: Implementor</text><line style="stroke:#181818;stroke-width:0.5;" x1="430.39" x2="653.555" y1="212.2401" y2="212.2401"></line><ellipse cx="440.39" cy="227.3002" fill="#84BE84" rx="3" ry="3" style="stroke:#038048;stroke-width:1;"></ellipse><text fill="#000000" font-family="sans-serif" font-size="14" lengthAdjust="spacing" textLength="101.165" x="449.39" y="232.2841">operation(): void</text><ellipse cx="440.39" cy="246.4203" fill="#84BE84" rx="3" ry="3" style="stroke:#038048;stroke-width:1;"></ellipse><text fill="#000000" font-family="sans-serif" font-size="14" lengthAdjust="spacing" textLength="199.165" x="449.39" y="251.4042">setImpl(impl: Implementor): void</text></g><!--class RefinedAbstraction--><g class="entity" data-entity="RefinedAbstraction" data-source-line="7" data-uid="ent0003" id="entity_RefinedAbstraction"><rect fill="#F1F1F1" height="67.1201" rx="2.5" ry="2.5" style="stroke:#181818;stroke-width:0.5;" width="150.2891" x="466.83" y="7"></rect><ellipse cx="481.83" cy="23" fill="#ADD1B2" rx="11" ry="11" style="stroke:#181818;stroke-width:1;"></ellipse><path d="M481.1738,28.8594 Q479.1894,28.8594 478.0175,27.3906 Q476.8613,25.9063 476.8613,22.8281 Q476.8613,20.2188 478.08,18.4688 Q479.3144,16.7188 481.4394,16.7188 Q481.9394,16.7188 482.4706,16.8594 Q482.9081,17.0469 483.1738,17.0469 Q483.3925,17.0469 483.4863,17 Q483.5956,16.9531 484.0488,16.3594 L484.8144,20.0938 L483.9238,20.3594 Q483.4706,18.9063 482.8613,18.3125 Q482.2675,17.7031 481.3144,17.7031 Q480.0956,17.7031 479.3769,19.1406 Q478.6581,20.5625 478.6581,22.75 Q478.6581,25.1563 479.2675,26.4531 Q479.8925,27.7344 481.2519,27.7344 Q482.205,27.7344 482.8925,27.0469 Q483.58,26.3438 483.9081,24.8438 L484.8144,25.25 Q484.4081,26.9531 483.4394,27.9063 Q482.4863,28.8594 481.1738,28.8594 Z " fill="#000000"></path><text fill="#000000" font-family="sans-serif" font-size="14" lengthAdjust="spacing" textLength="118.2891" x="495.83" y="29.4839">RefinedAbstraction</text><line style="stroke:#181818;stroke-width:0.5;" x1="467.83" x2="616.1191" y1="39" y2="39"></line><line style="stroke:#181818;stroke-width:0.5;" x1="467.83" x2="616.1191" y1="47" y2="47"></line><ellipse cx="477.83" cy="62.0601" fill="#84BE84" rx="3" ry="3" style="stroke:#038048;stroke-width:1;"></ellipse><text fill="#000000" font-family="sans-serif" font-size="14" lengthAdjust="spacing" textLength="101.165" x="486.83" y="67.0439">operation(): void</text></g><!--class Implementor--><g class="entity" data-entity="Implementor" data-source-line="11" data-uid="ent0004" id="entity_Implementor"><rect fill="#F1F1F1" height="67.1201" rx="2.5" ry="2.5" style="stroke:#181818;stroke-width:0.5;" width="153.6133" x="229.17" y="337.48"></rect><ellipse cx="263.883" cy="353.48" fill="#B4A7E5" rx="11" ry="11" style="stroke:#181818;stroke-width:1;"></ellipse><path d="M260.4767,348.2613 L260.4767,347.3238 L266.3205,347.3238 L266.3205,348.2613 L264.5236,348.2613 Q264.3517,348.2613 264.2736,348.3238 Q264.1955,348.3863 264.1955,348.5269 L264.1955,358.0113 Q264.1955,358.1519 264.2736,358.2144 Q264.3517,358.2769 264.5236,358.2769 L266.3205,358.2769 L266.3205,359.2144 L260.4767,359.2144 L260.4767,358.2769 L262.2736,358.2769 Q262.4924,358.2769 262.5392,358.23 Q262.6017,358.1675 262.6017,358.0113 L262.6017,348.5269 Q262.6017,348.3706 262.5392,348.3238 Q262.4924,348.2613 262.2736,348.2613 L260.4767,348.2613 Z " fill="#000000"></path><text fill="#000000" font-family="sans-serif" font-size="14" font-style="italic" lengthAdjust="spacing" textLength="77.8066" x="282.2637" y="359.9639">Implementor</text><line style="stroke:#181818;stroke-width:0.5;" x1="230.17" x2="381.7833" y1="369.48" y2="369.48"></line><line style="stroke:#181818;stroke-width:0.5;" x1="230.17" x2="381.7833" y1="377.48" y2="377.48"></line><ellipse cx="240.17" cy="392.5401" fill="#84BE84" rx="3" ry="3" style="stroke:#038048;stroke-width:1;"></ellipse><text fill="#000000" font-family="sans-serif" font-size="14" lengthAdjust="spacing" textLength="127.6133" x="249.17" y="397.5239">operationImpl(): void</text></g><!--class ConcreteImplementorA--><g class="entity" data-entity="ConcreteImplementorA" data-source-line="15" data-uid="ent0005" id="entity_ConcreteImplementorA"><rect fill="#F1F1F1" height="67.1201" rx="2.5" ry="2.5" style="stroke:#181818;stroke-width:0.5;" width="175.9512" x="7" y="172.24"></rect><ellipse cx="22" cy="188.24" fill="#ADD1B2" rx="11" ry="11" style="stroke:#181818;stroke-width:1;"></ellipse><path d="M21.3438,194.0994 Q19.3594,194.0994 18.1875,192.6306 Q17.0313,191.1463 17.0313,188.0681 Q17.0313,185.4588 18.25,183.7088 Q19.4844,181.9588 21.6094,181.9588 Q22.1094,181.9588 22.6406,182.0994 Q23.0781,182.2869 23.3438,182.2869 Q23.5625,182.2869 23.6563,182.24 Q23.7656,182.1931 24.2188,181.5994 L24.9844,185.3338 L24.0938,185.5994 Q23.6406,184.1463 23.0313,183.5525 Q22.4375,182.9431 21.4844,182.9431 Q20.2656,182.9431 19.5469,184.3806 Q18.8281,185.8025 18.8281,187.99 Q18.8281,190.3963 19.4375,191.6931 Q20.0625,192.9744 21.4219,192.9744 Q22.375,192.9744 23.0625,192.2869 Q23.75,191.5838 24.0781,190.0838 L24.9844,190.49 Q24.5781,192.1931 23.6094,193.1463 Q22.6563,194.0994 21.3438,194.0994 Z " fill="#000000"></path><text fill="#000000" font-family="sans-serif" font-size="14" lengthAdjust="spacing" textLength="143.9512" x="36" y="194.7239">ConcreteImplementorA</text><line style="stroke:#181818;stroke-width:0.5;" x1="8" x2="181.9512" y1="204.24" y2="204.24"></line><line style="stroke:#181818;stroke-width:0.5;" x1="8" x2="181.9512" y1="212.24" y2="212.24"></line><ellipse cx="18" cy="227.3001" fill="#84BE84" rx="3" ry="3" style="stroke:#038048;stroke-width:1;"></ellipse><text fill="#000000" font-family="sans-serif" font-size="14" lengthAdjust="spacing" textLength="127.6133" x="27" y="232.2839">operationImpl(): void</text></g><!--class ConcreteImplementorB--><g class="entity" data-entity="ConcreteImplementorB" data-source-line="19" data-uid="ent0006" id="entity_ConcreteImplementorB"><rect fill="#F1F1F1" height="67.1201" rx="2.5" ry="2.5" style="stroke:#181818;stroke-width:0.5;" width="175.9512" x="218" y="172.24"></rect><ellipse cx="233" cy="188.24" fill="#ADD1B2" rx="11" ry="11" style="stroke:#181818;stroke-width:1;"></ellipse><path d="M232.3438,194.0994 Q230.3594,194.0994 229.1875,192.6306 Q228.0313,191.1463 228.0313,188.0681 Q228.0313,185.4588 229.25,183.7088 Q230.4844,181.9588 232.6094,181.9588 Q233.1094,181.9588 233.6406,182.0994 Q234.0781,182.2869 234.3438,182.2869 Q234.5625,182.2869 234.6563,182.24 Q234.7656,182.1931 235.2188,181.5994 L235.9844,185.3338 L235.0938,185.5994 Q234.6406,184.1463 234.0313,183.5525 Q233.4375,182.9431 232.4844,182.9431 Q231.2656,182.9431 230.5469,184.3806 Q229.8281,185.8025 229.8281,187.99 Q229.8281,190.3963 230.4375,191.6931 Q231.0625,192.9744 232.4219,192.9744 Q233.375,192.9744 234.0625,192.2869 Q234.75,191.5838 235.0781,190.0838 L235.9844,190.49 Q235.5781,192.1931 234.6094,193.1463 Q233.6563,194.0994 232.3438,194.0994 Z " fill="#000000"></path><text fill="#000000" font-family="sans-serif" font-size="14" lengthAdjust="spacing" textLength="143.9512" x="247" y="194.7239">ConcreteImplementorB</text><line style="stroke:#181818;stroke-width:0.5;" x1="219" x2="392.9512" y1="204.24" y2="204.24"></line><line style="stroke:#181818;stroke-width:0.5;" x1="219" x2="392.9512" y1="212.24" y2="212.24"></line><ellipse cx="229" cy="227.3001" fill="#84BE84" rx="3" ry="3" style="stroke:#038048;stroke-width:1;"></ellipse><text fill="#000000" font-family="sans-serif" font-size="14" lengthAdjust="spacing" textLength="127.6133" x="238" y="232.2839">operationImpl(): void</text></g><!--link Abstraction to Implementor--><g class="link" data-entity-1="Abstraction" data-entity-2="Implementor" data-source-line="23" data-uid="lnk7" id="link_Abstraction_Implementor"><path codeline="23" d="M456.7815,265.7273 C419.6915,291.3873 390.8949,311.3073 358.4749,333.7273" fill="none" id="Abstraction-Implementor" style="stroke:#181818;stroke-width:1;"></path><polygon fill="none" points="466.65,258.9,459.44,259.0242,456.7815,265.7273,463.9915,265.6032,466.65,258.9" style="stroke:#181818;stroke-width:1;"></polygon><polygon fill="#181818" points="353.54,337.14,363.2175,335.3108,357.6524,334.2961,358.6672,328.731,353.54,337.14" style="stroke:#181818;stroke-width:1;"></polygon><text fill="#000000" font-family="sans-serif" font-size="13" lengthAdjust="spacing" textLength="69.3672" x="417.9" y="304.3779">composition</text></g><!--link RefinedAbstraction to Abstraction--><g class="link" data-entity-1="RefinedAbstraction" data-entity-2="Abstraction" data-source-line="24" data-uid="lnk8" id="link_RefinedAbstraction_Abstraction"><path codeline="24" d="M541.98,74.59 C541.98,97.05 541.98,109.21 541.98,134.85" fill="none" id="RefinedAbstraction-to-Abstraction" style="stroke:#181818;stroke-width:1;"></path><polygon fill="none" points="541.98,152.85,547.98,134.85,535.98,134.85,541.98,152.85" style="stroke:#181818;stroke-width:1;"></polygon><text fill="#000000" font-family="sans-serif" font-size="13" lengthAdjust="spacing" textLength="45.5317" x="542.98" y="120.0179">extends</text></g><!--link ConcreteImplementorA to Implementor--><g class="link" data-entity-1="ConcreteImplementorA" data-entity-2="Implementor" data-source-line="25" data-uid="lnk9" id="link_ConcreteImplementorA_Implementor"><path codeline="25" d="M137.67,239.83 C174.28,268.16 212.5117,297.7376 249.1017,326.0376" fill="none" id="ConcreteImplementorA-to-Implementor" style="stroke:#181818;stroke-width:1;stroke-dasharray:7,7;"></path><polygon fill="none" points="263.34,337.05,252.7725,321.2915,245.431,330.7837,263.34,337.05" style="stroke:#181818;stroke-width:1;"></polygon><text fill="#000000" font-family="sans-serif" font-size="13" lengthAdjust="spacing" textLength="66.4663" x="220.37" y="304.3779">implements</text></g><!--link ConcreteImplementorB to Implementor--><g class="link" data-entity-1="ConcreteImplementorB" data-entity-2="Implementor" data-source-line="26" data-uid="lnk10" id="link_ConcreteImplementorB_Implementor"><path codeline="26" d="M305.98,239.83 C305.98,268.16 305.98,290.75 305.98,319.05" fill="none" id="ConcreteImplementorB-to-Implementor" style="stroke:#181818;stroke-width:1;stroke-dasharray:7,7;"></path><polygon fill="none" points="305.98,337.05,311.98,319.05,299.98,319.05,305.98,337.05" style="stroke:#181818;stroke-width:1;"></polygon><text fill="#000000" font-family="sans-serif" font-size="13" lengthAdjust="spacing" textLength="66.4663" x="306.98" y="304.3779">implements</text></g><!--SRC=[dP312eCm38RFzYa2kpX6VO0U1Drfrxr1LoC4j96so63ktQVRX6wAWrq2Vv8lVn9zyS5f4y0qsdietfBOtaHou0wTdaIwLz0pLIBPKTir2avZn1PjO3VsUGnJ8btKPkmknClWZ3LPh7xwZ03PWAxM1kE17zrFpuN5aQrn632YYl-mSXEBRW2MCe_NL62uxTZJL1NBeq7A8O-_hG2l0MtbnThwa6N3rtoQnIfHRXBm0000]--></g></svg>