<svg xmlns="http://www.w3.org/2000/svg" xmlns:xlink="http://www.w3.org/1999/xlink" contentstyletype="text/css" data-diagram-type="CLASS" height="411px" preserveAspectRatio="none" style="width:1333px;height:411px;background:#FFFFFF;" version="1.1" viewBox="0 0 1333 411" width="1333px" zoomAndPan="magnify"><defs></defs><g><!--class Pen--><g class="entity" data-entity="Pen" data-source-line="1" data-uid="ent0002" id="entity_Pen"><rect fill="#F1F1F1" height="105.3604" rx="2.5" ry="2.5" style="stroke:#181818;stroke-width:0.5;" width="192.4961" x="945.21" y="153.12"></rect><ellipse cx="1024.753" cy="169.12" fill="#A9DCDF" rx="11" ry="11" style="stroke:#181818;stroke-width:1;"></ellipse><path d="M1025.1748,169.6044 L1022.6123,169.6044 L1022.0811,171.9013 Q1022.0186,172.2294 1022.0186,172.3856 Q1022.0186,172.6044 1022.0655,172.7606 Q1022.128,172.9169 1022.4092,172.9169 L1022.878,172.9169 L1022.878,173.8544 L1019.8936,173.8544 L1019.8936,172.9169 L1020.3467,172.9169 Q1020.5186,172.9169 1020.6436,172.8231 Q1020.7686,172.7138 1020.8155,172.4169 L1023.4561,162.0888 L1024.8623,161.62 L1027.4405,172.3856 Q1027.5498,172.6981 1027.6748,172.8075 Q1027.8155,172.9169 1027.9873,172.9169 L1028.4561,172.9169 L1028.4561,173.8544 L1025.0655,173.8544 L1025.0655,172.9169 L1025.5967,172.9169 Q1025.8155,172.9169 1025.8311,172.87 Q1025.8623,172.8075 1025.8623,172.7294 Q1025.8623,172.5106 1025.8155,172.3231 L1025.1748,169.6044 Z M1020.6123,173.4481 L1020.6123,173.4481 Z M1021.2842,173.4481 L1021.2842,173.4481 Z M1026.003,173.4481 L1026.003,173.4481 Z M1027.128,173.4481 L1027.128,173.4481 Z M1023.9405,163.5106 L1024.003,163.5106 L1022.8936,168.6669 L1024.9873,168.6669 L1023.9405,163.5106 Z " fill="#000000"></path><text fill="#000000" font-family="sans-serif" font-size="14" font-style="italic" lengthAdjust="spacing" textLength="24.9102" x="1045.253" y="175.6039">Pen</text><line style="stroke:#181818;stroke-width:0.5;" x1="946.21" x2="1136.7061" y1="185.12" y2="185.12"></line><polygon fill="none" points="956.21,195.1801,960.21,199.1801,956.21,203.1801,952.21,199.1801" style="stroke:#B38D22;stroke-width:1;"></polygon><text fill="#000000" font-family="sans-serif" font-size="14" lengthAdjust="spacing" textLength="71.5791" x="965.21" y="205.1639">color: Color</text><line style="stroke:#181818;stroke-width:0.5;" x1="946.21" x2="1136.7061" y1="212.2401" y2="212.2401"></line><ellipse cx="956.21" cy="227.3002" fill="#84BE84" rx="3" ry="3" style="stroke:#038048;stroke-width:1;"></ellipse><text fill="#000000" font-family="sans-serif" font-size="14" lengthAdjust="spacing" textLength="148.6133" x="965.21" y="232.2841">draw(String name): void</text><ellipse cx="956.21" cy="246.4203" fill="#84BE84" rx="3" ry="3" style="stroke:#038048;stroke-width:1;"></ellipse><text fill="#000000" font-family="sans-serif" font-size="14" lengthAdjust="spacing" textLength="166.4961" x="965.21" y="251.4042">setColor(color: Color): void</text></g><!--class SmallPen--><g class="entity" data-entity="SmallPen" data-source-line="7" data-uid="ent0003" id="entity_SmallPen"><rect fill="#F1F1F1" height="67.1201" rx="2.5" ry="2.5" style="stroke:#181818;stroke-width:0.5;" width="174.6133" x="721.15" y="7"></rect><ellipse cx="774.2481" cy="23" fill="#ADD1B2" rx="11" ry="11" style="stroke:#181818;stroke-width:1;"></ellipse><path d="M773.5919,28.8594 Q771.6075,28.8594 770.4356,27.3906 Q769.2794,25.9063 769.2794,22.8281 Q769.2794,20.2188 770.4981,18.4688 Q771.7325,16.7188 773.8575,16.7188 Q774.3575,16.7188 774.8888,16.8594 Q775.3263,17.0469 775.5919,17.0469 Q775.8106,17.0469 775.9044,17 Q776.0138,16.9531 776.4669,16.3594 L777.2325,20.0938 L776.3419,20.3594 Q775.8888,18.9063 775.2794,18.3125 Q774.6856,17.7031 773.7325,17.7031 Q772.5138,17.7031 771.795,19.1406 Q771.0763,20.5625 771.0763,22.75 Q771.0763,25.1563 771.6856,26.4531 Q772.3106,27.7344 773.67,27.7344 Q774.6231,27.7344 775.3106,27.0469 Q775.9981,26.3438 776.3263,24.8438 L777.2325,25.25 Q776.8263,26.9531 775.8575,27.9063 Q774.9044,28.8594 773.5919,28.8594 Z " fill="#000000"></path><text fill="#000000" font-family="sans-serif" font-size="14" lengthAdjust="spacing" textLength="59.917" x="794.7481" y="29.4839">SmallPen</text><line style="stroke:#181818;stroke-width:0.5;" x1="722.15" x2="894.7633" y1="39" y2="39"></line><line style="stroke:#181818;stroke-width:0.5;" x1="722.15" x2="894.7633" y1="47" y2="47"></line><ellipse cx="732.15" cy="62.0601" fill="#84BE84" rx="3" ry="3" style="stroke:#038048;stroke-width:1;"></ellipse><text fill="#000000" font-family="sans-serif" font-size="14" lengthAdjust="spacing" textLength="148.6133" x="741.15" y="67.0439">draw(String name): void</text></g><!--class MiddlePen--><g class="entity" data-entity="MiddlePen" data-source-line="11" data-uid="ent0004" id="entity_MiddlePen"><rect fill="#F1F1F1" height="67.1201" rx="2.5" ry="2.5" style="stroke:#181818;stroke-width:0.5;" width="174.6133" x="942.15" y="7"></rect><ellipse cx="992.131" cy="23" fill="#ADD1B2" rx="11" ry="11" style="stroke:#181818;stroke-width:1;"></ellipse><path d="M991.4747,28.8594 Q989.4903,28.8594 988.3185,27.3906 Q987.1622,25.9063 987.1622,22.8281 Q987.1622,20.2188 988.381,18.4688 Q989.6153,16.7188 991.7403,16.7188 Q992.2403,16.7188 992.7716,16.8594 Q993.2091,17.0469 993.4747,17.0469 Q993.6935,17.0469 993.7872,17 Q993.8966,16.9531 994.3497,16.3594 L995.1153,20.0938 L994.2247,20.3594 Q993.7716,18.9063 993.1622,18.3125 Q992.5685,17.7031 991.6153,17.7031 Q990.3966,17.7031 989.6778,19.1406 Q988.9591,20.5625 988.9591,22.75 Q988.9591,25.1563 989.5685,26.4531 Q990.1935,27.7344 991.5528,27.7344 Q992.506,27.7344 993.1935,27.0469 Q993.881,26.3438 994.2091,24.8438 L995.1153,25.25 Q994.7091,26.9531 993.7403,27.9063 Q992.7872,28.8594 991.4747,28.8594 Z " fill="#000000"></path><text fill="#000000" font-family="sans-serif" font-size="14" lengthAdjust="spacing" textLength="66.1514" x="1012.631" y="29.4839">MiddlePen</text><line style="stroke:#181818;stroke-width:0.5;" x1="943.15" x2="1115.7633" y1="39" y2="39"></line><line style="stroke:#181818;stroke-width:0.5;" x1="943.15" x2="1115.7633" y1="47" y2="47"></line><ellipse cx="953.15" cy="62.0601" fill="#84BE84" rx="3" ry="3" style="stroke:#038048;stroke-width:1;"></ellipse><text fill="#000000" font-family="sans-serif" font-size="14" lengthAdjust="spacing" textLength="148.6133" x="962.15" y="67.0439">draw(String name): void</text></g><!--class LargePen--><g class="entity" data-entity="LargePen" data-source-line="15" data-uid="ent0005" id="entity_LargePen"><rect fill="#F1F1F1" height="67.1201" rx="2.5" ry="2.5" style="stroke:#181818;stroke-width:0.5;" width="174.6133" x="1152.15" y="7"></rect><ellipse cx="1204.8482" cy="23" fill="#ADD1B2" rx="11" ry="11" style="stroke:#181818;stroke-width:1;"></ellipse><path d="M1204.192,28.8594 Q1202.2076,28.8594 1201.0357,27.3906 Q1199.8795,25.9063 1199.8795,22.8281 Q1199.8795,20.2188 1201.0982,18.4688 Q1202.3326,16.7188 1204.4576,16.7188 Q1204.9576,16.7188 1205.4889,16.8594 Q1205.9264,17.0469 1206.192,17.0469 Q1206.4107,17.0469 1206.5045,17 Q1206.6139,16.9531 1207.067,16.3594 L1207.8326,20.0938 L1206.942,20.3594 Q1206.4889,18.9063 1205.8795,18.3125 Q1205.2857,17.7031 1204.3326,17.7031 Q1203.1139,17.7031 1202.3951,19.1406 Q1201.6764,20.5625 1201.6764,22.75 Q1201.6764,25.1563 1202.2857,26.4531 Q1202.9107,27.7344 1204.2701,27.7344 Q1205.2232,27.7344 1205.9107,27.0469 Q1206.5982,26.3438 1206.9264,24.8438 L1207.8326,25.25 Q1207.4264,26.9531 1206.4576,27.9063 Q1205.5045,28.8594 1204.192,28.8594 Z " fill="#000000"></path><text fill="#000000" font-family="sans-serif" font-size="14" lengthAdjust="spacing" textLength="60.7168" x="1225.3482" y="29.4839">LargePen</text><line style="stroke:#181818;stroke-width:0.5;" x1="1153.15" x2="1325.7633" y1="39" y2="39"></line><line style="stroke:#181818;stroke-width:0.5;" x1="1153.15" x2="1325.7633" y1="47" y2="47"></line><ellipse cx="1163.15" cy="62.0601" fill="#84BE84" rx="3" ry="3" style="stroke:#038048;stroke-width:1;"></ellipse><text fill="#000000" font-family="sans-serif" font-size="14" lengthAdjust="spacing" textLength="148.6133" x="1172.15" y="67.0439">draw(String name): void</text></g><!--class Color--><g class="entity" data-entity="Color" data-source-line="19" data-uid="ent0006" id="entity_Color"><rect fill="#F1F1F1" height="67.1201" rx="2.5" ry="2.5" style="stroke:#181818;stroke-width:0.5;" width="292.9229" x="335" y="337.48"></rect><ellipse cx="460.4839" cy="353.48" fill="#B4A7E5" rx="11" ry="11" style="stroke:#181818;stroke-width:1;"></ellipse><path d="M457.0776,348.2613 L457.0776,347.3238 L462.9214,347.3238 L462.9214,348.2613 L461.1245,348.2613 Q460.9526,348.2613 460.8745,348.3238 Q460.7964,348.3863 460.7964,348.5269 L460.7964,358.0113 Q460.7964,358.1519 460.8745,358.2144 Q460.9526,358.2769 461.1245,358.2769 L462.9214,358.2769 L462.9214,359.2144 L457.0776,359.2144 L457.0776,358.2769 L458.8745,358.2769 Q459.0933,358.2769 459.1401,358.23 Q459.2026,358.1675 459.2026,358.0113 L459.2026,348.5269 Q459.2026,348.3706 459.1401,348.3238 Q459.0933,348.2613 458.8745,348.2613 L457.0776,348.2613 Z " fill="#000000"></path><text fill="#000000" font-family="sans-serif" font-size="14" font-style="italic" lengthAdjust="spacing" textLength="33.4551" x="480.9839" y="359.9639">Color</text><line style="stroke:#181818;stroke-width:0.5;" x1="336" x2="626.9229" y1="369.48" y2="369.48"></line><line style="stroke:#181818;stroke-width:0.5;" x1="336" x2="626.9229" y1="377.48" y2="377.48"></line><ellipse cx="346" cy="392.5401" fill="#84BE84" rx="3" ry="3" style="stroke:#038048;stroke-width:1;"></ellipse><text fill="#000000" font-family="sans-serif" font-size="14" lengthAdjust="spacing" textLength="266.9229" x="355" y="397.5239">bepaint(String penType, String name): void</text></g><!--class Black--><g class="entity" data-entity="Black" data-source-line="23" data-uid="ent0007" id="entity_Black"><rect fill="#F1F1F1" height="67.1201" rx="2.5" ry="2.5" style="stroke:#181818;stroke-width:0.5;" width="292.9229" x="7" y="172.24"></rect><ellipse cx="132.0942" cy="188.24" fill="#ADD1B2" rx="11" ry="11" style="stroke:#181818;stroke-width:1;"></ellipse><path d="M131.438,194.0994 Q129.4536,194.0994 128.2817,192.6306 Q127.1255,191.1463 127.1255,188.0681 Q127.1255,185.4588 128.3442,183.7088 Q129.5786,181.9588 131.7036,181.9588 Q132.2036,181.9588 132.7349,182.0994 Q133.1724,182.2869 133.438,182.2869 Q133.6567,182.2869 133.7505,182.24 Q133.8599,182.1931 134.313,181.5994 L135.0786,185.3338 L134.188,185.5994 Q133.7349,184.1463 133.1255,183.5525 Q132.5317,182.9431 131.5786,182.9431 Q130.3599,182.9431 129.6411,184.3806 Q128.9224,185.8025 128.9224,187.99 Q128.9224,190.3963 129.5317,191.6931 Q130.1567,192.9744 131.5161,192.9744 Q132.4692,192.9744 133.1567,192.2869 Q133.8442,191.5838 134.1724,190.0838 L135.0786,190.49 Q134.6724,192.1931 133.7036,193.1463 Q132.7505,194.0994 131.438,194.0994 Z " fill="#000000"></path><text fill="#000000" font-family="sans-serif" font-size="14" lengthAdjust="spacing" textLength="34.2344" x="152.5942" y="194.7239">Black</text><line style="stroke:#181818;stroke-width:0.5;" x1="8" x2="298.9229" y1="204.24" y2="204.24"></line><line style="stroke:#181818;stroke-width:0.5;" x1="8" x2="298.9229" y1="212.24" y2="212.24"></line><ellipse cx="18" cy="227.3001" fill="#84BE84" rx="3" ry="3" style="stroke:#038048;stroke-width:1;"></ellipse><text fill="#000000" font-family="sans-serif" font-size="14" lengthAdjust="spacing" textLength="266.9229" x="27" y="232.2839">bepaint(String penType, String name): void</text></g><!--class White--><g class="entity" data-entity="White" data-source-line="27" data-uid="ent0008" id="entity_White"><rect fill="#F1F1F1" height="67.1201" rx="2.5" ry="2.5" style="stroke:#181818;stroke-width:0.5;" width="292.9229" x="335" y="172.24"></rect><ellipse cx="459.3184" cy="188.24" fill="#ADD1B2" rx="11" ry="11" style="stroke:#181818;stroke-width:1;"></ellipse><path d="M458.6621,194.0994 Q456.6777,194.0994 455.5059,192.6306 Q454.3496,191.1463 454.3496,188.0681 Q454.3496,185.4588 455.5684,183.7088 Q456.8027,181.9588 458.9277,181.9588 Q459.4277,181.9588 459.959,182.0994 Q460.3965,182.2869 460.6621,182.2869 Q460.8809,182.2869 460.9746,182.24 Q461.084,182.1931 461.5371,181.5994 L462.3027,185.3338 L461.4121,185.5994 Q460.959,184.1463 460.3496,183.5525 Q459.7559,182.9431 458.8027,182.9431 Q457.584,182.9431 456.8652,184.3806 Q456.1465,185.8025 456.1465,187.99 Q456.1465,190.3963 456.7559,191.6931 Q457.3809,192.9744 458.7402,192.9744 Q459.6934,192.9744 460.3809,192.2869 Q461.0684,191.5838 461.3965,190.0838 L462.3027,190.49 Q461.8965,192.1931 460.9277,193.1463 Q459.9746,194.0994 458.6621,194.0994 Z " fill="#000000"></path><text fill="#000000" font-family="sans-serif" font-size="14" lengthAdjust="spacing" textLength="35.7861" x="479.8184" y="194.7239">White</text><line style="stroke:#181818;stroke-width:0.5;" x1="336" x2="626.9229" y1="204.24" y2="204.24"></line><line style="stroke:#181818;stroke-width:0.5;" x1="336" x2="626.9229" y1="212.24" y2="212.24"></line><ellipse cx="346" cy="227.3001" fill="#84BE84" rx="3" ry="3" style="stroke:#038048;stroke-width:1;"></ellipse><text fill="#000000" font-family="sans-serif" font-size="14" lengthAdjust="spacing" textLength="266.9229" x="355" y="232.2839">bepaint(String penType, String name): void</text></g><g class="entity" data-entity="GMN15" data-source-line="39" data-uid="ent0016" id="entity_GMN15"><path d="M662.88,165.29 L662.88,246.3076 A0,0 0 0 0 662.88,246.3076 L910.047,246.3076 A0,0 0 0 0 910.047,246.3076 L910.047,175.29 L900.047,165.29 L795.84,165.29 L804.01,74.59 L787.84,165.29 L662.88,165.29 A0,0 0 0 0 662.88,165.29" fill="#FEFFDD" style="stroke:#181818;stroke-width:0.5;"></path><path d="M900.047,165.29 L900.047,175.29 L910.047,175.29 L900.047,165.29" fill="#FEFFDD" style="stroke:#181818;stroke-width:0.5;"></path><text fill="#000000" font-family="sans-serif" font-size="13" lengthAdjust="spacing" textLength="138.728" x="668.88" y="185.1879">void draw(String name){</text><text fill="#000000" font-family="sans-serif" font-size="13" lengthAdjust="spacing" textLength="148.3257" x="697.7745" y="202.9423">String penType = "Small";</text><text fill="#000000" font-family="sans-serif" font-size="13" lengthAdjust="spacing" textLength="197.2725" x="697.7745" y="220.6967">this.color.bepaint(penType, name)</text><text fill="#000000" font-family="sans-serif" font-size="13" lengthAdjust="spacing" textLength="4.3418" x="668.88" y="238.4511">}</text></g><!--link SmallPen to Pen--><g class="link" data-entity-1="SmallPen" data-entity-2="Pen" data-source-line="31" data-uid="lnk9" id="link_SmallPen_Pen"><path codeline="31" d="M855.61,74.59 C887.66,97.05 915.9676,116.8823 952.5676,142.5223" fill="none" id="SmallPen-to-Pen" style="stroke:#181818;stroke-width:1;"></path><polygon fill="none" points="967.31,152.85,956.0102,137.6081,949.125,147.4364,967.31,152.85" style="stroke:#181818;stroke-width:1;"></polygon><text fill="#000000" font-family="sans-serif" font-size="13" lengthAdjust="spacing" textLength="45.5317" x="918.98" y="120.0179">extends</text></g><!--link MiddlePen to Pen--><g class="link" data-entity-1="MiddlePen" data-entity-2="Pen" data-source-line="32" data-uid="lnk10" id="link_MiddlePen_Pen"><path codeline="32" d="M1031.89,74.59 C1033.54,97.05 1034.4437,109.2582 1036.3237,134.8982" fill="none" id="MiddlePen-to-Pen" style="stroke:#181818;stroke-width:1;"></path><polygon fill="none" points="1037.64,152.85,1042.3077,134.4594,1030.3398,135.337,1037.64,152.85" style="stroke:#181818;stroke-width:1;"></polygon><text fill="#000000" font-family="sans-serif" font-size="13" lengthAdjust="spacing" textLength="45.5317" x="1036.1" y="120.0179">extends</text></g><!--link LargePen to Pen--><g class="link" data-entity-1="LargePen" data-entity-2="Pen" data-source-line="33" data-uid="lnk11" id="link_LargePen_Pen"><path codeline="33" d="M1199.39,74.59 C1172.16,97.05 1149.4586,115.7598 1118.3586,141.3998" fill="none" id="LargePen-to-Pen" style="stroke:#181818;stroke-width:1;"></path><polygon fill="none" points="1104.47,152.85,1122.1753,146.0293,1114.5418,136.7702,1104.47,152.85" style="stroke:#181818;stroke-width:1;"></polygon><text fill="#000000" font-family="sans-serif" font-size="13" lengthAdjust="spacing" textLength="45.5317" x="1159.2" y="120.0179">extends</text></g><!--link Black to Color--><g class="link" data-entity-1="Black" data-entity-2="Color" data-source-line="34" data-uid="lnk12" id="link_Black_Color"><path codeline="34" d="M219.84,239.83 C276.74,268.16 342.195,300.7308 399.065,329.0308" fill="none" id="Black-to-Color" style="stroke:#181818;stroke-width:1;stroke-dasharray:7,7;"></path><polygon fill="none" points="415.18,337.05,401.7381,323.6591,396.392,334.4024,415.18,337.05" style="stroke:#181818;stroke-width:1;"></polygon><text fill="#000000" font-family="sans-serif" font-size="13" lengthAdjust="spacing" textLength="66.4663" x="347.84" y="304.3779">implements</text></g><!--link White to Color--><g class="link" data-entity-1="White" data-entity-2="Color" data-source-line="35" data-uid="lnk13" id="link_White_Color"><path codeline="35" d="M481.46,239.83 C481.46,268.16 481.46,290.75 481.46,319.05" fill="none" id="White-to-Color" style="stroke:#181818;stroke-width:1;stroke-dasharray:7,7;"></path><polygon fill="none" points="481.46,337.05,487.46,319.05,475.46,319.05,481.46,337.05" style="stroke:#181818;stroke-width:1;"></polygon><text fill="#000000" font-family="sans-serif" font-size="13" lengthAdjust="spacing" textLength="66.4663" x="482.46" y="304.3779">implements</text></g><!--link Pen to Color--><g class="link" data-entity-1="Pen" data-entity-2="Color" data-source-line="36" data-uid="lnk14" id="link_Pen_Color"><path codeline="36" d="M933.7506,256.3613 C927.8806,258.6513 933.21,256.48 927.46,258.48 C829.58,292.6 722.0774,319.5098 634.1374,339.0298" fill="none" id="Pen-Color" style="stroke:#181818;stroke-width:1;"></path><polygon fill="none" points="944.93,252,937.8865,250.4542,933.7506,256.3613,940.7941,257.9071,944.93,252" style="stroke:#181818;stroke-width:1;"></polygon><polygon fill="#181818" points="628.28,340.33,637.9329,342.2847,633.1612,339.2465,636.1994,334.4748,628.28,340.33" style="stroke:#181818;stroke-width:1;"></polygon><text fill="#000000" font-family="sans-serif" font-size="13" lengthAdjust="spacing" textLength="70.1099" x="832.51" y="304.3779">Aggregation</text></g><!--SRC=[dL9DIyGm43rtViMmNbQq_G4L1TshWh22vsawsmscIKa6Fz3zxoOfBOghhfuIvhqtatalr0Jnf0ILeH3mbkqh52UjfwVbMhos7Lhg-RZ6HwTRA8wKCyxNk4f790QMV5r-h4_i7S3OTTsJCR-qdiatkcqD7yg-9jyTGDPMs6z8yVZ2n6vue5YU10FRkvU1J_6dQLU6rCD_nVTRBVntyMGUbkNRHGgeHduMjcs0sQezs6JC7YXlWLKLwwinDjqFXdks4Y2_yXiG8JLqPJbZbrtdkIFHpW9O5vMD4t4zkisSEXHf5VoIJhIY-6m1dkCYgnPd4PEj3bN-LzNas6nLRW353k92cER2Em00]--></g></svg>