<svg xmlns="http://www.w3.org/2000/svg" xmlns:xlink="http://www.w3.org/1999/xlink" contentstyletype="text/css" data-diagram-type="CLASS" height="227px" preserveAspectRatio="none" style="width:130px;height:227px;background:#FFFFFF;" version="1.1" viewBox="0 0 130 227" width="130px" zoomAndPan="magnify"><defs></defs><g><!--class Animal--><g class="entity" data-entity="Animal" data-source-line="1" data-uid="ent0002" id="entity_Animal"><rect fill="#F1F1F1" height="67.1201" rx="2.5" ry="2.5" style="stroke:#181818;stroke-width:0.5;" width="88.248" x="10.89" y="7"></rect><ellipse cx="31.9448" cy="23" fill="#A9DCDF" rx="11" ry="11" style="stroke:#181818;stroke-width:1;"></ellipse><path d="M32.3667,23.4844 L29.8042,23.4844 L29.2729,25.7813 Q29.2104,26.1094 29.2104,26.2656 Q29.2104,26.4844 29.2573,26.6406 Q29.3198,26.7969 29.601,26.7969 L30.0698,26.7969 L30.0698,27.7344 L27.0854,27.7344 L27.0854,26.7969 L27.5385,26.7969 Q27.7104,26.7969 27.8354,26.7031 Q27.9604,26.5938 28.0073,26.2969 L30.6479,15.9688 L32.0542,15.5 L34.6323,26.2656 Q34.7417,26.5781 34.8667,26.6875 Q35.0073,26.7969 35.1792,26.7969 L35.6479,26.7969 L35.6479,27.7344 L32.2573,27.7344 L32.2573,26.7969 L32.7885,26.7969 Q33.0073,26.7969 33.0229,26.75 Q33.0542,26.6875 33.0542,26.6094 Q33.0542,26.3906 33.0073,26.2031 L32.3667,23.4844 Z M27.8042,27.3281 L27.8042,27.3281 Z M28.476,27.3281 L28.476,27.3281 Z M33.1948,27.3281 L33.1948,27.3281 Z M34.3198,27.3281 L34.3198,27.3281 Z M31.1323,17.3906 L31.1948,17.3906 L30.0854,22.5469 L32.1792,22.5469 L31.1323,17.3906 Z " fill="#000000"></path><text fill="#000000" font-family="sans-serif" font-size="14" font-style="italic" lengthAdjust="spacing" textLength="42.793" x="47.2903" y="29.4839">Animal</text><line style="stroke:#181818;stroke-width:0.5;" x1="11.89" x2="98.138" y1="39" y2="39"></line><line style="stroke:#181818;stroke-width:0.5;" x1="11.89" x2="98.138" y1="47" y2="47"></line><ellipse cx="21.89" cy="62.0601" fill="#84BE84" rx="3" ry="3" style="stroke:#038048;stroke-width:1;"></ellipse><text fill="#000000" font-family="sans-serif" font-size="14" lengthAdjust="spacing" textLength="62.248" x="30.89" y="67.0439">eat(): void</text></g><!--class Dog--><g class="entity" data-entity="Dog" data-source-line="5" data-uid="ent0003" id="entity_Dog"><rect fill="#F1F1F1" height="67.1201" rx="2.5" ry="2.5" style="stroke:#181818;stroke-width:0.5;" width="96.0205" x="7" y="153.12"></rect><ellipse cx="39.2521" cy="169.12" fill="#ADD1B2" rx="11" ry="11" style="stroke:#181818;stroke-width:1;"></ellipse><path d="M38.5958,174.9794 Q36.6114,174.9794 35.4396,173.5106 Q34.2833,172.0263 34.2833,168.9481 Q34.2833,166.3388 35.5021,164.5888 Q36.7364,162.8388 38.8614,162.8388 Q39.3614,162.8388 39.8927,162.9794 Q40.3302,163.1669 40.5958,163.1669 Q40.8146,163.1669 40.9083,163.12 Q41.0177,163.0731 41.4708,162.4794 L42.2364,166.2138 L41.3458,166.4794 Q40.8927,165.0263 40.2833,164.4325 Q39.6896,163.8231 38.7364,163.8231 Q37.5177,163.8231 36.7989,165.2606 Q36.0802,166.6825 36.0802,168.87 Q36.0802,171.2763 36.6896,172.5731 Q37.3146,173.8544 38.6739,173.8544 Q39.6271,173.8544 40.3146,173.1669 Q41.0021,172.4638 41.3302,170.9638 L42.2364,171.37 Q41.8302,173.0731 40.8614,174.0263 Q39.9083,174.9794 38.5958,174.9794 Z " fill="#000000"></path><text fill="#000000" font-family="sans-serif" font-size="14" lengthAdjust="spacing" textLength="25.6826" x="57.0858" y="175.6039">Dog</text><line style="stroke:#181818;stroke-width:0.5;" x1="8" x2="102.0205" y1="185.12" y2="185.12"></line><line style="stroke:#181818;stroke-width:0.5;" x1="8" x2="102.0205" y1="193.12" y2="193.12"></line><ellipse cx="18" cy="208.1801" fill="#84BE84" rx="3" ry="3" style="stroke:#038048;stroke-width:1;"></ellipse><text fill="#000000" font-family="sans-serif" font-size="14" lengthAdjust="spacing" textLength="70.0205" x="27" y="213.1639">bark(): void</text></g><!--reverse link Animal to Dog--><g class="link" data-entity-1="Animal" data-entity-2="Dog" data-source-line="6" data-uid="lnk4" id="link_Animal_Dog"><path d="M48.5954,92.5069 C47.5254,102.0069 48.55,94.52 48.01,104.12 C47.12,120.15 48.38,137.92 50.06,152.77" fill="none" id="Animal-backto-Dog" style="stroke:#181818;stroke-width:1;"></path><polygon fill="none" points="50.61,74.62,42.6331,91.8354,54.5577,93.1784,50.61,74.62" style="stroke:#181818;stroke-width:1;"></polygon></g><!--reverse link Animal to Dog--><g class="link" data-entity-1="Animal" data-entity-2="Dog" data-source-line="9" data-uid="lnk5" id="link_Animal_Dog"><path codeline="9" d="M55.01,92.26 C55.01,115.85 55.01,129.55 55.01,153.11" fill="none" id="Animal-backto-Dog-1" style="stroke:#181818;stroke-width:1;"></path><polygon fill="none" points="55.01,74.26,49.01,92.26,61.01,92.26,55.01,74.26" style="stroke:#181818;stroke-width:1;"></polygon><text fill="#000000" font-family="sans-serif" font-size="13" lengthAdjust="spacing" textLength="66.4854" x="56.01" y="120.0179">generalizes</text></g><!--SRC=[IqmgBYbAJ2vHICv9B2vMSCpBp4tCKQXMuD9EJIpHqBHIAClFJ57WgkLIu8AeSCbFLqYjA4dDIq5HdPHOb8sg72ffKwEh2zPafP2UcfTQb9YJMPLQ3000]--></g></svg>