<svg xmlns="http://www.w3.org/2000/svg" xmlns:xlink="http://www.w3.org/1999/xlink" contentstyletype="text/css" data-diagram-type="CLASS" height="322px" preserveAspectRatio="none" style="width:607px;height:322px;background:#FFFFFF;" version="1.1" viewBox="0 0 607 322" width="607px" zoomAndPan="magnify"><defs></defs><g><!--class FileComponent--><g class="entity" data-entity="FileComponent" data-source-line="1" data-uid="ent0002" id="entity_FileComponent"><rect fill="#F1F1F1" height="86.2402" rx="2.5" ry="2.5" style="stroke:#181818;stroke-width:0.5;" width="166.0752" x="243.36" y="229.6"></rect><ellipse cx="275.972" cy="245.6" fill="#B4A7E5" rx="11" ry="11" style="stroke:#181818;stroke-width:1;"></ellipse><path d="M272.5657,240.3812 L272.5657,239.4437 L278.4095,239.4437 L278.4095,240.3812 L276.6126,240.3812 Q276.4407,240.3812 276.3626,240.4437 Q276.2845,240.5062 276.2845,240.6469 L276.2845,250.1312 Q276.2845,250.2719 276.3626,250.3344 Q276.4407,250.3969 276.6126,250.3969 L278.4095,250.3969 L278.4095,251.3344 L272.5657,251.3344 L272.5657,250.3969 L274.3626,250.3969 Q274.5813,250.3969 274.6282,250.35 Q274.6907,250.2875 274.6907,250.1312 L274.6907,240.6469 Q274.6907,240.4906 274.6282,240.4437 Q274.5813,240.3812 274.3626,240.3812 L272.5657,240.3812 Z " fill="#000000"></path><text fill="#000000" font-family="sans-serif" font-size="14" font-style="italic" lengthAdjust="spacing" textLength="94.9375" x="293.8857" y="252.0839">FileComponent</text><line style="stroke:#181818;stroke-width:0.5;" x1="244.36" x2="408.4352" y1="261.6" y2="261.6"></line><rect fill="none" height="6" style="stroke:#C82930;stroke-width:1;" width="6" x="251.36" y="273.6601"></rect><text fill="#000000" font-family="sans-serif" font-size="14" lengthAdjust="spacing" textLength="79.3721" x="263.36" y="281.6439">name: String</text><line style="stroke:#181818;stroke-width:0.5;" x1="244.36" x2="408.4352" y1="288.7201" y2="288.7201"></line><ellipse cx="254.36" cy="303.7802" fill="#84BE84" rx="3" ry="3" style="stroke:#038048;stroke-width:1;"></ellipse><text fill="#000000" font-family="sans-serif" font-size="14" lengthAdjust="spacing" textLength="140.0752" x="263.36" y="308.7641">display(int depth): void</text></g><!--class File--><g class="entity" data-entity="File" data-source-line="6" data-uid="ent0003" id="entity_File"><rect fill="#F1F1F1" height="67.1201" rx="2.5" ry="2.5" style="stroke:#181818;stroke-width:0.5;" width="166.0752" x="434.36" y="45.24"></rect><ellipse cx="501.8683" cy="61.24" fill="#ADD1B2" rx="11" ry="11" style="stroke:#181818;stroke-width:1;"></ellipse><path d="M501.2121,67.0994 Q499.2277,67.0994 498.0558,65.6306 Q496.8996,64.1462 496.8996,61.0681 Q496.8996,58.4587 498.1183,56.7087 Q499.3527,54.9587 501.4777,54.9587 Q501.9777,54.9587 502.5089,55.0994 Q502.9464,55.2869 503.2121,55.2869 Q503.4308,55.2869 503.5246,55.24 Q503.6339,55.1931 504.0871,54.5994 L504.8527,58.3337 L503.9621,58.5994 Q503.5089,57.1462 502.8996,56.5525 Q502.3058,55.9431 501.3527,55.9431 Q500.1339,55.9431 499.4152,57.3806 Q498.6964,58.8025 498.6964,60.99 Q498.6964,63.3962 499.3058,64.6931 Q499.9308,65.9744 501.2902,65.9744 Q502.2433,65.9744 502.9308,65.2869 Q503.6183,64.5837 503.9464,63.0837 L504.8527,63.49 Q504.4464,65.1931 503.4777,66.1462 Q502.5246,67.0994 501.2121,67.0994 Z " fill="#000000"></path><text fill="#000000" font-family="sans-serif" font-size="14" lengthAdjust="spacing" textLength="22.5586" x="522.3683" y="67.7239">File</text><line style="stroke:#181818;stroke-width:0.5;" x1="435.36" x2="599.4352" y1="77.24" y2="77.24"></line><line style="stroke:#181818;stroke-width:0.5;" x1="435.36" x2="599.4352" y1="85.24" y2="85.24"></line><ellipse cx="445.36" cy="100.3001" fill="#84BE84" rx="3" ry="3" style="stroke:#038048;stroke-width:1;"></ellipse><text fill="#000000" font-family="sans-serif" font-size="14" lengthAdjust="spacing" textLength="140.0752" x="454.36" y="105.2839">display(int depth): void</text></g><!--class Folder--><g class="entity" data-entity="Folder" data-source-line="10" data-uid="ent0004" id="entity_Folder"><rect fill="#F1F1F1" height="143.6006" rx="2.5" ry="2.5" style="stroke:#181818;stroke-width:0.5;" width="220.5303" x="36.13" y="7"></rect><ellipse cx="122.3038" cy="23" fill="#ADD1B2" rx="11" ry="11" style="stroke:#181818;stroke-width:1;"></ellipse><path d="M121.6476,28.8594 Q119.6632,28.8594 118.4913,27.3906 Q117.3351,25.9063 117.3351,22.8281 Q117.3351,20.2188 118.5538,18.4688 Q119.7882,16.7188 121.9132,16.7188 Q122.4132,16.7188 122.9445,16.8594 Q123.382,17.0469 123.6476,17.0469 Q123.8663,17.0469 123.9601,17 Q124.0695,16.9531 124.5226,16.3594 L125.2882,20.0938 L124.3976,20.3594 Q123.9445,18.9063 123.3351,18.3125 Q122.7413,17.7031 121.7882,17.7031 Q120.5695,17.7031 119.8507,19.1406 Q119.132,20.5625 119.132,22.75 Q119.132,25.1563 119.7413,26.4531 Q120.3663,27.7344 121.7257,27.7344 Q122.6788,27.7344 123.3663,27.0469 Q124.0538,26.3438 124.382,24.8438 L125.2882,25.25 Q124.882,26.9531 123.9132,27.9063 Q122.9601,28.8594 121.6476,28.8594 Z " fill="#000000"></path><text fill="#000000" font-family="sans-serif" font-size="14" lengthAdjust="spacing" textLength="39.6826" x="142.8038" y="29.4839">Folder</text><line style="stroke:#181818;stroke-width:0.5;" x1="37.13" x2="255.6603" y1="39" y2="39"></line><rect fill="none" height="6" style="stroke:#C82930;stroke-width:1;" width="6" x="44.13" y="51.0601"></rect><text fill="#000000" font-family="sans-serif" font-size="14" lengthAdjust="spacing" textLength="189.8818" x="56.13" y="59.0439">children: List&lt;FileComponent&gt;</text><line style="stroke:#181818;stroke-width:0.5;" x1="37.13" x2="255.6603" y1="66.1201" y2="66.1201"></line><ellipse cx="47.13" cy="81.1802" fill="#84BE84" rx="3" ry="3" style="stroke:#038048;stroke-width:1;"></ellipse><text fill="#000000" font-family="sans-serif" font-size="14" lengthAdjust="spacing" textLength="140.0752" x="56.13" y="86.1641">display(int depth): void</text><ellipse cx="47.13" cy="100.3003" fill="#84BE84" rx="3" ry="3" style="stroke:#038048;stroke-width:1;"></ellipse><text fill="#000000" font-family="sans-serif" font-size="14" lengthAdjust="spacing" textLength="171.2061" x="56.13" y="105.2842">add(Component child): void</text><ellipse cx="47.13" cy="119.4204" fill="#84BE84" rx="3" ry="3" style="stroke:#038048;stroke-width:1;"></ellipse><text fill="#000000" font-family="sans-serif" font-size="14" lengthAdjust="spacing" textLength="194.5303" x="56.13" y="124.4043">remove(Component child): void</text><ellipse cx="47.13" cy="138.5405" fill="#84BE84" rx="3" ry="3" style="stroke:#038048;stroke-width:1;"></ellipse><text fill="#000000" font-family="sans-serif" font-size="14" lengthAdjust="spacing" textLength="192.9922" x="56.13" y="143.5244">getChild(int index): Component</text></g><!--class Client--><g class="entity" data-entity="Client" data-source-line="18" data-uid="ent0005" id="entity_Client"><rect fill="#F1F1F1" height="48" rx="2.5" ry="2.5" style="stroke:#181818;stroke-width:0.5;" width="67.793" x="331.5" y="54.8"></rect><ellipse cx="346.5" cy="70.8" fill="#ADD1B2" rx="11" ry="11" style="stroke:#181818;stroke-width:1;"></ellipse><path d="M345.8438,76.6594 Q343.8594,76.6594 342.6875,75.1906 Q341.5313,73.7062 341.5313,70.6281 Q341.5313,68.0187 342.75,66.2687 Q343.9844,64.5187 346.1094,64.5187 Q346.6094,64.5187 347.1406,64.6594 Q347.5781,64.8469 347.8438,64.8469 Q348.0625,64.8469 348.1563,64.8 Q348.2656,64.7531 348.7188,64.1594 L349.4844,67.8937 L348.5938,68.1594 Q348.1406,66.7062 347.5313,66.1125 Q346.9375,65.5031 345.9844,65.5031 Q344.7656,65.5031 344.0469,66.9406 Q343.3281,68.3625 343.3281,70.55 Q343.3281,72.9562 343.9375,74.2531 Q344.5625,75.5344 345.9219,75.5344 Q346.875,75.5344 347.5625,74.8469 Q348.25,74.1437 348.5781,72.6437 L349.4844,73.05 Q349.0781,74.7531 348.1094,75.7062 Q347.1563,76.6594 345.8438,76.6594 Z " fill="#000000"></path><text fill="#000000" font-family="sans-serif" font-size="14" lengthAdjust="spacing" textLength="35.793" x="360.5" y="77.2839">Client</text><line style="stroke:#181818;stroke-width:0.5;" x1="332.5" x2="398.293" y1="86.8" y2="86.8"></line><line style="stroke:#181818;stroke-width:0.5;" x1="332.5" x2="398.293" y1="94.8" y2="94.8"></line></g><g class="entity" data-entity="GMN10" data-source-line="27" data-uid="ent0011" id="entity_GMN10"><path d="M6,249.97 L6,295.4788 L170.7998,295.4788 L170.7998,259.97 L160.7998,249.97 L6,249.97" fill="#FEFFDD" style="stroke:#181818;stroke-width:0.5;"></path><path d="M160.7998,249.97 L160.7998,259.97 L170.7998,259.97 L160.7998,249.97" fill="#FEFFDD" style="stroke:#181818;stroke-width:1;"></path><text fill="#000000" font-family="sans-serif" font-size="13" lengthAdjust="spacing" textLength="143.7998" x="12" y="269.8679">for each child in children:</text><text fill="#000000" font-family="sans-serif" font-size="13" lengthAdjust="spacing" textLength="79.4727" x="40.8945" y="287.6223">child.display()</text></g><!--link File to FileComponent--><g class="link" data-entity-1="File" data-entity-2="FileComponent" data-source-line="21" data-uid="lnk6" id="link_File_FileComponent"><path codeline="21" d="M495.53,112.81 C477.95,138.06 451.74,172.95 424.4,199.6 C413.81,209.92 415.9896,209.0705 403.9596,218.2505" fill="none" id="File-to-FileComponent" style="stroke:#181818;stroke-width:1;stroke-dasharray:7,7;"></path><polygon fill="none" points="389.65,229.17,407.5994,223.0203,400.3197,213.4806,389.65,229.17" style="stroke:#181818;stroke-width:1;"></polygon><text fill="#000000" font-family="sans-serif" font-size="13" lengthAdjust="spacing" textLength="66.4663" x="442.55" y="196.4979">implements</text></g><!--link Folder to FileComponent--><g class="link" data-entity-1="Folder" data-entity-2="FileComponent" data-source-line="22" data-uid="lnk7" id="link_Folder_FileComponent"><path codeline="22" d="M130.82,151.05 C130.66,168.14 133.8,185.5 143.4,199.6 C155.58,217.49 183.4082,229.8795 225.7182,243.3495" fill="none" id="Folder-to-FileComponent" style="stroke:#181818;stroke-width:1;stroke-dasharray:7,7;"></path><polygon fill="none" points="242.87,248.81,227.5384,237.6322,223.8981,249.0667,242.87,248.81" style="stroke:#181818;stroke-width:1;"></polygon><text fill="#000000" font-family="sans-serif" font-size="13" lengthAdjust="spacing" textLength="66.4663" x="144.4" y="196.4979">implements</text></g><!--link Folder to FileComponent--><g class="link" data-entity-1="Folder" data-entity-2="FileComponent" data-source-line="23" data-uid="lnk8" id="link_Folder_FileComponent"><path codeline="23" d="M221.3785,159.7433 C246.0885,186.0933 260.9957,201.9834 282.5557,224.9734" fill="none" id="Folder-FileComponent" style="stroke:#181818;stroke-width:1;"></path><polygon fill="#181818" points="213.17,150.99,214.3565,158.1028,221.3785,159.7433,220.192,152.6305,213.17,150.99" style="stroke:#181818;stroke-width:1;"></polygon><polygon fill="#181818" points="286.66,229.35,283.4212,220.0489,283.2397,225.7029,277.5858,225.5214,286.66,229.35" style="stroke:#181818;stroke-width:1;"></polygon><text fill="#000000" font-family="sans-serif" font-size="13" lengthAdjust="spacing" textLength="69.3672" x="258.82" y="196.4979">composition</text></g><!--link Client to FileComponent--><g class="link" data-entity-1="Client" data-entity-2="FileComponent" data-source-line="24" data-uid="lnk9" id="link_Client_FileComponent"><path codeline="24" d="M360.7,102.95 C354.35,134.15 344.1453,184.4003 336.2353,223.3103" fill="none" id="Client-to-FileComponent" style="stroke:#181818;stroke-width:1;stroke-dasharray:7,7;"></path><polygon fill="#181818" points="335.04,229.19,340.7528,221.1673,336.0361,224.2902,332.9131,219.5735,335.04,229.19" style="stroke:#181818;stroke-width:1;"></polygon><text fill="#000000" font-family="sans-serif" font-size="13" lengthAdjust="spacing" textLength="70.8398" x="345.73" y="196.4979">dependency</text></g><!--link Folder to GMN10--><g class="link" data-entity-1="Folder" data-entity-2="GMN10" data-source-line="27" data-uid="lnk12" id="link_Folder_GMN10"><path d="M119.89,151.08 C116.53,160.94 113.27,170.98 110.4,180.6 C103.42,203.99 97.07,231.25 93,249.82" fill="none" id="Folder-GMN10" style="stroke:#181818;stroke-width:1;stroke-dasharray:7,7;"></path></g><!--SRC=[ZP31QiCm38RFrbFesAua3n16BuMTTjiJUBRI26mvsAAiT7ltEScMKif6RqBw-VJ_FujIxgqZVE50XnJ792Hw0TE8ZTJXcsQM8vYTvp86UzwmA7eQTTXsU4hiuGl01LlAJBWyfap1KvwUk863poGTldBHvniJ-_zOPcUztwnQd47NOwQOJlJt_KXwc3OpcCNJHxsjwglJG-2vZhgOl67RVkvlg-gGunWerh704kn1rLFJtAdSD1PMJWBBxmgxKzKcg7eMTmQGf8JlIJL5JFrFjM3wb96i6vRWDIAkLOCnyzp-bhk5IiC9z0q0]--></g></svg>