<svg xmlns="http://www.w3.org/2000/svg" xmlns:xlink="http://www.w3.org/1999/xlink" contentstyletype="text/css" data-diagram-type="CLASS" height="361px" preserveAspectRatio="none" style="width:538px;height:361px;background:#FFFFFF;" version="1.1" viewBox="0 0 538 361" width="538px" zoomAndPan="magnify"><defs></defs><g><!--class Component--><g class="entity" data-entity="Component" data-source-line="1" data-uid="ent0002" id="entity_Component"><rect fill="#F1F1F1" height="124.4805" rx="2.5" ry="2.5" style="stroke:#181818;stroke-width:0.5;" width="218.9922" x="230.9" y="229.6"></rect><ellipse cx="299.9566" cy="245.6" fill="#B4A7E5" rx="11" ry="11" style="stroke:#181818;stroke-width:1;"></ellipse><path d="M296.5504,240.3812 L296.5504,239.4437 L302.3941,239.4437 L302.3941,240.3812 L300.5973,240.3812 Q300.4254,240.3812 300.3473,240.4437 Q300.2691,240.5062 300.2691,240.6469 L300.2691,250.1312 Q300.2691,250.2719 300.3473,250.3344 Q300.4254,250.3969 300.5973,250.3969 L302.3941,250.3969 L302.3941,251.3344 L296.5504,251.3344 L296.5504,250.3969 L298.3473,250.3969 Q298.566,250.3969 298.6129,250.35 Q298.6754,250.2875 298.6754,250.1312 L298.6754,240.6469 Q298.6754,240.4906 298.6129,240.4437 Q298.566,240.3812 298.3473,240.3812 L296.5504,240.3812 Z " fill="#000000"></path><text fill="#000000" font-family="sans-serif" font-size="14" font-style="italic" lengthAdjust="spacing" textLength="72.3789" x="320.4566" y="252.0839">Component</text><line style="stroke:#181818;stroke-width:0.5;" x1="231.9" x2="448.8922" y1="261.6" y2="261.6"></line><line style="stroke:#181818;stroke-width:0.5;" x1="231.9" x2="448.8922" y1="269.6" y2="269.6"></line><ellipse cx="241.9" cy="284.6601" fill="#84BE84" rx="3" ry="3" style="stroke:#038048;stroke-width:1;"></ellipse><text fill="#000000" font-family="sans-serif" font-size="14" lengthAdjust="spacing" textLength="101.165" x="250.9" y="289.6439">operation(): void</text><ellipse cx="241.9" cy="303.7802" fill="#84BE84" rx="3" ry="3" style="stroke:#038048;stroke-width:1;"></ellipse><text fill="#000000" font-family="sans-serif" font-size="14" lengthAdjust="spacing" textLength="141.627" x="250.9" y="308.7641">add(Componet c): void</text><ellipse cx="241.9" cy="322.9003" fill="#84BE84" rx="3" ry="3" style="stroke:#038048;stroke-width:1;"></ellipse><text fill="#000000" font-family="sans-serif" font-size="14" lengthAdjust="spacing" textLength="164.9512" x="250.9" y="327.8842">remove(Componet c): void</text><ellipse cx="241.9" cy="342.0204" fill="#84BE84" rx="3" ry="3" style="stroke:#038048;stroke-width:1;"></ellipse><text fill="#000000" font-family="sans-serif" font-size="14" lengthAdjust="spacing" textLength="192.9922" x="250.9" y="347.0043">getChild(int index): Component</text></g><!--class Composite--><g class="entity" data-entity="Composite" data-source-line="8" data-uid="ent0003" id="entity_Composite"><rect fill="#F1F1F1" height="143.6006" rx="2.5" ry="2.5" style="stroke:#181818;stroke-width:0.5;" width="218.9922" x="36.9" y="7"></rect><ellipse cx="108.6876" cy="23" fill="#ADD1B2" rx="11" ry="11" style="stroke:#181818;stroke-width:1;"></ellipse><path d="M108.0313,28.8594 Q106.047,28.8594 104.8751,27.3906 Q103.7188,25.9063 103.7188,22.8281 Q103.7188,20.2188 104.9376,18.4688 Q106.172,16.7188 108.297,16.7188 Q108.797,16.7188 109.3282,16.8594 Q109.7657,17.0469 110.0313,17.0469 Q110.2501,17.0469 110.3438,17 Q110.4532,16.9531 110.9063,16.3594 L111.672,20.0938 L110.7813,20.3594 Q110.3282,18.9063 109.7188,18.3125 Q109.1251,17.7031 108.172,17.7031 Q106.9532,17.7031 106.2345,19.1406 Q105.5157,20.5625 105.5157,22.75 Q105.5157,25.1563 106.1251,26.4531 Q106.7501,27.7344 108.1095,27.7344 Q109.0626,27.7344 109.7501,27.0469 Q110.4376,26.3438 110.7657,24.8438 L111.672,25.25 Q111.2657,26.9531 110.297,27.9063 Q109.3438,28.8594 108.0313,28.8594 Z " fill="#000000"></path><text fill="#000000" font-family="sans-serif" font-size="14" lengthAdjust="spacing" textLength="66.917" x="129.1876" y="29.4839">Composite</text><line style="stroke:#181818;stroke-width:0.5;" x1="37.9" x2="254.8922" y1="39" y2="39"></line><rect fill="none" height="6" style="stroke:#C82930;stroke-width:1;" width="6" x="44.9" y="51.0601"></rect><text fill="#000000" font-family="sans-serif" font-size="14" lengthAdjust="spacing" textLength="167.3232" x="56.9" y="59.0439">children: List&lt;Component&gt;</text><line style="stroke:#181818;stroke-width:0.5;" x1="37.9" x2="254.8922" y1="66.1201" y2="66.1201"></line><ellipse cx="47.9" cy="81.1802" fill="#84BE84" rx="3" ry="3" style="stroke:#038048;stroke-width:1;"></ellipse><text fill="#000000" font-family="sans-serif" font-size="14" lengthAdjust="spacing" textLength="101.165" x="56.9" y="86.1641">operation(): void</text><ellipse cx="47.9" cy="100.3003" fill="#84BE84" rx="3" ry="3" style="stroke:#038048;stroke-width:1;"></ellipse><text fill="#000000" font-family="sans-serif" font-size="14" lengthAdjust="spacing" textLength="141.627" x="56.9" y="105.2842">add(Componet c): void</text><ellipse cx="47.9" cy="119.4204" fill="#84BE84" rx="3" ry="3" style="stroke:#038048;stroke-width:1;"></ellipse><text fill="#000000" font-family="sans-serif" font-size="14" lengthAdjust="spacing" textLength="164.9512" x="56.9" y="124.4043">remove(Componet c): void</text><ellipse cx="47.9" cy="138.5405" fill="#84BE84" rx="3" ry="3" style="stroke:#038048;stroke-width:1;"></ellipse><text fill="#000000" font-family="sans-serif" font-size="14" lengthAdjust="spacing" textLength="192.9922" x="56.9" y="143.5244">getChild(int index): Component</text></g><!--class Leaf--><g class="entity" data-entity="Leaf" data-source-line="16" data-uid="ent0004" id="entity_Leaf"><rect fill="#F1F1F1" height="67.1201" rx="2.5" ry="2.5" style="stroke:#181818;stroke-width:0.5;" width="127.165" x="301.82" y="45.24"></rect><ellipse cx="347.5285" cy="61.24" fill="#ADD1B2" rx="11" ry="11" style="stroke:#181818;stroke-width:1;"></ellipse><path d="M346.8722,67.0994 Q344.8879,67.0994 343.716,65.6306 Q342.5597,64.1463 342.5597,61.0681 Q342.5597,58.4588 343.7785,56.7088 Q345.0129,54.9588 347.1379,54.9588 Q347.6379,54.9588 348.1691,55.0994 Q348.6066,55.2869 348.8722,55.2869 Q349.091,55.2869 349.1847,55.24 Q349.2941,55.1931 349.7472,54.5994 L350.5129,58.3338 L349.6222,58.5994 Q349.1691,57.1463 348.5597,56.5525 Q347.966,55.9431 347.0129,55.9431 Q345.7941,55.9431 345.0754,57.3806 Q344.3566,58.8025 344.3566,60.99 Q344.3566,63.3963 344.966,64.6931 Q345.591,65.9744 346.9504,65.9744 Q347.9035,65.9744 348.591,65.2869 Q349.2785,64.5838 349.6066,63.0838 L350.5129,63.49 Q350.1066,65.1931 349.1379,66.1463 Q348.1847,67.0994 346.8722,67.0994 Z " fill="#000000"></path><text fill="#000000" font-family="sans-serif" font-size="14" lengthAdjust="spacing" textLength="27.248" x="368.0285" y="67.7239">Leaf</text><line style="stroke:#181818;stroke-width:0.5;" x1="302.82" x2="427.985" y1="77.24" y2="77.24"></line><line style="stroke:#181818;stroke-width:0.5;" x1="302.82" x2="427.985" y1="85.24" y2="85.24"></line><ellipse cx="312.82" cy="100.3001" fill="#84BE84" rx="3" ry="3" style="stroke:#038048;stroke-width:1;"></ellipse><text fill="#000000" font-family="sans-serif" font-size="14" lengthAdjust="spacing" textLength="101.165" x="321.82" y="105.2839">operation(): void</text></g><!--class Client--><g class="entity" data-entity="Client" data-source-line="20" data-uid="ent0005" id="entity_Client"><rect fill="#F1F1F1" height="48" rx="2.5" ry="2.5" style="stroke:#181818;stroke-width:0.5;" width="67.793" x="463.5" y="54.8"></rect><ellipse cx="478.5" cy="70.8" fill="#ADD1B2" rx="11" ry="11" style="stroke:#181818;stroke-width:1;"></ellipse><path d="M477.8438,76.6594 Q475.8594,76.6594 474.6875,75.1906 Q473.5313,73.7063 473.5313,70.6281 Q473.5313,68.0188 474.75,66.2688 Q475.9844,64.5188 478.1094,64.5188 Q478.6094,64.5188 479.1406,64.6594 Q479.5781,64.8469 479.8438,64.8469 Q480.0625,64.8469 480.1563,64.8 Q480.2656,64.7531 480.7188,64.1594 L481.4844,67.8938 L480.5938,68.1594 Q480.1406,66.7063 479.5313,66.1125 Q478.9375,65.5031 477.9844,65.5031 Q476.7656,65.5031 476.0469,66.9406 Q475.3281,68.3625 475.3281,70.55 Q475.3281,72.9563 475.9375,74.2531 Q476.5625,75.5344 477.9219,75.5344 Q478.875,75.5344 479.5625,74.8469 Q480.25,74.1438 480.5781,72.6438 L481.4844,73.05 Q481.0781,74.7531 480.1094,75.7063 Q479.1563,76.6594 477.8438,76.6594 Z " fill="#000000"></path><text fill="#000000" font-family="sans-serif" font-size="14" lengthAdjust="spacing" textLength="35.793" x="492.5" y="77.2839">Client</text><line style="stroke:#181818;stroke-width:0.5;" x1="464.5" x2="530.293" y1="86.8" y2="86.8"></line><line style="stroke:#181818;stroke-width:0.5;" x1="464.5" x2="530.293" y1="94.8" y2="94.8"></line></g><g class="entity" data-entity="GMN10" data-source-line="29" data-uid="ent0011" id="entity_GMN10"><path d="M6,269.09 L6,314.5988 L170.7998,314.5988 L170.7998,279.09 L160.7998,269.09 L6,269.09" fill="#FEFFDD" style="stroke:#181818;stroke-width:0.5;"></path><path d="M160.7998,269.09 L160.7998,279.09 L170.7998,279.09 L160.7998,269.09" fill="#FEFFDD" style="stroke:#181818;stroke-width:1;"></path><text fill="#000000" font-family="sans-serif" font-size="13" lengthAdjust="spacing" textLength="143.7998" x="12" y="288.9879">for each child in children:</text><text fill="#000000" font-family="sans-serif" font-size="13" lengthAdjust="spacing" textLength="93.2153" x="40.8945" y="306.7423">child.operation()</text></g><!--link Composite to Component--><g class="link" data-entity-1="Composite" data-entity-2="Component" data-source-line="23" data-uid="lnk6" id="link_Composite_Component"><path codeline="23" d="M131.39,150.99 C131.26,167.98 134.27,185.31 143.4,199.6 C149.16,208.61 172.026,220.3853 214.086,238.6953" fill="none" id="Composite-to-Component" style="stroke:#181818;stroke-width:1;stroke-dasharray:7,7;"></path><polygon fill="none" points="230.59,245.88,216.4809,233.194,211.6912,244.1966,230.59,245.88" style="stroke:#181818;stroke-width:1;"></polygon><text fill="#000000" font-family="sans-serif" font-size="13" lengthAdjust="spacing" textLength="66.4663" x="144.4" y="196.4979">implements</text></g><!--link Composite to Component--><g class="link" data-entity-1="Composite" data-entity-2="Component" data-source-line="25" data-uid="lnk8" id="link_Composite_Component"><path codeline="25" d="M219.9308,159.7847 C243.2508,185.1547 257.1186,200.2535 279.6486,224.7535" fill="none" id="Composite-Component" style="stroke:#181818;stroke-width:1;"></path><polygon fill="#181818" points="211.81,150.95,212.9255,158.0743,219.9308,159.7847,218.8153,152.6604,211.81,150.95" style="stroke:#181818;stroke-width:1;"></polygon><polygon fill="#181818" points="283.71,229.17,280.5623,219.8377,280.3255,225.4896,274.6736,225.2528,283.71,229.17" style="stroke:#181818;stroke-width:1;"></polygon><text fill="#000000" font-family="sans-serif" font-size="13" lengthAdjust="spacing" textLength="69.3672" x="256.02" y="196.4979">composition</text></g><!--link Leaf to Component--><g class="link" data-entity-1="Leaf" data-entity-2="Component" data-source-line="24" data-uid="lnk7" id="link_Leaf_Component"><path codeline="24" d="M361.49,112.77 C357.81,143.84 354.3281,173.2951 349.8181,211.3551" fill="none" id="Leaf-to-Component" style="stroke:#181818;stroke-width:1;stroke-dasharray:7,7;"></path><polygon fill="none" points="347.7,229.23,355.7764,212.0611,343.8598,210.649,347.7,229.23" style="stroke:#181818;stroke-width:1;"></polygon><text fill="#000000" font-family="sans-serif" font-size="13" lengthAdjust="spacing" textLength="66.4663" x="353.9" y="196.4979">implements</text></g><!--link Client to Component--><g class="link" data-entity-1="Client" data-entity-2="Component" data-source-line="26" data-uid="lnk9" id="link_Client_Component"><path codeline="26" d="M486.5,102.95 C474.25,127.9 452.97,168.25 429.4,199.6 C421.89,209.59 417.4085,215.1917 408.6685,224.7517" fill="none" id="Client-to-Component" style="stroke:#181818;stroke-width:1;stroke-dasharray:7,7;"></path><polygon fill="#181818" points="404.62,229.18,413.6449,225.2365,407.9937,225.4897,407.7405,219.8386,404.62,229.18" style="stroke:#181818;stroke-width:1;"></polygon><text fill="#000000" font-family="sans-serif" font-size="13" lengthAdjust="spacing" textLength="70.8398" x="443.36" y="196.4979">dependency</text></g><!--link Composite to GMN10--><g class="link" data-entity-1="Composite" data-entity-2="GMN10" data-source-line="29" data-uid="lnk12" id="link_Composite_GMN10"><path d="M119.53,150.97 C116.23,160.85 113.08,170.93 110.4,180.6 C102.07,210.69 95.56,246.23 91.85,268.66" fill="none" id="Composite-GMN10" style="stroke:#181818;stroke-width:1;stroke-dasharray:7,7;"></path></g><!--SRC=[lL0nRiCm39pDLt1qMzWFC8eiMVC9LQ8R0fPeI4IGeitVGyU1rG11nsx4tV78EqvAUNIUS2znbaH9lw5vavcoKvRKlWnu4Ww6kH3QkqZHLpnJb1CzfJv9zqUUGij9aLEWit7R8RW0-CcLiaA5bUnsXtvPoPG6F73Hzqs_-__73kJ6vttKtoU-bMR05WFx_cTN_GRaE4yKRIomMFx5LvFNhdiG-JjZRy1wrNmU585ciZ39Vo504lFu45M9A6Fj69fHCfBpnxLforyhXwQvpVsln62UkBXT0G00]--></g></svg>