<svg xmlns="http://www.w3.org/2000/svg" xmlns:xlink="http://www.w3.org/1999/xlink" contentstyletype="text/css" data-diagram-type="CLASS" height="227px" preserveAspectRatio="none" style="width:183px;height:227px;background:#FFFFFF;" version="1.1" viewBox="0 0 183 227" width="183px" zoomAndPan="magnify"><defs></defs><g><!--class House--><g class="entity" data-entity="House" data-source-line="1" data-uid="ent0002" id="entity_House"><rect fill="#F1F1F1" height="67.1201" rx="2.5" ry="2.5" style="stroke:#181818;stroke-width:0.5;" width="169.9375" x="7" y="7"></rect><ellipse cx="67.4844" cy="23" fill="#ADD1B2" rx="11" ry="11" style="stroke:#181818;stroke-width:1;"></ellipse><path d="M66.8281,28.8594 Q64.8438,28.8594 63.6719,27.3906 Q62.5156,25.9063 62.5156,22.8281 Q62.5156,20.2188 63.7344,18.4688 Q64.9688,16.7188 67.0938,16.7188 Q67.5938,16.7188 68.125,16.8594 Q68.5625,17.0469 68.8281,17.0469 Q69.0469,17.0469 69.1406,17 Q69.25,16.9531 69.7031,16.3594 L70.4688,20.0938 L69.5781,20.3594 Q69.125,18.9063 68.5156,18.3125 Q67.9219,17.7031 66.9688,17.7031 Q65.75,17.7031 65.0313,19.1406 Q64.3125,20.5625 64.3125,22.75 Q64.3125,25.1563 64.9219,26.4531 Q65.5469,27.7344 66.9063,27.7344 Q67.8594,27.7344 68.5469,27.0469 Q69.2344,26.3438 69.5625,24.8438 L70.4688,25.25 Q70.0625,26.9531 69.0938,27.9063 Q68.1406,28.8594 66.8281,28.8594 Z " fill="#000000"></path><text fill="#000000" font-family="sans-serif" font-size="14" lengthAdjust="spacing" textLength="40.4688" x="87.9844" y="29.4839">House</text><line style="stroke:#181818;stroke-width:0.5;" x1="8" x2="175.9375" y1="39" y2="39"></line><line style="stroke:#181818;stroke-width:0.5;" x1="8" x2="175.9375" y1="47" y2="47"></line><ellipse cx="18" cy="62.0601" fill="#84BE84" rx="3" ry="3" style="stroke:#038048;stroke-width:1;"></ellipse><text fill="#000000" font-family="sans-serif" font-size="14" lengthAdjust="spacing" textLength="143.9375" x="27" y="67.0439">House(numRooms: int)</text></g><!--class Room--><g class="entity" data-entity="Room" data-source-line="5" data-uid="ent0003" id="entity_Room"><rect fill="#F1F1F1" height="67.1201" rx="2.5" ry="2.5" style="stroke:#181818;stroke-width:0.5;" width="102.2549" x="40.84" y="153.12"></rect><ellipse cx="70.6496" cy="169.12" fill="#ADD1B2" rx="11" ry="11" style="stroke:#181818;stroke-width:1;"></ellipse><path d="M69.9933,174.9794 Q68.0089,174.9794 66.8371,173.5106 Q65.6808,172.0263 65.6808,168.9481 Q65.6808,166.3388 66.8996,164.5888 Q68.1339,162.8388 70.2589,162.8388 Q70.7589,162.8388 71.2902,162.9794 Q71.7277,163.1669 71.9933,163.1669 Q72.2121,163.1669 72.3058,163.12 Q72.4152,163.0731 72.8683,162.4794 L73.6339,166.2138 L72.7433,166.4794 Q72.2902,165.0263 71.6808,164.4325 Q71.0871,163.8231 70.1339,163.8231 Q68.9152,163.8231 68.1964,165.2606 Q67.4777,166.6825 67.4777,168.87 Q67.4777,171.2763 68.0871,172.5731 Q68.7121,173.8544 70.0714,173.8544 Q71.0246,173.8544 71.7121,173.1669 Q72.3996,172.4638 72.7277,170.9638 L73.6339,171.37 Q73.2277,173.0731 72.2589,174.0263 Q71.3058,174.9794 69.9933,174.9794 Z " fill="#000000"></path><text fill="#000000" font-family="sans-serif" font-size="14" lengthAdjust="spacing" textLength="37.3447" x="87.9406" y="175.6039">Room</text><line style="stroke:#181818;stroke-width:0.5;" x1="41.84" x2="142.0949" y1="185.12" y2="185.12"></line><line style="stroke:#181818;stroke-width:0.5;" x1="41.84" x2="142.0949" y1="193.12" y2="193.12"></line><ellipse cx="51.84" cy="208.1801" fill="#84BE84" rx="3" ry="3" style="stroke:#038048;stroke-width:1;"></ellipse><text fill="#000000" font-family="sans-serif" font-size="14" lengthAdjust="spacing" textLength="76.2549" x="60.84" y="213.1639">clean(): void</text></g><!--reverse link House to Room--><g class="link" data-entity-1="House" data-entity-2="Room" data-source-line="9" data-uid="lnk4" id="link_House_Room"><path codeline="9" d="M91.97,86.26 C91.97,109.85 91.97,129.55 91.97,153.11" fill="none" id="House-backto-Room" style="stroke:#181818;stroke-width:1;"></path><polygon fill="#181818" points="91.97,74.26,87.97,80.26,91.97,86.26,95.97,80.26,91.97,74.26" style="stroke:#181818;stroke-width:1;"></polygon><text fill="#000000" font-family="sans-serif" font-size="13" lengthAdjust="spacing" textLength="59.249" x="92.97" y="120.0179">composes</text></g><!--SRC=[Iyv9B2vMyCWlBKvLgEPIKD06CpNoIdE3ylDpYwqKClDADBbgkRYImGf1WX1roJcfYNaQcbOAPVcPAI0543EqT7KXYgmKalDp2_ABKui1]--></g></svg>