<svg xmlns="http://www.w3.org/2000/svg" xmlns:xlink="http://www.w3.org/1999/xlink" contentstyletype="text/css" data-diagram-type="CLASS" height="276px" preserveAspectRatio="none" style="width:546px;height:276px;background:#FFFFFF;" version="1.1" viewBox="0 0 546 276" width="546px" zoomAndPan="magnify"><defs></defs><g><!--class Handler--><g class="entity" data-entity="Handler" data-source-line="1" data-uid="ent0002" id="entity_Handler"><rect fill="#F1F1F1" height="105.3604" rx="2.5" ry="2.5" style="stroke:#181818;stroke-width:0.5;" width="145.8271" x="305.33" y="158.71"></rect><ellipse cx="349.4899" cy="174.71" fill="#A9DCDF" rx="11" ry="11" style="stroke:#181818;stroke-width:1;"></ellipse><path d="M349.9118,175.1944 L347.3493,175.1944 L346.818,177.4912 Q346.7555,177.8194 346.7555,177.9756 Q346.7555,178.1944 346.8024,178.3506 Q346.8649,178.5069 347.1462,178.5069 L347.6149,178.5069 L347.6149,179.4444 L344.6305,179.4444 L344.6305,178.5069 L345.0837,178.5069 Q345.2555,178.5069 345.3805,178.4131 Q345.5055,178.3037 345.5524,178.0069 L348.193,167.6787 L349.5993,167.21 L352.1774,177.9756 Q352.2868,178.2881 352.4118,178.3975 Q352.5524,178.5069 352.7243,178.5069 L353.193,178.5069 L353.193,179.4444 L349.8024,179.4444 L349.8024,178.5069 L350.3337,178.5069 Q350.5524,178.5069 350.568,178.46 Q350.5993,178.3975 350.5993,178.3194 Q350.5993,178.1006 350.5524,177.9131 L349.9118,175.1944 Z M345.3493,179.0381 L345.3493,179.0381 Z M346.0212,179.0381 L346.0212,179.0381 Z M350.7399,179.0381 L350.7399,179.0381 Z M351.8649,179.0381 L351.8649,179.0381 Z M348.6774,169.1006 L348.7399,169.1006 L347.6305,174.2569 L349.7243,174.2569 L348.6774,169.1006 Z " fill="#000000"></path><text fill="#000000" font-family="sans-serif" font-size="14" font-style="italic" lengthAdjust="spacing" textLength="49.0273" x="369.9699" y="181.1939">Handler</text><line style="stroke:#181818;stroke-width:0.5;" x1="306.33" x2="450.1571" y1="190.71" y2="190.71"></line><rect fill="none" height="6" style="stroke:#C82930;stroke-width:1;" width="6" x="313.33" y="202.7701"></rect><text fill="#000000" font-family="sans-serif" font-size="14" lengthAdjust="spacing" textLength="119.8271" x="325.33" y="210.7539">successor: Handler</text><line style="stroke:#181818;stroke-width:0.5;" x1="306.33" x2="450.1571" y1="217.8301" y2="217.8301"></line><ellipse cx="316.33" cy="232.8902" fill="#84BE84" rx="3" ry="3" style="stroke:#038048;stroke-width:1;"></ellipse><text fill="#000000" font-family="sans-serif" font-size="14" lengthAdjust="spacing" textLength="103.5098" x="325.33" y="237.8741">handleRequest()</text><ellipse cx="316.33" cy="252.0103" fill="#84BE84" rx="3" ry="3" style="stroke:#038048;stroke-width:1;"></ellipse><text fill="#000000" font-family="sans-serif" font-size="14" lengthAdjust="spacing" textLength="93.3584" x="325.33" y="256.9942">setSuccessor()</text></g><!--class ConcreteHandlerA--><g class="entity" data-entity="ConcreteHandlerA" data-source-line="7" data-uid="ent0003" id="entity_ConcreteHandlerA"><rect fill="#F1F1F1" height="67.1201" rx="2.5" ry="2.5" style="stroke:#181818;stroke-width:0.5;" width="147.1719" x="93.66" y="7"></rect><ellipse cx="108.66" cy="23" fill="#ADD1B2" rx="11" ry="11" style="stroke:#181818;stroke-width:1;"></ellipse><path d="M108.0038,28.8594 Q106.0194,28.8594 104.8475,27.3906 Q103.6913,25.9063 103.6913,22.8281 Q103.6913,20.2188 104.91,18.4688 Q106.1444,16.7188 108.2694,16.7188 Q108.7694,16.7188 109.3006,16.8594 Q109.7381,17.0469 110.0038,17.0469 Q110.2225,17.0469 110.3163,17 Q110.4256,16.9531 110.8788,16.3594 L111.6444,20.0938 L110.7538,20.3594 Q110.3006,18.9063 109.6913,18.3125 Q109.0975,17.7031 108.1444,17.7031 Q106.9256,17.7031 106.2069,19.1406 Q105.4881,20.5625 105.4881,22.75 Q105.4881,25.1563 106.0975,26.4531 Q106.7225,27.7344 108.0819,27.7344 Q109.035,27.7344 109.7225,27.0469 Q110.41,26.3438 110.7381,24.8438 L111.6444,25.25 Q111.2381,26.9531 110.2694,27.9063 Q109.3163,28.8594 108.0038,28.8594 Z " fill="#000000"></path><text fill="#000000" font-family="sans-serif" font-size="14" lengthAdjust="spacing" textLength="115.1719" x="122.66" y="29.4839">ConcreteHandlerA</text><line style="stroke:#181818;stroke-width:0.5;" x1="94.66" x2="239.8319" y1="39" y2="39"></line><line style="stroke:#181818;stroke-width:0.5;" x1="94.66" x2="239.8319" y1="47" y2="47"></line><ellipse cx="104.66" cy="62.0601" fill="#84BE84" rx="3" ry="3" style="stroke:#038048;stroke-width:1;"></ellipse><text fill="#000000" font-family="sans-serif" font-size="14" lengthAdjust="spacing" textLength="103.5098" x="113.66" y="67.0439">handleRequest()</text></g><!--class ConcreteHandlerB--><g class="entity" data-entity="ConcreteHandlerB" data-source-line="11" data-uid="ent0004" id="entity_ConcreteHandlerB"><rect fill="#F1F1F1" height="67.1201" rx="2.5" ry="2.5" style="stroke:#181818;stroke-width:0.5;" width="147.1719" x="289.66" y="7"></rect><ellipse cx="304.66" cy="23" fill="#ADD1B2" rx="11" ry="11" style="stroke:#181818;stroke-width:1;"></ellipse><path d="M304.0038,28.8594 Q302.0194,28.8594 300.8475,27.3906 Q299.6913,25.9063 299.6913,22.8281 Q299.6913,20.2188 300.91,18.4688 Q302.1444,16.7188 304.2694,16.7188 Q304.7694,16.7188 305.3006,16.8594 Q305.7381,17.0469 306.0038,17.0469 Q306.2225,17.0469 306.3163,17 Q306.4256,16.9531 306.8788,16.3594 L307.6444,20.0938 L306.7538,20.3594 Q306.3006,18.9063 305.6913,18.3125 Q305.0975,17.7031 304.1444,17.7031 Q302.9256,17.7031 302.2069,19.1406 Q301.4881,20.5625 301.4881,22.75 Q301.4881,25.1563 302.0975,26.4531 Q302.7225,27.7344 304.0819,27.7344 Q305.035,27.7344 305.7225,27.0469 Q306.41,26.3438 306.7381,24.8438 L307.6444,25.25 Q307.2381,26.9531 306.2694,27.9063 Q305.3163,28.8594 304.0038,28.8594 Z " fill="#000000"></path><text fill="#000000" font-family="sans-serif" font-size="14" lengthAdjust="spacing" textLength="115.1719" x="318.66" y="29.4839">ConcreteHandlerB</text><line style="stroke:#181818;stroke-width:0.5;" x1="290.66" x2="435.8319" y1="39" y2="39"></line><line style="stroke:#181818;stroke-width:0.5;" x1="290.66" x2="435.8319" y1="47" y2="47"></line><ellipse cx="300.66" cy="62.0601" fill="#84BE84" rx="3" ry="3" style="stroke:#038048;stroke-width:1;"></ellipse><text fill="#000000" font-family="sans-serif" font-size="14" lengthAdjust="spacing" textLength="103.5098" x="309.66" y="67.0439">handleRequest()</text></g><!--class Client--><g class="entity" data-entity="Client" data-source-line="15" data-uid="ent0005" id="entity_Client"><rect fill="#F1F1F1" height="48" rx="2.5" ry="2.5" style="stroke:#181818;stroke-width:0.5;" width="67.793" x="471.35" y="16.56"></rect><ellipse cx="486.35" cy="32.56" fill="#ADD1B2" rx="11" ry="11" style="stroke:#181818;stroke-width:1;"></ellipse><path d="M485.6938,38.4194 Q483.7094,38.4194 482.5375,36.9506 Q481.3813,35.4662 481.3813,32.3881 Q481.3813,29.7787 482.6,28.0287 Q483.8344,26.2787 485.9594,26.2787 Q486.4594,26.2787 486.9906,26.4194 Q487.4281,26.6069 487.6938,26.6069 Q487.9125,26.6069 488.0063,26.56 Q488.1156,26.5131 488.5688,25.9194 L489.3344,29.6537 L488.4438,29.9194 Q487.9906,28.4662 487.3813,27.8725 Q486.7875,27.2631 485.8344,27.2631 Q484.6156,27.2631 483.8969,28.7006 Q483.1781,30.1225 483.1781,32.31 Q483.1781,34.7162 483.7875,36.0131 Q484.4125,37.2944 485.7719,37.2944 Q486.725,37.2944 487.4125,36.6069 Q488.1,35.9037 488.4281,34.4037 L489.3344,34.81 Q488.9281,36.5131 487.9594,37.4662 Q487.0063,38.4194 485.6938,38.4194 Z " fill="#000000"></path><text fill="#000000" font-family="sans-serif" font-size="14" lengthAdjust="spacing" textLength="35.793" x="500.35" y="39.0439">Client</text><line style="stroke:#181818;stroke-width:0.5;" x1="472.35" x2="538.143" y1="48.56" y2="48.56"></line><line style="stroke:#181818;stroke-width:0.5;" x1="472.35" x2="538.143" y1="56.56" y2="56.56"></line></g><g class="entity" data-entity="GMN9" data-source-line="23" data-uid="ent0010" id="entity_GMN9"><path d="M6,153.12 L6,269.6464 A0,0 0 0 0 6,269.6464 L270.4897,269.6464 A0,0 0 0 0 270.4897,269.6464 L270.4897,163.12 L260.4897,153.12 L152.12,153.12 L161.58,74.52 L144.12,153.12 L6,153.12 A0,0 0 0 0 6,153.12" fill="#FEFFDD" style="stroke:#181818;stroke-width:0.5;"></path><path d="M260.4897,153.12 L260.4897,163.12 L270.4897,163.12 L260.4897,153.12" fill="#FEFFDD" style="stroke:#181818;stroke-width:0.5;"></path><text fill="#000000" font-family="sans-serif" font-size="13" lengthAdjust="spacing" textLength="106.228" x="12" y="173.0179">in handleRuqest():</text><text fill="#000000" font-family="sans-serif" font-size="13" lengthAdjust="spacing" textLength="19.5" x="40.8945" y="190.7723">if(){</text><text fill="#000000" font-family="sans-serif" font-size="13" lengthAdjust="spacing" textLength="59.2236" x="69.7891" y="208.5267">//处理请求</text><text fill="#000000" font-family="sans-serif" font-size="13" lengthAdjust="spacing" textLength="39.7554" x="40.8945" y="226.2811">} else {</text><text fill="#000000" font-family="sans-serif" font-size="13" lengthAdjust="spacing" textLength="185.7007" x="69.7891" y="244.0355">this.successor.handleRequest();</text><text fill="#000000" font-family="sans-serif" font-size="13" lengthAdjust="spacing" textLength="4.3418" x="40.8945" y="261.7899">}</text></g><!--link ConcreteHandlerA to Handler--><g class="link" data-entity-1="ConcreteHandlerA" data-entity-2="Handler" data-source-line="18" data-uid="lnk6" id="link_ConcreteHandlerA_Handler"><path codeline="18" d="M208.43,74.52 C238.17,98.31 264.886,119.6835 299.026,147.0035" fill="none" id="ConcreteHandlerA-to-Handler" style="stroke:#181818;stroke-width:1;"></path><polygon fill="none" points="313.08,158.25,302.7748,142.3188,295.2771,151.6882,313.08,158.25" style="stroke:#181818;stroke-width:1;"></polygon><text fill="#000000" font-family="sans-serif" font-size="13" lengthAdjust="spacing" textLength="45.5317" x="267.42" y="120.0179">extends</text></g><!--link ConcreteHandlerB to Handler--><g class="link" data-entity-1="ConcreteHandlerB" data-entity-2="Handler" data-source-line="19" data-uid="lnk7" id="link_ConcreteHandlerB_Handler"><path codeline="19" d="M366.17,74.52 C368.29,98.31 369.6018,113.0002 372.0218,140.3202" fill="none" id="ConcreteHandlerB-to-Handler" style="stroke:#181818;stroke-width:1;"></path><polygon fill="none" points="373.61,158.25,377.9984,139.7908,366.0452,140.8496,373.61,158.25" style="stroke:#181818;stroke-width:1;"></polygon><text fill="#000000" font-family="sans-serif" font-size="13" lengthAdjust="spacing" textLength="45.5317" x="371.3" y="120.0179">extends</text></g><!--link Client to Handler--><g class="link" data-entity-1="Client" data-entity-2="Handler" data-source-line="20" data-uid="lnk8" id="link_Client_Handler"><path codeline="20" d="M487.59,65.04 C469.52,89.05 444.4771,122.3454 421.0271,153.5154" fill="none" id="Client-to-Handler" style="stroke:#181818;stroke-width:1;stroke-dasharray:7,7;"></path><polygon fill="#181818" points="417.42,158.31,426.0271,153.5228,420.4259,154.3145,419.6343,148.7133,417.42,158.31" style="stroke:#181818;stroke-width:1;"></polygon><text fill="#000000" font-family="sans-serif" font-size="13" lengthAdjust="spacing" textLength="70.8398" x="457.85" y="120.0179">dependency</text></g><!--SRC=[VP0nRi9044NhdLDC2KAsUoD52cceuGJsUX2Mp6xi6KiWGuCGDOT87r7bH0aS8sjZHv49wLR_lvdzVwAOfOYqeCuYPfn69iceg41vN6fDpBO8EnNKQDcyPfINn38OEeL9vXtfX1t0RTEBDReWeNRskVfZ-X4y-H_EKZ9IrKB_4_IyxLCNDqHQ2vc4-zZa4TOiHj__vINqwZmoUWDWh136LiIkq2xk6e9A3RQfoxm97O9IwM8mT7sK2eBFjyFbTBo-VtoTzqxP8MLCs9YoJDd_ERdVAp-kQN11iCu0tm00]--></g></svg>