<svg xmlns="http://www.w3.org/2000/svg" xmlns:xlink="http://www.w3.org/1999/xlink" contentstyletype="text/css" data-diagram-type="CLASS" height="227px" preserveAspectRatio="none" style="width:229px;height:227px;background:#FFFFFF;" version="1.1" viewBox="0 0 229 227" width="229px" zoomAndPan="magnify"><defs></defs><g><!--class Car--><g class="entity" data-entity="Car" data-source-line="1" data-uid="ent0002" id="entity_Car"><rect fill="#F1F1F1" height="67.1201" rx="2.5" ry="2.5" style="stroke:#181818;stroke-width:0.5;" width="215.8682" x="7" y="7"></rect><ellipse cx="99.4048" cy="23" fill="#ADD1B2" rx="11" ry="11" style="stroke:#181818;stroke-width:1;"></ellipse><path d="M98.7485,28.8594 Q96.7642,28.8594 95.5923,27.3906 Q94.436,25.9063 94.436,22.8281 Q94.436,20.2188 95.6548,18.4688 Q96.8892,16.7188 99.0142,16.7188 Q99.5142,16.7188 100.0454,16.8594 Q100.4829,17.0469 100.7485,17.0469 Q100.9673,17.0469 101.061,17 Q101.1704,16.9531 101.6235,16.3594 L102.3892,20.0938 L101.4985,20.3594 Q101.0454,18.9063 100.436,18.3125 Q99.8423,17.7031 98.8892,17.7031 Q97.6704,17.7031 96.9517,19.1406 Q96.2329,20.5625 96.2329,22.75 Q96.2329,25.1563 96.8423,26.4531 Q97.4673,27.7344 98.8267,27.7344 Q99.7798,27.7344 100.4673,27.0469 Q101.1548,26.3438 101.4829,24.8438 L102.3892,25.25 Q101.9829,26.9531 101.0142,27.9063 Q100.061,28.8594 98.7485,28.8594 Z " fill="#000000"></path><text fill="#000000" font-family="sans-serif" font-size="14" lengthAdjust="spacing" textLength="22.5586" x="119.9048" y="29.4839">Car</text><line style="stroke:#181818;stroke-width:0.5;" x1="8" x2="221.8682" y1="39" y2="39"></line><line style="stroke:#181818;stroke-width:0.5;" x1="8" x2="221.8682" y1="47" y2="47"></line><ellipse cx="18" cy="62.0601" fill="#84BE84" rx="3" ry="3" style="stroke:#038048;stroke-width:1;"></ellipse><text fill="#000000" font-family="sans-serif" font-size="14" lengthAdjust="spacing" textLength="189.8682" x="27" y="67.0439">addWheel(wheel: Wheel): void</text></g><!--class Wheel--><g class="entity" data-entity="Wheel" data-source-line="5" data-uid="ent0003" id="entity_Wheel"><rect fill="#F1F1F1" height="67.1201" rx="2.5" ry="2.5" style="stroke:#181818;stroke-width:0.5;" width="104.5859" x="62.64" y="153.12"></rect><ellipse cx="92.4465" cy="169.12" fill="#ADD1B2" rx="11" ry="11" style="stroke:#181818;stroke-width:1;"></ellipse><path d="M91.7902,174.9794 Q89.8059,174.9794 88.634,173.5106 Q87.4777,172.0263 87.4777,168.9481 Q87.4777,166.3388 88.6965,164.5888 Q89.9309,162.8388 92.0559,162.8388 Q92.5559,162.8388 93.0871,162.9794 Q93.5246,163.1669 93.7902,163.1669 Q94.009,163.1669 94.1027,163.12 Q94.2121,163.0731 94.6652,162.4794 L95.4309,166.2138 L94.5402,166.4794 Q94.0871,165.0263 93.4777,164.4325 Q92.884,163.8231 91.9309,163.8231 Q90.7121,163.8231 89.9934,165.2606 Q89.2746,166.6825 89.2746,168.87 Q89.2746,171.2763 89.884,172.5731 Q90.509,173.8544 91.8684,173.8544 Q92.8215,173.8544 93.509,173.1669 Q94.1965,172.4638 94.5246,170.9638 L95.4309,171.37 Q95.0246,173.0731 94.0559,174.0263 Q93.1027,174.9794 91.7902,174.9794 Z " fill="#000000"></path><text fill="#000000" font-family="sans-serif" font-size="14" lengthAdjust="spacing" textLength="39.6826" x="109.7368" y="175.6039">Wheel</text><line style="stroke:#181818;stroke-width:0.5;" x1="63.64" x2="166.2259" y1="185.12" y2="185.12"></line><line style="stroke:#181818;stroke-width:0.5;" x1="63.64" x2="166.2259" y1="193.12" y2="193.12"></line><ellipse cx="73.64" cy="208.1801" fill="#84BE84" rx="3" ry="3" style="stroke:#038048;stroke-width:1;"></ellipse><text fill="#000000" font-family="sans-serif" font-size="14" lengthAdjust="spacing" textLength="78.5859" x="82.64" y="213.1639">rotate(): void</text></g><!--reverse link Car to Wheel--><g class="link" data-entity-1="Car" data-entity-2="Wheel" data-source-line="9" data-uid="lnk4" id="link_Car_Wheel"><path codeline="9" d="M114.93,86.26 C114.93,109.85 114.93,129.55 114.93,153.11" fill="none" id="Car-backto-Wheel" style="stroke:#181818;stroke-width:1;"></path><polygon fill="none" points="114.93,74.26,110.93,80.26,114.93,86.26,118.93,80.26,114.93,74.26" style="stroke:#181818;stroke-width:1;"></polygon><text fill="#000000" font-family="sans-serif" font-size="13" lengthAdjust="spacing" textLength="65.0508" x="115.93" y="120.0179">aggregates</text></g><!--SRC=[Iyv9B2vMS4uiKgZcKb3GJan92Sz8JStHA0UHLWfWZgQLGbb-PWfNBHTNCbWvM1IYeIY_9B4aLGD92SYiV5rTg28hXSJqzABKTA2YOW00]--></g></svg>