<svg xmlns="http://www.w3.org/2000/svg" xmlns:xlink="http://www.w3.org/1999/xlink" contentstyletype="text/css" data-diagram-type="CLASS" height="392px" preserveAspectRatio="none" style="width:709px;height:392px;background:#FFFFFF;" version="1.1" viewBox="0 0 709 392" width="709px" zoomAndPan="magnify"><defs></defs><g><!--class Beverage--><g class="entity" data-entity="Beverage" data-source-line="1" data-uid="ent0002" id="entity_Beverage"><rect fill="#F1F1F1" height="67.1201" rx="2.5" ry="2.5" style="stroke:#181818;stroke-width:0.5;" width="110.8203" x="219" y="318.36"></rect><ellipse cx="242.5003" cy="334.36" fill="#B4A7E5" rx="11" ry="11" style="stroke:#181818;stroke-width:1;"></ellipse><path d="M239.0941,329.1413 L239.0941,328.2038 L244.9378,328.2038 L244.9378,329.1413 L243.141,329.1413 Q242.9691,329.1413 242.891,329.2038 Q242.8128,329.2663 242.8128,329.4069 L242.8128,338.8913 Q242.8128,339.0319 242.891,339.0944 Q242.9691,339.1569 243.141,339.1569 L244.9378,339.1569 L244.9378,340.0944 L239.0941,340.0944 L239.0941,339.1569 L240.891,339.1569 Q241.1097,339.1569 241.1566,339.11 Q241.2191,339.0475 241.2191,338.8913 L241.2191,329.4069 Q241.2191,329.2506 241.1566,329.2038 Q241.1097,329.1413 240.891,329.1413 L239.0941,329.1413 Z " fill="#000000"></path><text fill="#000000" font-family="sans-serif" font-size="14" font-style="italic" lengthAdjust="spacing" textLength="59.9307" x="258.3893" y="340.8439">Beverage</text><line style="stroke:#181818;stroke-width:0.5;" x1="220" x2="328.8203" y1="350.36" y2="350.36"></line><line style="stroke:#181818;stroke-width:0.5;" x1="220" x2="328.8203" y1="358.36" y2="358.36"></line><ellipse cx="230" cy="373.4201" fill="#84BE84" rx="3" ry="3" style="stroke:#038048;stroke-width:1;"></ellipse><text fill="#000000" font-family="sans-serif" font-size="14" lengthAdjust="spacing" textLength="84.8203" x="239" y="378.4039">cost(): double</text></g><!--class Coffee--><g class="entity" data-entity="Coffee" data-source-line="5" data-uid="ent0003" id="entity_Coffee"><rect fill="#F1F1F1" height="67.1201" rx="2.5" ry="2.5" style="stroke:#181818;stroke-width:0.5;" width="110.8203" x="7" y="162.68"></rect><ellipse cx="38.9075" cy="178.68" fill="#ADD1B2" rx="11" ry="11" style="stroke:#181818;stroke-width:1;"></ellipse><path d="M38.2513,184.5394 Q36.2669,184.5394 35.095,183.0706 Q33.9388,181.5863 33.9388,178.5081 Q33.9388,175.8988 35.1575,174.1488 Q36.3919,172.3988 38.5169,172.3988 Q39.0169,172.3988 39.5481,172.5394 Q39.9856,172.7269 40.2513,172.7269 Q40.47,172.7269 40.5638,172.68 Q40.6731,172.6331 41.1263,172.0394 L41.8919,175.7738 L41.0013,176.0394 Q40.5481,174.5863 39.9388,173.9925 Q39.345,173.3831 38.3919,173.3831 Q37.1731,173.3831 36.4544,174.8206 Q35.7356,176.2425 35.7356,178.43 Q35.7356,180.8363 36.345,182.1331 Q36.97,183.4144 38.3294,183.4144 Q39.2825,183.4144 39.97,182.7269 Q40.6575,182.0238 40.9856,180.5238 L41.8919,180.93 Q41.4856,182.6331 40.5169,183.5863 Q39.5638,184.5394 38.2513,184.5394 Z " fill="#000000"></path><text fill="#000000" font-family="sans-serif" font-size="14" lengthAdjust="spacing" textLength="41.248" x="56.6647" y="185.1639">Coffee</text><line style="stroke:#181818;stroke-width:0.5;" x1="8" x2="116.8203" y1="194.68" y2="194.68"></line><line style="stroke:#181818;stroke-width:0.5;" x1="8" x2="116.8203" y1="202.68" y2="202.68"></line><ellipse cx="18" cy="217.7401" fill="#84BE84" rx="3" ry="3" style="stroke:#038048;stroke-width:1;"></ellipse><text fill="#000000" font-family="sans-serif" font-size="14" lengthAdjust="spacing" textLength="84.8203" x="27" y="222.7239">cost(): double</text></g><!--class Tea--><g class="entity" data-entity="Tea" data-source-line="9" data-uid="ent0004" id="entity_Tea"><rect fill="#F1F1F1" height="67.1201" rx="2.5" ry="2.5" style="stroke:#181818;stroke-width:0.5;" width="110.8203" x="153" y="162.68"></rect><ellipse cx="192.6133" cy="178.68" fill="#ADD1B2" rx="11" ry="11" style="stroke:#181818;stroke-width:1;"></ellipse><path d="M191.9571,184.5394 Q189.9727,184.5394 188.8008,183.0706 Q187.6446,181.5863 187.6446,178.5081 Q187.6446,175.8988 188.8633,174.1488 Q190.0977,172.3988 192.2227,172.3988 Q192.7227,172.3988 193.254,172.5394 Q193.6915,172.7269 193.9571,172.7269 Q194.1758,172.7269 194.2696,172.68 Q194.379,172.6331 194.8321,172.0394 L195.5977,175.7738 L194.7071,176.0394 Q194.254,174.5863 193.6446,173.9925 Q193.0508,173.3831 192.0977,173.3831 Q190.879,173.3831 190.1602,174.8206 Q189.4415,176.2425 189.4415,178.43 Q189.4415,180.8363 190.0508,182.1331 Q190.6758,183.4144 192.0352,183.4144 Q192.9883,183.4144 193.6758,182.7269 Q194.3633,182.0238 194.6915,180.5238 L195.5977,180.93 Q195.1915,182.6331 194.2227,183.5863 Q193.2696,184.5394 191.9571,184.5394 Z " fill="#000000"></path><text fill="#000000" font-family="sans-serif" font-size="14" lengthAdjust="spacing" textLength="24.124" x="212.083" y="185.1639">Tea</text><line style="stroke:#181818;stroke-width:0.5;" x1="154" x2="262.8203" y1="194.68" y2="194.68"></line><line style="stroke:#181818;stroke-width:0.5;" x1="154" x2="262.8203" y1="202.68" y2="202.68"></line><ellipse cx="164" cy="217.7401" fill="#84BE84" rx="3" ry="3" style="stroke:#038048;stroke-width:1;"></ellipse><text fill="#000000" font-family="sans-serif" font-size="14" lengthAdjust="spacing" textLength="84.8203" x="173" y="222.7239">cost(): double</text></g><!--class CondimentDecorator--><g class="entity" data-entity="CondimentDecorator" data-source-line="13" data-uid="ent0005" id="entity_CondimentDecorator"><rect fill="#F1F1F1" height="86.2402" rx="2.5" ry="2.5" style="stroke:#181818;stroke-width:0.5;" width="161.1719" x="530.82" y="153.12"></rect><ellipse cx="545.82" cy="169.12" fill="#A9DCDF" rx="11" ry="11" style="stroke:#181818;stroke-width:1;"></ellipse><path d="M546.2419,169.6044 L543.6794,169.6044 L543.1481,171.9013 Q543.0856,172.2294 543.0856,172.3856 Q543.0856,172.6044 543.1325,172.7606 Q543.195,172.9169 543.4763,172.9169 L543.945,172.9169 L543.945,173.8544 L540.9606,173.8544 L540.9606,172.9169 L541.4138,172.9169 Q541.5856,172.9169 541.7106,172.8231 Q541.8356,172.7138 541.8825,172.4169 L544.5231,162.0888 L545.9294,161.62 L548.5075,172.3856 Q548.6169,172.6981 548.7419,172.8075 Q548.8825,172.9169 549.0544,172.9169 L549.5231,172.9169 L549.5231,173.8544 L546.1325,173.8544 L546.1325,172.9169 L546.6638,172.9169 Q546.8825,172.9169 546.8981,172.87 Q546.9294,172.8075 546.9294,172.7294 Q546.9294,172.5106 546.8825,172.3231 L546.2419,169.6044 Z M541.6794,173.4481 L541.6794,173.4481 Z M542.3513,173.4481 L542.3513,173.4481 Z M547.07,173.4481 L547.07,173.4481 Z M548.195,173.4481 L548.195,173.4481 Z M545.0075,163.5106 L545.07,163.5106 L543.9606,168.6669 L546.0544,168.6669 L545.0075,163.5106 Z " fill="#000000"></path><text fill="#000000" font-family="sans-serif" font-size="14" font-style="italic" lengthAdjust="spacing" textLength="129.1719" x="559.82" y="175.6039">CondimentDecorator</text><line style="stroke:#181818;stroke-width:0.5;" x1="531.82" x2="690.9919" y1="185.12" y2="185.12"></line><rect fill="none" height="6" style="stroke:#C82930;stroke-width:1;" width="6" x="538.82" y="197.1801"></rect><text fill="#000000" font-family="sans-serif" font-size="14" lengthAdjust="spacing" textLength="126.0889" x="550.82" y="205.1639">beverage: Beverage</text><line style="stroke:#181818;stroke-width:0.5;" x1="531.82" x2="690.9919" y1="212.2401" y2="212.2401"></line><ellipse cx="541.82" cy="227.3002" fill="#84BE84" rx="3" ry="3" style="stroke:#038048;stroke-width:1;"></ellipse><text fill="#000000" font-family="sans-serif" font-size="14" lengthAdjust="spacing" textLength="84.8203" x="550.82" y="232.2841">cost(): double</text></g><!--class Milk--><g class="entity" data-entity="Milk" data-source-line="18" data-uid="ent0006" id="entity_Milk"><rect fill="#F1F1F1" height="67.1201" rx="2.5" ry="2.5" style="stroke:#181818;stroke-width:0.5;" width="110.8203" x="376" y="7"></rect><ellipse cx="415.2719" cy="23" fill="#ADD1B2" rx="11" ry="11" style="stroke:#181818;stroke-width:1;"></ellipse><path d="M414.6156,28.8594 Q412.6313,28.8594 411.4594,27.3906 Q410.3031,25.9063 410.3031,22.8281 Q410.3031,20.2188 411.5219,18.4688 Q412.7563,16.7188 414.8813,16.7188 Q415.3813,16.7188 415.9125,16.8594 Q416.35,17.0469 416.6156,17.0469 Q416.8344,17.0469 416.9281,17 Q417.0375,16.9531 417.4906,16.3594 L418.2563,20.0938 L417.3656,20.3594 Q416.9125,18.9063 416.3031,18.3125 Q415.7094,17.7031 414.7563,17.7031 Q413.5375,17.7031 412.8188,19.1406 Q412.1,20.5625 412.1,22.75 Q412.1,25.1563 412.7094,26.4531 Q413.3344,27.7344 414.6938,27.7344 Q415.6469,27.7344 416.3344,27.0469 Q417.0219,26.3438 417.35,24.8438 L418.2563,25.25 Q417.85,26.9531 416.8813,27.9063 Q415.9281,28.8594 414.6156,28.8594 Z " fill="#000000"></path><text fill="#000000" font-family="sans-serif" font-size="14" lengthAdjust="spacing" textLength="24.8828" x="434.6656" y="29.4839">Milk</text><line style="stroke:#181818;stroke-width:0.5;" x1="377" x2="485.8203" y1="39" y2="39"></line><line style="stroke:#181818;stroke-width:0.5;" x1="377" x2="485.8203" y1="47" y2="47"></line><ellipse cx="387" cy="62.0601" fill="#84BE84" rx="3" ry="3" style="stroke:#038048;stroke-width:1;"></ellipse><text fill="#000000" font-family="sans-serif" font-size="14" lengthAdjust="spacing" textLength="84.8203" x="396" y="67.0439">cost(): double</text></g><!--class Sugar--><g class="entity" data-entity="Sugar" data-source-line="22" data-uid="ent0007" id="entity_Sugar"><rect fill="#F1F1F1" height="67.1201" rx="2.5" ry="2.5" style="stroke:#181818;stroke-width:0.5;" width="110.8203" x="556" y="7"></rect><ellipse cx="589.6579" cy="23" fill="#ADD1B2" rx="11" ry="11" style="stroke:#181818;stroke-width:1;"></ellipse><path d="M589.0016,28.8594 Q587.0172,28.8594 585.8454,27.3906 Q584.6891,25.9063 584.6891,22.8281 Q584.6891,20.2188 585.9079,18.4688 Q587.1422,16.7188 589.2672,16.7188 Q589.7672,16.7188 590.2985,16.8594 Q590.736,17.0469 591.0016,17.0469 Q591.2204,17.0469 591.3141,17 Q591.4235,16.9531 591.8766,16.3594 L592.6422,20.0938 L591.7516,20.3594 Q591.2985,18.9063 590.6891,18.3125 Q590.0954,17.7031 589.1422,17.7031 Q587.9235,17.7031 587.2047,19.1406 Q586.486,20.5625 586.486,22.75 Q586.486,25.1563 587.0954,26.4531 Q587.7204,27.7344 589.0797,27.7344 Q590.0329,27.7344 590.7204,27.0469 Q591.4079,26.3438 591.736,24.8438 L592.6422,25.25 Q592.236,26.9531 591.2672,27.9063 Q590.3141,28.8594 589.0016,28.8594 Z " fill="#000000"></path><text fill="#000000" font-family="sans-serif" font-size="14" lengthAdjust="spacing" textLength="37.3584" x="607.8041" y="29.4839">Sugar</text><line style="stroke:#181818;stroke-width:0.5;" x1="557" x2="665.8203" y1="39" y2="39"></line><line style="stroke:#181818;stroke-width:0.5;" x1="557" x2="665.8203" y1="47" y2="47"></line><ellipse cx="567" cy="62.0601" fill="#84BE84" rx="3" ry="3" style="stroke:#038048;stroke-width:1;"></ellipse><text fill="#000000" font-family="sans-serif" font-size="14" lengthAdjust="spacing" textLength="84.8203" x="576" y="67.0439">cost(): double</text></g><g class="entity" data-entity="GMN14" data-source-line="35" data-uid="ent0015" id="entity_GMN14"><path d="M520.71,320.29 L520.71,383.5532 A0,0 0 0 0 520.71,383.5532 L702.1089,383.5532 A0,0 0 0 0 702.1089,383.5532 L702.1089,330.29 L692.1089,320.29 L615.41,320.29 L611.41,239.64 L607.41,320.29 L520.71,320.29 A0,0 0 0 0 520.71,320.29" fill="#FEFFDD" style="stroke:#181818;stroke-width:0.5;"></path><path d="M692.1089,320.29 L692.1089,330.29 L702.1089,330.29 L692.1089,320.29" fill="#FEFFDD" style="stroke:#181818;stroke-width:0.5;"></path><text fill="#000000" font-family="sans-serif" font-size="13" lengthAdjust="spacing" textLength="79.4917" x="526.71" y="340.1879">double cost(){</text><text fill="#000000" font-family="sans-serif" font-size="13" lengthAdjust="spacing" textLength="131.5044" x="555.6045" y="357.9423">return beverage.cost();</text><text fill="#000000" font-family="sans-serif" font-size="13" lengthAdjust="spacing" textLength="4.3418" x="526.71" y="375.6967">}</text></g><g class="entity" data-entity="GMN17" data-source-line="41" data-uid="ent0018" id="entity_GMN17"><path d="M299.31,164.61 L299.31,227.8732 A0,0 0 0 0 299.31,227.8732 L495.518,227.8732 A0,0 0 0 0 495.518,227.8732 L495.518,174.61 L485.518,164.61 L408.29,164.61 L424.12,74.53 L400.29,164.61 L299.31,164.61 A0,0 0 0 0 299.31,164.61" fill="#FEFFDD" style="stroke:#181818;stroke-width:0.5;"></path><path d="M485.518,164.61 L485.518,174.61 L495.518,174.61 L485.518,164.61" fill="#FEFFDD" style="stroke:#181818;stroke-width:0.5;"></path><text fill="#000000" font-family="sans-serif" font-size="13" lengthAdjust="spacing" textLength="79.4917" x="305.31" y="184.5079">double cost(){</text><text fill="#000000" font-family="sans-serif" font-size="13" lengthAdjust="spacing" textLength="142.7017" x="334.2045" y="202.2623">return super.cost() + 0.5;</text><text fill="#000000" font-family="sans-serif" font-size="13" lengthAdjust="spacing" textLength="4.3418" x="305.31" y="220.0167">}</text></g><!--link Coffee to Beverage--><g class="link" data-entity-1="Coffee" data-entity-2="Beverage" data-source-line="26" data-uid="lnk8" id="link_Coffee_Beverage"><path codeline="26" d="M87.48,230.02 C103,248.77 124.15,271.78 146.41,288.36 C168.33,304.69 178.7455,311.2156 202.1855,321.7256" fill="none" id="Coffee-to-Beverage" style="stroke:#181818;stroke-width:1;stroke-dasharray:7,7;"></path><polygon fill="none" points="218.61,329.09,204.6403,316.2507,199.7307,327.2004,218.61,329.09" style="stroke:#181818;stroke-width:1;"></polygon><text fill="#000000" font-family="sans-serif" font-size="13" lengthAdjust="spacing" textLength="66.4663" x="147.41" y="285.2579">implements</text></g><!--link Tea to Beverage--><g class="link" data-entity-1="Tea" data-entity-2="Beverage" data-source-line="27" data-uid="lnk9" id="link_Tea_Beverage"><path codeline="27" d="M212.2,229.91 C215.1,247.76 220.06,269.92 228.41,288.36 C233.08,298.68 229.0133,294.4316 235.7133,303.5916" fill="none" id="Tea-to-Beverage" style="stroke:#181818;stroke-width:1;stroke-dasharray:7,7;"></path><polygon fill="none" points="246.34,318.12,240.5561,300.0494,230.8705,307.1338,246.34,318.12" style="stroke:#181818;stroke-width:1;"></polygon><text fill="#000000" font-family="sans-serif" font-size="13" lengthAdjust="spacing" textLength="66.4663" x="229.41" y="285.2579">implements</text></g><!--link CondimentDecorator to Beverage--><g class="link" data-entity-1="CondimentDecorator" data-entity-2="Beverage" data-source-line="28" data-uid="lnk10" id="link_CondimentDecorator_Beverage"><path codeline="28" d="M530.56,233.33 C524.8,235.48 519.04,237.52 513.41,239.36 C456.63,257.89 436.55,244.14 382.41,269.36 C356,281.66 343.5909,289.5648 323.6309,306.4248" fill="none" id="CondimentDecorator-to-Beverage" style="stroke:#181818;stroke-width:1;stroke-dasharray:7,7;"></path><polygon fill="none" points="309.88,318.04,327.5026,311.0084,319.7591,301.8412,309.88,318.04" style="stroke:#181818;stroke-width:1;"></polygon><text fill="#000000" font-family="sans-serif" font-size="13" lengthAdjust="spacing" textLength="66.4663" x="383.41" y="285.2579">implements</text></g><!--link CondimentDecorator to Beverage--><g class="link" data-entity-1="CondimentDecorator" data-entity-2="Beverage" data-source-line="29" data-uid="lnk11" id="link_CondimentDecorator_Beverage"><path codeline="29" d="M534.2398,246.0234 C506.9198,262.4134 484.92,274.36 454.41,288.36 C413.97,306.92 372.0551,321.4448 335.9551,332.7648" fill="none" id="CondimentDecorator-Beverage" style="stroke:#181818;stroke-width:1;"></path><polygon fill="none" points="544.53,239.85,537.3271,239.5066,534.2398,246.0234,541.4427,246.3668,544.53,239.85" style="stroke:#181818;stroke-width:1;"></polygon><polygon fill="#181818" points="330.23,334.56,340.0145,335.6839,335.0009,333.064,337.6209,328.0504,330.23,334.56" style="stroke:#181818;stroke-width:1;"></polygon><text fill="#000000" font-family="sans-serif" font-size="13" lengthAdjust="spacing" textLength="70.1099" x="491.02" y="285.2579">Aggregation</text></g><!--link Milk to CondimentDecorator--><g class="link" data-entity-1="Milk" data-entity-2="CondimentDecorator" data-source-line="30" data-uid="lnk12" id="link_Milk_CondimentDecorator"><path codeline="30" d="M470.02,74.53 C496.78,97.37 518.9623,116.3003 547.8723,140.9903" fill="none" id="Milk-to-CondimentDecorator" style="stroke:#181818;stroke-width:1;"></path><polygon fill="none" points="561.56,152.68,551.7689,136.4278,543.9758,145.5529,561.56,152.68" style="stroke:#181818;stroke-width:1;"></polygon><text fill="#000000" font-family="sans-serif" font-size="13" lengthAdjust="spacing" textLength="45.5317" x="527.81" y="120.0179">extends</text></g><!--link Sugar to CondimentDecorator--><g class="link" data-entity-1="Sugar" data-entity-2="CondimentDecorator" data-source-line="31" data-uid="lnk13" id="link_Sugar_CondimentDecorator"><path codeline="31" d="M611.41,74.53 C611.41,97.37 611.41,109.99 611.41,134.68" fill="none" id="Sugar-to-CondimentDecorator" style="stroke:#181818;stroke-width:1;"></path><polygon fill="none" points="611.41,152.68,617.41,134.68,605.41,134.68,611.41,152.68" style="stroke:#181818;stroke-width:1;"></polygon><text fill="#000000" font-family="sans-serif" font-size="13" lengthAdjust="spacing" textLength="45.5317" x="612.41" y="120.0179">extends</text></g><!--SRC=[bP7DJiD038JFyLFu2AesweLBAY7nS-LKNc2pSLOhadNbTH0IzDtPaBO29GHnzlZpp3X49Mcj8xodLnBhwHsAZUEaLzSLDZpK7S4Hm7Ks9NpWjgLLnJFPvR6jaufrYcTIR49FKH_9iLXboMkcFdceBcvMJZs5xcNDodxmLfO5Kmuiou_RowKAGt_eQFIK8CTOcSxD_q_CndmNttalvAq6ZZ26GcCoRBvN8RqfnIR1LxI_PG2HbR1cLUwHsmKn55ChE9MKwog4T928vr-KqsG7nH4o5KVa33pQ_XsLXWF9YOCRt9OtE_o1-mG0]--></g></svg>