<svg xmlns="http://www.w3.org/2000/svg" xmlns:xlink="http://www.w3.org/1999/xlink" contentstyletype="text/css" data-diagram-type="CLASS" height="411px" preserveAspectRatio="none" style="width:634px;height:411px;background:#FFFFFF;" version="1.1" viewBox="0 0 634 411" width="634px" zoomAndPan="magnify"><defs></defs><g><!--class Component--><g class="entity" data-entity="Component" data-source-line="1" data-uid="ent0002" id="entity_Component"><rect fill="#F1F1F1" height="67.1201" rx="2.5" ry="2.5" style="stroke:#181818;stroke-width:0.5;" width="127.165" x="269.01" y="337.48"></rect><ellipse cx="294.2638" cy="353.48" fill="#B4A7E5" rx="11" ry="11" style="stroke:#181818;stroke-width:1;"></ellipse><path d="M290.8575,348.2613 L290.8575,347.3238 L296.7013,347.3238 L296.7013,348.2613 L294.9044,348.2613 Q294.7325,348.2613 294.6544,348.3238 Q294.5763,348.3863 294.5763,348.5269 L294.5763,358.0113 Q294.5763,358.1519 294.6544,358.2144 Q294.7325,358.2769 294.9044,358.2769 L296.7013,358.2769 L296.7013,359.2144 L290.8575,359.2144 L290.8575,358.2769 L292.6544,358.2769 Q292.8731,358.2769 292.92,358.23 Q292.9825,358.1675 292.9825,358.0113 L292.9825,348.5269 Q292.9825,348.3706 292.92,348.3238 Q292.8731,348.2613 292.6544,348.2613 L290.8575,348.2613 Z " fill="#000000"></path><text fill="#000000" font-family="sans-serif" font-size="14" font-style="italic" lengthAdjust="spacing" textLength="72.3789" x="310.5424" y="359.9639">Component</text><line style="stroke:#181818;stroke-width:0.5;" x1="270.01" x2="395.175" y1="369.48" y2="369.48"></line><line style="stroke:#181818;stroke-width:0.5;" x1="270.01" x2="395.175" y1="377.48" y2="377.48"></line><ellipse cx="280.01" cy="392.5401" fill="#84BE84" rx="3" ry="3" style="stroke:#038048;stroke-width:1;"></ellipse><text fill="#000000" font-family="sans-serif" font-size="14" lengthAdjust="spacing" textLength="101.165" x="289.01" y="397.5239">operation(): void</text></g><!--class ConcreteComponent--><g class="entity" data-entity="ConcreteComponent" data-source-line="5" data-uid="ent0003" id="entity_ConcreteComponent"><rect fill="#F1F1F1" height="67.1201" rx="2.5" ry="2.5" style="stroke:#181818;stroke-width:0.5;" width="161.1855" x="7" y="181.8"></rect><ellipse cx="22" cy="197.8" fill="#ADD1B2" rx="11" ry="11" style="stroke:#181818;stroke-width:1;"></ellipse><path d="M21.3438,203.6594 Q19.3594,203.6594 18.1875,202.1906 Q17.0313,200.7063 17.0313,197.6281 Q17.0313,195.0188 18.25,193.2688 Q19.4844,191.5188 21.6094,191.5188 Q22.1094,191.5188 22.6406,191.6594 Q23.0781,191.8469 23.3438,191.8469 Q23.5625,191.8469 23.6563,191.8 Q23.7656,191.7531 24.2188,191.1594 L24.9844,194.8938 L24.0938,195.1594 Q23.6406,193.7063 23.0313,193.1125 Q22.4375,192.5031 21.4844,192.5031 Q20.2656,192.5031 19.5469,193.9406 Q18.8281,195.3625 18.8281,197.55 Q18.8281,199.9563 19.4375,201.2531 Q20.0625,202.5344 21.4219,202.5344 Q22.375,202.5344 23.0625,201.8469 Q23.75,201.1438 24.0781,199.6438 L24.9844,200.05 Q24.5781,201.7531 23.6094,202.7063 Q22.6563,203.6594 21.3438,203.6594 Z " fill="#000000"></path><text fill="#000000" font-family="sans-serif" font-size="14" lengthAdjust="spacing" textLength="129.1855" x="36" y="204.2839">ConcreteComponent</text><line style="stroke:#181818;stroke-width:0.5;" x1="8" x2="167.1855" y1="213.8" y2="213.8"></line><line style="stroke:#181818;stroke-width:0.5;" x1="8" x2="167.1855" y1="221.8" y2="221.8"></line><ellipse cx="18" cy="236.8601" fill="#84BE84" rx="3" ry="3" style="stroke:#038048;stroke-width:1;"></ellipse><text fill="#000000" font-family="sans-serif" font-size="14" lengthAdjust="spacing" textLength="101.165" x="27" y="241.8439">operation(): void</text></g><!--class Decorator--><g class="entity" data-entity="Decorator" data-source-line="9" data-uid="ent0004" id="entity_Decorator"><rect fill="#F1F1F1" height="86.2402" rx="2.5" ry="2.5" style="stroke:#181818;stroke-width:0.5;" width="175.4268" x="402.88" y="172.24"></rect><ellipse cx="455.609" cy="188.24" fill="#A9DCDF" rx="11" ry="11" style="stroke:#181818;stroke-width:1;"></ellipse><path d="M456.0309,188.7244 L453.4684,188.7244 L452.9371,191.0213 Q452.8746,191.3494 452.8746,191.5056 Q452.8746,191.7244 452.9215,191.8806 Q452.984,192.0369 453.2653,192.0369 L453.734,192.0369 L453.734,192.9744 L450.7496,192.9744 L450.7496,192.0369 L451.2028,192.0369 Q451.3746,192.0369 451.4996,191.9431 Q451.6246,191.8338 451.6715,191.5369 L454.3121,181.2088 L455.7184,180.74 L458.2965,191.5056 Q458.4059,191.8181 458.5309,191.9275 Q458.6715,192.0369 458.8434,192.0369 L459.3121,192.0369 L459.3121,192.9744 L455.9215,192.9744 L455.9215,192.0369 L456.4528,192.0369 Q456.6715,192.0369 456.6871,191.99 Q456.7184,191.9275 456.7184,191.8494 Q456.7184,191.6306 456.6715,191.4431 L456.0309,188.7244 Z M451.4684,192.5681 L451.4684,192.5681 Z M452.1403,192.5681 L452.1403,192.5681 Z M456.859,192.5681 L456.859,192.5681 Z M457.984,192.5681 L457.984,192.5681 Z M454.7965,182.6306 L454.859,182.6306 L453.7496,187.7869 L455.8434,187.7869 L454.7965,182.6306 Z " fill="#000000"></path><text fill="#000000" font-family="sans-serif" font-size="14" font-style="italic" lengthAdjust="spacing" textLength="61.4688" x="476.109" y="194.7239">Decorator</text><line style="stroke:#181818;stroke-width:0.5;" x1="403.88" x2="577.3068" y1="204.24" y2="204.24"></line><rect fill="none" height="6" style="stroke:#C82930;stroke-width:1;" width="6" x="410.88" y="216.3001"></rect><text fill="#000000" font-family="sans-serif" font-size="14" lengthAdjust="spacing" textLength="149.4268" x="422.88" y="224.2839">component: Component</text><line style="stroke:#181818;stroke-width:0.5;" x1="403.88" x2="577.3068" y1="231.3601" y2="231.3601"></line><ellipse cx="413.88" cy="246.4202" fill="#84BE84" rx="3" ry="3" style="stroke:#038048;stroke-width:1;"></ellipse><text fill="#000000" font-family="sans-serif" font-size="14" lengthAdjust="spacing" textLength="101.165" x="422.88" y="251.4041">operation(): void</text></g><!--class ConcreteDecoratorA--><g class="entity" data-entity="ConcreteDecoratorA" data-source-line="14" data-uid="ent0005" id="entity_ConcreteDecoratorA"><rect fill="#F1F1F1" height="86.2402" rx="2.5" ry="2.5" style="stroke:#181818;stroke-width:0.5;" width="162.9717" x="209.11" y="7"></rect><ellipse cx="225.6213" cy="23" fill="#ADD1B2" rx="11" ry="11" style="stroke:#181818;stroke-width:1;"></ellipse><path d="M224.965,28.8594 Q222.9807,28.8594 221.8088,27.3906 Q220.6525,25.9063 220.6525,22.8281 Q220.6525,20.2188 221.8713,18.4688 Q223.1057,16.7188 225.2307,16.7188 Q225.7307,16.7188 226.2619,16.8594 Q226.6994,17.0469 226.965,17.0469 Q227.1838,17.0469 227.2775,17 Q227.3869,16.9531 227.84,16.3594 L228.6057,20.0938 L227.715,20.3594 Q227.2619,18.9063 226.6525,18.3125 Q226.0588,17.7031 225.1057,17.7031 Q223.8869,17.7031 223.1682,19.1406 Q222.4494,20.5625 222.4494,22.75 Q222.4494,25.1563 223.0588,26.4531 Q223.6838,27.7344 225.0432,27.7344 Q225.9963,27.7344 226.6838,27.0469 Q227.3713,26.3438 227.6994,24.8438 L228.6057,25.25 Q228.1994,26.9531 227.2307,27.9063 Q226.2775,28.8594 224.965,28.8594 Z " fill="#000000"></path><text fill="#000000" font-family="sans-serif" font-size="14" lengthAdjust="spacing" textLength="127.6133" x="239.9571" y="29.4839">ConcreteDecoratorA</text><line style="stroke:#181818;stroke-width:0.5;" x1="210.11" x2="371.0817" y1="39" y2="39"></line><line style="stroke:#181818;stroke-width:0.5;" x1="210.11" x2="371.0817" y1="47" y2="47"></line><ellipse cx="220.11" cy="62.0601" fill="#84BE84" rx="3" ry="3" style="stroke:#038048;stroke-width:1;"></ellipse><text fill="#000000" font-family="sans-serif" font-size="14" lengthAdjust="spacing" textLength="101.165" x="229.11" y="67.0439">operation(): void</text><ellipse cx="220.11" cy="81.1802" fill="#84BE84" rx="3" ry="3" style="stroke:#038048;stroke-width:1;"></ellipse><text fill="#000000" font-family="sans-serif" font-size="14" lengthAdjust="spacing" textLength="136.9717" x="229.11" y="86.1641">addedBehavior(): void</text></g><!--class ConcreteDecoratorB--><g class="entity" data-entity="ConcreteDecoratorB" data-source-line="19" data-uid="ent0006" id="entity_ConcreteDecoratorB"><rect fill="#F1F1F1" height="86.2402" rx="2.5" ry="2.5" style="stroke:#181818;stroke-width:0.5;" width="159.6133" x="410.79" y="7"></rect><ellipse cx="425.79" cy="23" fill="#ADD1B2" rx="11" ry="11" style="stroke:#181818;stroke-width:1;"></ellipse><path d="M425.1338,28.8594 Q423.1494,28.8594 421.9775,27.3906 Q420.8213,25.9063 420.8213,22.8281 Q420.8213,20.2188 422.04,18.4688 Q423.2744,16.7188 425.3994,16.7188 Q425.8994,16.7188 426.4306,16.8594 Q426.8681,17.0469 427.1338,17.0469 Q427.3525,17.0469 427.4463,17 Q427.5556,16.9531 428.0088,16.3594 L428.7744,20.0938 L427.8838,20.3594 Q427.4306,18.9063 426.8213,18.3125 Q426.2275,17.7031 425.2744,17.7031 Q424.0556,17.7031 423.3369,19.1406 Q422.6181,20.5625 422.6181,22.75 Q422.6181,25.1563 423.2275,26.4531 Q423.8525,27.7344 425.2119,27.7344 Q426.165,27.7344 426.8525,27.0469 Q427.54,26.3438 427.8681,24.8438 L428.7744,25.25 Q428.3681,26.9531 427.3994,27.9063 Q426.4463,28.8594 425.1338,28.8594 Z " fill="#000000"></path><text fill="#000000" font-family="sans-serif" font-size="14" lengthAdjust="spacing" textLength="127.6133" x="439.79" y="29.4839">ConcreteDecoratorB</text><line style="stroke:#181818;stroke-width:0.5;" x1="411.79" x2="569.4033" y1="39" y2="39"></line><rect fill="none" height="6" style="stroke:#C82930;stroke-width:1;" width="6" x="418.79" y="51.0601"></rect><text fill="#000000" font-family="sans-serif" font-size="14" lengthAdjust="spacing" textLength="71.6201" x="430.79" y="59.0439">addedState</text><line style="stroke:#181818;stroke-width:0.5;" x1="411.79" x2="569.4033" y1="66.1201" y2="66.1201"></line><ellipse cx="421.79" cy="81.1802" fill="#84BE84" rx="3" ry="3" style="stroke:#038048;stroke-width:1;"></ellipse><text fill="#000000" font-family="sans-serif" font-size="14" lengthAdjust="spacing" textLength="101.165" x="430.79" y="86.1641">operation(): void</text></g><g class="entity" data-entity="GMN12" data-source-line="31" data-uid="ent0013" id="entity_GMN12"><path d="M443.44,339.41 L443.44,402.6732 L627.7462,402.6732 L627.7462,349.41 L617.7462,339.41 L443.44,339.41" fill="#FEFFDD" style="stroke:#181818;stroke-width:0.5;"></path><path d="M617.7462,339.41 L617.7462,349.41 L627.7462,349.41 L617.7462,339.41" fill="#FEFFDD" style="stroke:#181818;stroke-width:1;"></path><text fill="#000000" font-family="sans-serif" font-size="13" lengthAdjust="spacing" textLength="67.209" x="449.44" y="359.3079">operation(){</text><text fill="#000000" font-family="sans-serif" font-size="13" lengthAdjust="spacing" textLength="134.4116" x="478.3345" y="377.0623">component.operation();</text><text fill="#000000" font-family="sans-serif" font-size="13" lengthAdjust="spacing" textLength="4.3418" x="449.44" y="394.8167">}</text></g><g class="entity" data-entity="GMN15" data-source-line="37" data-uid="ent0016" id="entity_GMN15"><path d="M202.86,174.85 L202.86,255.8676 A0,0 0 0 0 202.86,255.8676 L368.3327,255.8676 A0,0 0 0 0 368.3327,255.8676 L368.3327,184.85 L358.3327,174.85 L290.82,174.85 L289.29,93.58 L282.82,174.85 L202.86,174.85 A0,0 0 0 0 202.86,174.85" fill="#FEFFDD" style="stroke:#181818;stroke-width:0.5;"></path><path d="M358.3327,174.85 L358.3327,184.85 L368.3327,184.85 L358.3327,174.85" fill="#FEFFDD" style="stroke:#181818;stroke-width:0.5;"></path><text fill="#000000" font-family="sans-serif" font-size="13" lengthAdjust="spacing" textLength="67.209" x="208.86" y="194.7479">operation(){</text><text fill="#000000" font-family="sans-serif" font-size="13" lengthAdjust="spacing" textLength="102.6099" x="237.7545" y="212.5023">super.operation();</text><text fill="#000000" font-family="sans-serif" font-size="13" lengthAdjust="spacing" textLength="99.728" x="237.7545" y="230.2567">addedBehavior();</text><text fill="#000000" font-family="sans-serif" font-size="13" lengthAdjust="spacing" textLength="4.3418" x="208.86" y="248.0111">}</text></g><!--link ConcreteComponent to Component--><g class="link" data-entity-1="ConcreteComponent" data-entity-2="Component" data-source-line="24" data-uid="lnk7" id="link_ConcreteComponent_Component"><path codeline="24" d="M140.15,249.33 C181.49,275.26 223.5628,301.6432 264.8728,327.5632" fill="none" id="ConcreteComponent-to-Component" style="stroke:#181818;stroke-width:1;stroke-dasharray:7,7;"></path><polygon fill="none" points="280.12,337.13,268.0618,322.4808,261.6839,332.6455,280.12,337.13" style="stroke:#181818;stroke-width:1;"></polygon><text fill="#000000" font-family="sans-serif" font-size="13" lengthAdjust="spacing" textLength="66.4663" x="233.04" y="304.3779">implements</text></g><!--link Decorator to Component--><g class="link" data-entity-1="Decorator" data-entity-2="Component" data-source-line="25" data-uid="lnk8" id="link_Decorator_Component"><path codeline="25" d="M453.04,258.57 C438.58,274.3 421.68,292.06 405.59,307.48 C395.23,317.41 397.254,316.0127 386.374,325.3427" fill="none" id="Decorator-to-Component" style="stroke:#181818;stroke-width:1;stroke-dasharray:7,7;"></path><polygon fill="none" points="372.71,337.06,390.2797,329.8973,382.4682,320.788,372.71,337.06" style="stroke:#181818;stroke-width:1;"></polygon><text fill="#000000" font-family="sans-serif" font-size="13" lengthAdjust="spacing" textLength="66.4663" x="423.54" y="304.3779">implements</text></g><!--link Decorator to Component--><g class="link" data-entity-1="Decorator" data-entity-2="Component" data-source-line="26" data-uid="lnk9" id="link_Decorator_Component"><path codeline="26" d="M391.4811,257.1284 C353.5211,273.1184 328.16,284.56 325.59,288.48 C316.33,302.63 315.884,315.3961 319.454,331.2761" fill="none" id="Decorator-Component" style="stroke:#181818;stroke-width:1;"></path><polygon fill="none" points="402.54,252.47,395.4578,251.1129,391.4811,257.1284,398.5633,258.4855,402.54,252.47" style="stroke:#181818;stroke-width:1;"></polygon><polygon fill="#181818" points="320.77,337.13,322.6986,327.4718,319.6733,332.2518,314.8934,329.2265,320.77,337.13" style="stroke:#181818;stroke-width:1;"></polygon><text fill="#000000" font-family="sans-serif" font-size="13" lengthAdjust="spacing" textLength="70.1099" x="326.59" y="304.3779">Aggregation</text></g><!--link ConcreteDecoratorA to Decorator--><g class="link" data-entity-1="ConcreteDecoratorA" data-entity-2="Decorator" data-source-line="27" data-uid="lnk10" id="link_ConcreteDecoratorA_Decorator"><path codeline="27" d="M342.62,93.58 C372.13,117.67 395.007,136.3361 424.537,160.4461" fill="none" id="ConcreteDecoratorA-to-Decorator" style="stroke:#181818;stroke-width:1;"></path><polygon fill="none" points="438.48,171.83,428.3316,155.7985,420.7424,165.0938,438.48,171.83" style="stroke:#181818;stroke-width:1;"></polygon><text fill="#000000" font-family="sans-serif" font-size="13" lengthAdjust="spacing" textLength="45.5317" x="397.59" y="139.1379">extends</text></g><!--link ConcreteDecoratorB to Decorator--><g class="link" data-entity-1="ConcreteDecoratorB" data-entity-2="Decorator" data-source-line="28" data-uid="lnk11" id="link_ConcreteDecoratorB_Decorator"><path codeline="28" d="M490.59,93.58 C490.59,117.67 490.59,129.72 490.59,153.83" fill="none" id="ConcreteDecoratorB-to-Decorator" style="stroke:#181818;stroke-width:1;"></path><polygon fill="none" points="490.59,171.83,496.59,153.83,484.59,153.83,490.59,171.83" style="stroke:#181818;stroke-width:1;"></polygon><text fill="#000000" font-family="sans-serif" font-size="13" lengthAdjust="spacing" textLength="45.5317" x="491.59" y="139.1379">extends</text></g><!--link Decorator to GMN12--><g class="link" data-entity-1="Decorator" data-entity-2="GMN12" data-source-line="31" data-uid="lnk14" id="link_Decorator_GMN12"><path d="M504.53,258.97 C507.6,268.65 510.77,278.9 513.59,288.48 C518.48,305.08 523.53,323.71 527.56,338.96" fill="none" id="Decorator-GMN12" style="stroke:#181818;stroke-width:1;stroke-dasharray:7,7;"></path></g><!--SRC=[ZP5DRi8m48NNdbFCiWWv1mXI9TBUe2SmzX0i4KzaJn4IvUurL7K04xKxZ_pUz-R71w6uDPRmZOUH0mKvWLhoID68v_2oQF70ti4PmEvDIbaNR2IXl_LcaoGQA_XZV2VBMSGn6xJzTRTJy3EEgeCBP_qyMIsDS-Gwsfc3vpW_GG5rCo1z1Ns84RgugycnQRvUf_vRzCEufo4_4nJu_qIizPretVUH-ci_K0-EMcTcgLkaer1mgPPsir88B8GR5k41UJj9GDsi8cz6bLirDnyhK6V88BnWAbZTSaLDdxb-8Ag7owtKNSet]--></g></svg>