<svg xmlns="http://www.w3.org/2000/svg" xmlns:xlink="http://www.w3.org/1999/xlink" contentstyletype="text/css" data-diagram-type="CLASS" height="526px" preserveAspectRatio="none" style="width:541px;height:526px;background:#FFFFFF;" version="1.1" viewBox="0 0 541 526" width="541px" zoomAndPan="magnify"><defs></defs><g><!--class Iterator--><g class="entity" data-entity="Iterator" data-source-line="1" data-uid="ent0002" id="entity_Iterator"><rect fill="#F1F1F1" height="124.4805" rx="2.5" ry="2.5" style="stroke:#181818;stroke-width:0.5;" width="154.3652" x="7" y="248.72"></rect><ellipse cx="57.7568" cy="264.72" fill="#B4A7E5" rx="11" ry="11" style="stroke:#181818;stroke-width:1;"></ellipse><path d="M54.3506,259.5013 L54.3506,258.5638 L60.1943,258.5638 L60.1943,259.5013 L58.3975,259.5013 Q58.2256,259.5013 58.1475,259.5638 Q58.0693,259.6263 58.0693,259.7669 L58.0693,269.2513 Q58.0693,269.3919 58.1475,269.4544 Q58.2256,269.5169 58.3975,269.5169 L60.1943,269.5169 L60.1943,270.4544 L54.3506,270.4544 L54.3506,269.5169 L56.1475,269.5169 Q56.3662,269.5169 56.4131,269.47 Q56.4756,269.4075 56.4756,269.2513 L56.4756,259.7669 Q56.4756,259.6106 56.4131,259.5638 Q56.3662,259.5013 56.1475,259.5013 L54.3506,259.5013 Z " fill="#000000"></path><text fill="#000000" font-family="sans-serif" font-size="14" font-style="italic" lengthAdjust="spacing" textLength="44.3516" x="78.2568" y="271.2039">Iterator</text><line style="stroke:#181818;stroke-width:0.5;" x1="8" x2="160.3652" y1="280.72" y2="280.72"></line><line style="stroke:#181818;stroke-width:0.5;" x1="8" x2="160.3652" y1="288.72" y2="288.72"></line><ellipse cx="18" cy="303.7801" fill="#84BE84" rx="3" ry="3" style="stroke:#038048;stroke-width:1;"></ellipse><text fill="#000000" font-family="sans-serif" font-size="14" lengthAdjust="spacing" textLength="31.876" x="27" y="308.7639">first()</text><ellipse cx="18" cy="322.9002" fill="#84BE84" rx="3" ry="3" style="stroke:#038048;stroke-width:1;"></ellipse><text fill="#000000" font-family="sans-serif" font-size="14" lengthAdjust="spacing" textLength="35.7861" x="27" y="327.8841">next()</text><ellipse cx="18" cy="342.0203" fill="#84BE84" rx="3" ry="3" style="stroke:#038048;stroke-width:1;"></ellipse><text fill="#000000" font-family="sans-serif" font-size="14" lengthAdjust="spacing" textLength="60.6826" x="27" y="347.0042">hasNext()</text><ellipse cx="18" cy="361.1404" fill="#84BE84" rx="3" ry="3" style="stroke:#038048;stroke-width:1;"></ellipse><text fill="#000000" font-family="sans-serif" font-size="14" lengthAdjust="spacing" textLength="128.3652" x="27" y="366.1243">currentItem(): Object</text></g><!--class ConcreteIterator--><g class="entity" data-entity="ConcreteIterator" data-source-line="8" data-uid="ent0003" id="entity_ConcreteIterator"><rect fill="#F1F1F1" height="162.7207" rx="2.5" ry="2.5" style="stroke:#181818;stroke-width:0.5;" width="218.2471" x="83.06" y="7"></rect><ellipse cx="137.3544" cy="23" fill="#ADD1B2" rx="11" ry="11" style="stroke:#181818;stroke-width:1;"></ellipse><path d="M136.6982,28.8594 Q134.7138,28.8594 133.5419,27.3906 Q132.3857,25.9063 132.3857,22.8281 Q132.3857,20.2188 133.6044,18.4688 Q134.8388,16.7188 136.9638,16.7188 Q137.4638,16.7188 137.9951,16.8594 Q138.4326,17.0469 138.6982,17.0469 Q138.9169,17.0469 139.0107,17 Q139.1201,16.9531 139.5732,16.3594 L140.3388,20.0938 L139.4482,20.3594 Q138.9951,18.9063 138.3857,18.3125 Q137.7919,17.7031 136.8388,17.7031 Q135.6201,17.7031 134.9013,19.1406 Q134.1826,20.5625 134.1826,22.75 Q134.1826,25.1563 134.7919,26.4531 Q135.4169,27.7344 136.7763,27.7344 Q137.7294,27.7344 138.4169,27.0469 Q139.1044,26.3438 139.4326,24.8438 L140.3388,25.25 Q139.9326,26.9531 138.9638,27.9063 Q138.0107,28.8594 136.6982,28.8594 Z " fill="#000000"></path><text fill="#000000" font-family="sans-serif" font-size="14" lengthAdjust="spacing" textLength="101.1582" x="157.8544" y="29.4839">ConcreteIterator</text><line style="stroke:#181818;stroke-width:0.5;" x1="84.06" x2="300.3071" y1="39" y2="39"></line><rect fill="none" height="6" style="stroke:#C82930;stroke-width:1;" width="6" x="91.06" y="51.0601"></rect><text fill="#000000" font-family="sans-serif" font-size="14" lengthAdjust="spacing" textLength="192.2471" x="103.06" y="59.0439">aggregate: ConcreteAggregate</text><rect fill="none" height="6" style="stroke:#C82930;stroke-width:1;" width="6" x="91.06" y="70.1802"></rect><text fill="#000000" font-family="sans-serif" font-size="14" lengthAdjust="spacing" textLength="61.4619" x="103.06" y="78.1641">cursor: int</text><line style="stroke:#181818;stroke-width:0.5;" x1="84.06" x2="300.3071" y1="85.2402" y2="85.2402"></line><ellipse cx="94.06" cy="100.3003" fill="#84BE84" rx="3" ry="3" style="stroke:#038048;stroke-width:1;"></ellipse><text fill="#000000" font-family="sans-serif" font-size="14" lengthAdjust="spacing" textLength="31.876" x="103.06" y="105.2842">first()</text><ellipse cx="94.06" cy="119.4204" fill="#84BE84" rx="3" ry="3" style="stroke:#038048;stroke-width:1;"></ellipse><text fill="#000000" font-family="sans-serif" font-size="14" lengthAdjust="spacing" textLength="35.7861" x="103.06" y="124.4043">next()</text><ellipse cx="94.06" cy="138.5405" fill="#84BE84" rx="3" ry="3" style="stroke:#038048;stroke-width:1;"></ellipse><text fill="#000000" font-family="sans-serif" font-size="14" lengthAdjust="spacing" textLength="60.6826" x="103.06" y="143.5244">hasNext()</text><ellipse cx="94.06" cy="157.6606" fill="#84BE84" rx="3" ry="3" style="stroke:#038048;stroke-width:1;"></ellipse><text fill="#000000" font-family="sans-serif" font-size="14" lengthAdjust="spacing" textLength="128.3652" x="103.06" y="162.6445">currentItem(): Object</text></g><!--class Aggregate--><g class="entity" data-entity="Aggregate" data-source-line="17" data-uid="ent0004" id="entity_Aggregate"><rect fill="#F1F1F1" height="67.1201" rx="2.5" ry="2.5" style="stroke:#181818;stroke-width:0.5;" width="170.7168" x="83.82" y="452.2"></rect><ellipse cx="132.6252" cy="468.2" fill="#B4A7E5" rx="11" ry="11" style="stroke:#181818;stroke-width:1;"></ellipse><path d="M129.2189,462.9813 L129.2189,462.0438 L135.0627,462.0438 L135.0627,462.9813 L133.2658,462.9813 Q133.0939,462.9813 133.0158,463.0438 Q132.9377,463.1063 132.9377,463.2469 L132.9377,472.7313 Q132.9377,472.8719 133.0158,472.9344 Q133.0939,472.9969 133.2658,472.9969 L135.0627,472.9969 L135.0627,473.9344 L129.2189,473.9344 L129.2189,472.9969 L131.0158,472.9969 Q131.2346,472.9969 131.2814,472.95 Q131.3439,472.8875 131.3439,472.7313 L131.3439,463.2469 Q131.3439,463.0906 131.2814,463.0438 Q131.2346,462.9813 131.0158,462.9813 L129.2189,462.9813 Z " fill="#000000"></path><text fill="#000000" font-family="sans-serif" font-size="14" font-style="italic" lengthAdjust="spacing" textLength="64.6064" x="153.1252" y="474.6839">Aggregate</text><line style="stroke:#181818;stroke-width:0.5;" x1="84.82" x2="253.5368" y1="484.2" y2="484.2"></line><line style="stroke:#181818;stroke-width:0.5;" x1="84.82" x2="253.5368" y1="492.2" y2="492.2"></line><ellipse cx="94.82" cy="507.2601" fill="#84BE84" rx="3" ry="3" style="stroke:#038048;stroke-width:1;"></ellipse><text fill="#000000" font-family="sans-serif" font-size="14" lengthAdjust="spacing" textLength="144.7168" x="103.82" y="512.2439">createIterator(): Iterator</text></g><!--class ConcreteAggregate--><g class="entity" data-entity="ConcreteAggregate" data-source-line="21" data-uid="ent0005" id="entity_ConcreteAggregate"><rect fill="#F1F1F1" height="86.2402" rx="2.5" ry="2.5" style="stroke:#181818;stroke-width:0.5;" width="170.7168" x="205.82" y="267.84"></rect><ellipse cx="228.6067" cy="283.84" fill="#ADD1B2" rx="11" ry="11" style="stroke:#181818;stroke-width:1;"></ellipse><path d="M227.9504,289.6994 Q225.966,289.6994 224.7942,288.2306 Q223.6379,286.7463 223.6379,283.6681 Q223.6379,281.0588 224.8567,279.3088 Q226.091,277.5588 228.216,277.5588 Q228.716,277.5588 229.2473,277.6994 Q229.6848,277.8869 229.9504,277.8869 Q230.1692,277.8869 230.2629,277.84 Q230.3723,277.7931 230.8254,277.1994 L231.591,280.9338 L230.7004,281.1994 Q230.2473,279.7463 229.6379,279.1525 Q229.0442,278.5431 228.091,278.5431 Q226.8723,278.5431 226.1535,279.9806 Q225.4348,281.4025 225.4348,283.59 Q225.4348,285.9963 226.0442,287.2931 Q226.6692,288.5744 228.0285,288.5744 Q228.9817,288.5744 229.6692,287.8869 Q230.3567,287.1838 230.6848,285.6838 L231.591,286.09 Q231.1848,287.7931 230.216,288.7463 Q229.2629,289.6994 227.9504,289.6994 Z " fill="#000000"></path><text fill="#000000" font-family="sans-serif" font-size="14" lengthAdjust="spacing" textLength="121.4131" x="244.337" y="290.3239">ConcreteAggregate</text><line style="stroke:#181818;stroke-width:0.5;" x1="206.82" x2="375.5368" y1="299.84" y2="299.84"></line><rect fill="none" height="6" style="stroke:#C82930;stroke-width:1;" width="6" x="213.82" y="311.9001"></rect><text fill="#000000" font-family="sans-serif" font-size="14" lengthAdjust="spacing" textLength="119.8271" x="225.82" y="319.8839">items: List&lt;Object&gt;</text><line style="stroke:#181818;stroke-width:0.5;" x1="206.82" x2="375.5368" y1="326.9601" y2="326.9601"></line><ellipse cx="216.82" cy="342.0202" fill="#84BE84" rx="3" ry="3" style="stroke:#038048;stroke-width:1;"></ellipse><text fill="#000000" font-family="sans-serif" font-size="14" lengthAdjust="spacing" textLength="144.7168" x="225.82" y="347.0041">createIterator(): Iterator</text></g><g class="entity" data-entity="GMN10" data-source-line="32" data-uid="ent0011" id="entity_GMN10"><path d="M289.74,463.01 L289.74,508.5188 A0,0 0 0 0 289.74,508.5188 L534.6345,508.5188 A0,0 0 0 0 534.6345,508.5188 L534.6345,473.01 L524.6345,463.01 L400.89,463.01 L320.78,354.23 L392.89,463.01 L289.74,463.01 A0,0 0 0 0 289.74,463.01" fill="#FEFFDD" style="stroke:#181818;stroke-width:0.5;"></path><path d="M524.6345,463.01 L524.6345,473.01 L534.6345,473.01 L524.6345,463.01" fill="#FEFFDD" style="stroke:#181818;stroke-width:0.5;"></path><text fill="#000000" font-family="sans-serif" font-size="13" lengthAdjust="spacing" textLength="48.4009" x="295.74" y="482.9079">in items:</text><text fill="#000000" font-family="sans-serif" font-size="13" lengthAdjust="spacing" textLength="195" x="324.6345" y="500.6623">不暴露具体的存储内容与底层实现</text></g><!--link ConcreteIterator to Iterator--><g class="link" data-entity-1="ConcreteIterator" data-entity-2="Iterator" data-source-line="26" data-uid="lnk6" id="link_ConcreteIterator_Iterator"><path codeline="26" d="M119.77,170.12 C113.46,179.67 107.75,189.63 103.18,199.72 C96.38,214.76 95.0634,214.2326 92.2534,230.5026" fill="none" id="ConcreteIterator-to-Iterator" style="stroke:#181818;stroke-width:1;stroke-dasharray:7,7;"></path><polygon fill="none" points="89.19,248.24,98.1659,231.5237,86.341,229.4815,89.19,248.24" style="stroke:#181818;stroke-width:1;"></polygon><text fill="#000000" font-family="sans-serif" font-size="13" lengthAdjust="spacing" textLength="66.4663" x="104.18" y="215.6179">implements</text></g><!--link ConcreteAggregate to Aggregate--><g class="link" data-entity-1="ConcreteAggregate" data-entity-2="Aggregate" data-source-line="27" data-uid="lnk7" id="link_ConcreteAggregate_Aggregate"><path codeline="27" d="M261.34,354.23 C240.1,384.31 222.3713,409.4253 202.8013,437.1453" fill="none" id="ConcreteAggregate-to-Aggregate" style="stroke:#181818;stroke-width:1;stroke-dasharray:7,7;"></path><polygon fill="none" points="192.42,451.85,207.7029,440.6058,197.8998,433.6849,192.42,451.85" style="stroke:#181818;stroke-width:1;"></polygon><text fill="#000000" font-family="sans-serif" font-size="13" lengthAdjust="spacing" textLength="66.4663" x="227.52" y="419.0979">implements</text></g><!--link ConcreteAggregate to ConcreteIterator--><g class="link" data-entity-1="ConcreteAggregate" data-entity-2="ConcreteIterator" data-source-line="28" data-uid="lnk8" id="link_ConcreteAggregate_ConcreteIterator"><path codeline="28" d="M282.67,267.35 C277.73,246.47 270.6,221.25 261.18,199.72 C256.88,189.89 254.7175,185.1429 249.2975,175.4029" fill="none" id="ConcreteAggregate-to-ConcreteIterator" style="stroke:#181818;stroke-width:1;stroke-dasharray:7,7;"></path><polygon fill="#181818" points="246.38,170.16,247.261,179.9694,248.8113,174.5291,254.2515,176.0794,246.38,170.16" style="stroke:#181818;stroke-width:1;"></polygon><text fill="#000000" font-family="sans-serif" font-size="13" lengthAdjust="spacing" textLength="56.3799" x="269.05" y="215.6179">dependcy</text></g><!--link ConcreteIterator to ConcreteAggregate--><g class="link" data-entity-1="ConcreteIterator" data-entity-2="ConcreteAggregate" data-source-line="29" data-uid="lnk9" id="link_ConcreteIterator_ConcreteAggregate"><path codeline="29" d="M176.07,169.94 C175.93,186.63 178.29,203.69 185.18,218.72 C193.84,237.59 203.9912,250.1174 219.7212,263.6474" fill="none" id="ConcreteIterator-to-ConcreteAggregate" style="stroke:#181818;stroke-width:1;"></path><polygon fill="#181818" points="224.27,267.56,220.0552,258.6586,220.4793,264.2995,214.8384,264.7236,224.27,267.56" style="stroke:#181818;stroke-width:1;"></polygon><text fill="#000000" font-family="sans-serif" font-size="13" lengthAdjust="spacing" textLength="66.479" x="186.18" y="215.6179">Association</text></g><!--SRC=[fL5DIWCn55vFJf5bYqmF46HWS2M8FKEQlXaZdQGaJr3KJR7kx4O4AUBQZKL5i1QypSJYBPfXc6bnX2xSVUHzx_jvaGh195m0tVU0epRd9DX9fB7OQdkauBG4HzmULbYS60CA_KRMQZFQxHs3G799Y1XmQ-cULi80mePYoDFKGCeHM3sEgoS_zefM6qQbmd_OoxfChLsqyMvydQPOgN0py-PYABs3PVH0MjmjNQAjSh_Bqqxd8gePlc4s743curlIy2ovyVfKMyXHuzICzc48gY_Eca72C6hMP3IsLWl9KMf5YD9UkASHTKPryjTNIKNBiv0WoESttzFtduStD_x8lswNqoltVEz6J-vwx6QV-NpY5dVkTUHcZyl92_6nQA5FLW00]--></g></svg>