<svg xmlns="http://www.w3.org/2000/svg" xmlns:xlink="http://www.w3.org/1999/xlink" contentstyletype="text/css" data-diagram-type="CLASS" height="526px" preserveAspectRatio="none" style="width:383px;height:526px;background:#FFFFFF;" version="1.1" viewBox="0 0 383 526" width="383px" zoomAndPan="magnify"><defs></defs><g><!--class Iterator--><g class="entity" data-entity="Iterator" data-source-line="1" data-uid="ent0002" id="entity_Iterator"><rect fill="#F1F1F1" height="124.4805" rx="2.5" ry="2.5" style="stroke:#181818;stroke-width:0.5;" width="154.3652" x="7" y="248.72"></rect><ellipse cx="57.7568" cy="264.72" fill="#B4A7E5" rx="11" ry="11" style="stroke:#181818;stroke-width:1;"></ellipse><path d="M54.3506,259.5013 L54.3506,258.5638 L60.1943,258.5638 L60.1943,259.5013 L58.3975,259.5013 Q58.2256,259.5013 58.1475,259.5638 Q58.0693,259.6263 58.0693,259.7669 L58.0693,269.2513 Q58.0693,269.3919 58.1475,269.4544 Q58.2256,269.5169 58.3975,269.5169 L60.1943,269.5169 L60.1943,270.4544 L54.3506,270.4544 L54.3506,269.5169 L56.1475,269.5169 Q56.3662,269.5169 56.4131,269.47 Q56.4756,269.4075 56.4756,269.2513 L56.4756,259.7669 Q56.4756,259.6106 56.4131,259.5638 Q56.3662,259.5013 56.1475,259.5013 L54.3506,259.5013 Z " fill="#000000"></path><text fill="#000000" font-family="sans-serif" font-size="14" font-style="italic" lengthAdjust="spacing" textLength="44.3516" x="78.2568" y="271.2039">Iterator</text><line style="stroke:#181818;stroke-width:0.5;" x1="8" x2="160.3652" y1="280.72" y2="280.72"></line><line style="stroke:#181818;stroke-width:0.5;" x1="8" x2="160.3652" y1="288.72" y2="288.72"></line><ellipse cx="18" cy="303.7801" fill="#84BE84" rx="3" ry="3" style="stroke:#038048;stroke-width:1;"></ellipse><text fill="#000000" font-family="sans-serif" font-size="14" lengthAdjust="spacing" textLength="65.3379" x="27" y="308.7639">first(): void</text><ellipse cx="18" cy="322.9002" fill="#84BE84" rx="3" ry="3" style="stroke:#038048;stroke-width:1;"></ellipse><text fill="#000000" font-family="sans-serif" font-size="14" lengthAdjust="spacing" textLength="69.248" x="27" y="327.8841">next(): void</text><ellipse cx="18" cy="342.0203" fill="#84BE84" rx="3" ry="3" style="stroke:#038048;stroke-width:1;"></ellipse><text fill="#000000" font-family="sans-serif" font-size="14" lengthAdjust="spacing" textLength="118.2891" x="27" y="347.0042">hasNext(): boolean</text><ellipse cx="18" cy="361.1404" fill="#84BE84" rx="3" ry="3" style="stroke:#038048;stroke-width:1;"></ellipse><text fill="#000000" font-family="sans-serif" font-size="14" lengthAdjust="spacing" textLength="128.3652" x="27" y="366.1243">currentItem(): Object</text></g><!--class ChannelIterator--><g class="entity" data-entity="ChannelIterator" data-source-line="8" data-uid="ent0003" id="entity_ChannelIterator"><rect fill="#F1F1F1" height="162.7207" rx="2.5" ry="2.5" style="stroke:#181818;stroke-width:0.5;" width="154.3652" x="115" y="7"></rect><ellipse cx="141.638" cy="23" fill="#ADD1B2" rx="11" ry="11" style="stroke:#181818;stroke-width:1;"></ellipse><path d="M140.9818,28.8594 Q138.9974,28.8594 137.8255,27.3906 Q136.6693,25.9063 136.6693,22.8281 Q136.6693,20.2188 137.888,18.4688 Q139.1224,16.7188 141.2474,16.7188 Q141.7474,16.7188 142.2787,16.8594 Q142.7162,17.0469 142.9818,17.0469 Q143.2005,17.0469 143.2943,17 Q143.4037,16.9531 143.8568,16.3594 L144.6224,20.0938 L143.7318,20.3594 Q143.2787,18.9063 142.6693,18.3125 Q142.0755,17.7031 141.1224,17.7031 Q139.9037,17.7031 139.1849,19.1406 Q138.4662,20.5625 138.4662,22.75 Q138.4662,25.1563 139.0755,26.4531 Q139.7005,27.7344 141.0599,27.7344 Q142.013,27.7344 142.7005,27.0469 Q143.388,26.3438 143.7162,24.8438 L144.6224,25.25 Q144.2162,26.9531 143.2474,27.9063 Q142.2943,28.8594 140.9818,28.8594 Z " fill="#000000"></path><text fill="#000000" font-family="sans-serif" font-size="14" lengthAdjust="spacing" textLength="96.5029" x="158.2243" y="29.4839">ChannelIterator</text><line style="stroke:#181818;stroke-width:0.5;" x1="116" x2="268.3652" y1="39" y2="39"></line><rect fill="none" height="6" style="stroke:#C82930;stroke-width:1;" width="6" x="123" y="51.0601"></rect><text fill="#000000" font-family="sans-serif" font-size="14" lengthAdjust="spacing" textLength="36.5586" x="135" y="59.0439">tv: TV</text><rect fill="none" height="6" style="stroke:#C82930;stroke-width:1;" width="6" x="123" y="70.1802"></rect><text fill="#000000" font-family="sans-serif" font-size="14" lengthAdjust="spacing" textLength="61.4619" x="135" y="78.1641">cursor: int</text><line style="stroke:#181818;stroke-width:0.5;" x1="116" x2="268.3652" y1="85.2402" y2="85.2402"></line><ellipse cx="126" cy="100.3003" fill="#84BE84" rx="3" ry="3" style="stroke:#038048;stroke-width:1;"></ellipse><text fill="#000000" font-family="sans-serif" font-size="14" lengthAdjust="spacing" textLength="65.3379" x="135" y="105.2842">first(): void</text><ellipse cx="126" cy="119.4204" fill="#84BE84" rx="3" ry="3" style="stroke:#038048;stroke-width:1;"></ellipse><text fill="#000000" font-family="sans-serif" font-size="14" lengthAdjust="spacing" textLength="69.248" x="135" y="124.4043">next(): void</text><ellipse cx="126" cy="138.5405" fill="#84BE84" rx="3" ry="3" style="stroke:#038048;stroke-width:1;"></ellipse><text fill="#000000" font-family="sans-serif" font-size="14" lengthAdjust="spacing" textLength="118.2891" x="135" y="143.5244">hasNext(): boolean</text><ellipse cx="126" cy="157.6606" fill="#84BE84" rx="3" ry="3" style="stroke:#038048;stroke-width:1;"></ellipse><text fill="#000000" font-family="sans-serif" font-size="14" lengthAdjust="spacing" textLength="128.3652" x="135" y="162.6445">currentItem(): Object</text></g><!--class Aggregate--><g class="entity" data-entity="Aggregate" data-source-line="17" data-uid="ent0004" id="entity_Aggregate"><rect fill="#F1F1F1" height="67.1201" rx="2.5" ry="2.5" style="stroke:#181818;stroke-width:0.5;" width="170.7168" x="205.82" y="452.2"></rect><ellipse cx="254.6252" cy="468.2" fill="#B4A7E5" rx="11" ry="11" style="stroke:#181818;stroke-width:1;"></ellipse><path d="M251.2189,462.9813 L251.2189,462.0438 L257.0627,462.0438 L257.0627,462.9813 L255.2658,462.9813 Q255.0939,462.9813 255.0158,463.0438 Q254.9377,463.1063 254.9377,463.2469 L254.9377,472.7313 Q254.9377,472.8719 255.0158,472.9344 Q255.0939,472.9969 255.2658,472.9969 L257.0627,472.9969 L257.0627,473.9344 L251.2189,473.9344 L251.2189,472.9969 L253.0158,472.9969 Q253.2346,472.9969 253.2814,472.95 Q253.3439,472.8875 253.3439,472.7313 L253.3439,463.2469 Q253.3439,463.0906 253.2814,463.0438 Q253.2346,462.9813 253.0158,462.9813 L251.2189,462.9813 Z " fill="#000000"></path><text fill="#000000" font-family="sans-serif" font-size="14" font-style="italic" lengthAdjust="spacing" textLength="64.6064" x="275.1252" y="474.6839">Aggregate</text><line style="stroke:#181818;stroke-width:0.5;" x1="206.82" x2="375.5368" y1="484.2" y2="484.2"></line><line style="stroke:#181818;stroke-width:0.5;" x1="206.82" x2="375.5368" y1="492.2" y2="492.2"></line><ellipse cx="216.82" cy="507.2601" fill="#84BE84" rx="3" ry="3" style="stroke:#038048;stroke-width:1;"></ellipse><text fill="#000000" font-family="sans-serif" font-size="14" lengthAdjust="spacing" textLength="144.7168" x="225.82" y="512.2439">createIterator(): Iterator</text></g><!--class TV--><g class="entity" data-entity="TV" data-source-line="21" data-uid="ent0005" id="entity_TV"><rect fill="#F1F1F1" height="105.3604" rx="2.5" ry="2.5" style="stroke:#181818;stroke-width:0.5;" width="170.7168" x="205.82" y="258.28"></rect><ellipse cx="277.9836" cy="274.28" fill="#ADD1B2" rx="11" ry="11" style="stroke:#181818;stroke-width:1;"></ellipse><path d="M277.3273,280.1394 Q275.3429,280.1394 274.1711,278.6706 Q273.0148,277.1863 273.0148,274.1081 Q273.0148,271.4988 274.2336,269.7488 Q275.4679,267.9988 277.5929,267.9988 Q278.0929,267.9988 278.6242,268.1394 Q279.0617,268.3269 279.3273,268.3269 Q279.5461,268.3269 279.6398,268.28 Q279.7492,268.2331 280.2023,267.6394 L280.9679,271.3738 L280.0773,271.6394 Q279.6242,270.1863 279.0148,269.5925 Q278.4211,268.9831 277.4679,268.9831 Q276.2492,268.9831 275.5304,270.4206 Q274.8117,271.8425 274.8117,274.03 Q274.8117,276.4363 275.4211,277.7331 Q276.0461,279.0144 277.4054,279.0144 Q278.3586,279.0144 279.0461,278.3269 Q279.7336,277.6238 280.0617,276.1238 L280.9679,276.53 Q280.5617,278.2331 279.5929,279.1863 Q278.6398,280.1394 277.3273,280.1394 Z " fill="#000000"></path><text fill="#000000" font-family="sans-serif" font-size="14" lengthAdjust="spacing" textLength="17.8896" x="298.4836" y="280.7639">TV</text><line style="stroke:#181818;stroke-width:0.5;" x1="206.82" x2="375.5368" y1="290.28" y2="290.28"></line><rect fill="none" height="6" style="stroke:#C82930;stroke-width:1;" width="6" x="213.82" y="302.3401"></rect><text fill="#000000" font-family="sans-serif" font-size="14" lengthAdjust="spacing" textLength="138.5303" x="225.82" y="310.3239">channels: List&lt;String&gt;</text><line style="stroke:#181818;stroke-width:0.5;" x1="206.82" x2="375.5368" y1="317.4001" y2="317.4001"></line><ellipse cx="216.82" cy="332.4602" fill="#84BE84" rx="3" ry="3" style="stroke:#038048;stroke-width:1;"></ellipse><text fill="#000000" font-family="sans-serif" font-size="14" lengthAdjust="spacing" textLength="144.7168" x="225.82" y="337.4441">createIterator(): Iterator</text><ellipse cx="216.82" cy="351.5803" fill="#84BE84" rx="3" ry="3" style="stroke:#038048;stroke-width:1;"></ellipse><text fill="#000000" font-family="sans-serif" font-size="14" lengthAdjust="spacing" textLength="125.2959" x="225.82" y="356.5642">addChannels(): void</text></g><!--link ChannelIterator to Iterator--><g class="link" data-entity-1="ChannelIterator" data-entity-2="Iterator" data-source-line="27" data-uid="lnk6" id="link_ChannelIterator_Iterator"><path codeline="27" d="M123.81,169.91 C117.55,179.57 111.83,189.61 107.18,199.72 C100.24,214.82 99.0498,214.4202 95.6498,230.7002" fill="none" id="ChannelIterator-to-Iterator" style="stroke:#181818;stroke-width:1;stroke-dasharray:7,7;"></path><polygon fill="none" points="91.97,248.32,101.5231,231.9268,89.7765,229.4735,91.97,248.32" style="stroke:#181818;stroke-width:1;"></polygon><text fill="#000000" font-family="sans-serif" font-size="13" lengthAdjust="spacing" textLength="66.4663" x="108.18" y="215.6179">implements</text></g><!--link TV to Aggregate--><g class="link" data-entity-1="TV" data-entity-2="Aggregate" data-source-line="28" data-uid="lnk7" id="link_TV_Aggregate"><path codeline="28" d="M291.18,363.81 C291.18,392.34 291.18,408.89 291.18,433.74" fill="none" id="TV-to-Aggregate" style="stroke:#181818;stroke-width:1;stroke-dasharray:7,7;"></path><polygon fill="none" points="291.18,451.74,297.18,433.74,285.18,433.74,291.18,451.74" style="stroke:#181818;stroke-width:1;"></polygon><text fill="#000000" font-family="sans-serif" font-size="13" lengthAdjust="spacing" textLength="66.4663" x="292.18" y="419.0979">implements</text></g><!--link ChannelIterator to TV--><g class="link" data-entity-1="ChannelIterator" data-entity-2="TV" data-source-line="29" data-uid="lnk8" id="link_ChannelIterator_TV"><path codeline="29" d="M179.51,170.21 C179.86,186.8 182.49,203.75 189.18,218.72 C195.68,233.25 201.5509,242.1541 212.9009,253.6841" fill="none" id="ChannelIterator-to-TV" style="stroke:#181818;stroke-width:1;"></path><polygon fill="#181818" points="217.11,257.96,213.6469,248.7401,213.6024,254.3968,207.9457,254.3523,217.11,257.96" style="stroke:#181818;stroke-width:1;"></polygon><text fill="#000000" font-family="sans-serif" font-size="13" lengthAdjust="spacing" textLength="66.479" x="190.18" y="215.6179">Association</text></g><!--link TV to ChannelIterator--><g class="link" data-entity-1="TV" data-entity-2="ChannelIterator" data-source-line="30" data-uid="lnk9" id="link_TV_ChannelIterator"><path codeline="30" d="M280.33,257.84 C275.57,239.11 269.21,218.07 261.18,199.72 C256.88,189.89 254.7175,185.1429 249.2975,175.4029" fill="none" id="TV-to-ChannelIterator" style="stroke:#181818;stroke-width:1;stroke-dasharray:7,7;"></path><polygon fill="#181818" points="246.38,170.16,247.261,179.9694,248.8113,174.5291,254.2515,176.0794,246.38,170.16" style="stroke:#181818;stroke-width:1;"></polygon><text fill="#000000" font-family="sans-serif" font-size="13" lengthAdjust="spacing" textLength="70.8398" x="269.05" y="215.6179">dependency</text></g><!--SRC=[hP2nQiD038PdtrDeR0dE0np543e5IZhKUB_SASuLMnTEQcXfykwLSUAc7Zfb-oMXNz-lI89vvpp2MeMJbBzDiTZ5pFBmQE6OOj2QyFEst3lUN3hRb3fqf4t_aJEIg4q_35wtx-Z5d8tndME6vxqZmkxcIYb72tMZGbSvPGkHvDx7uvHlrROPMoSu1FGPLLrXXfMh_YMkcm7IZzniuIMoFBr9ZjHMnVyUnSA5S4dC4xiwpxu0o-MfcjRq0VsXmrw3iAcRSJXX_vdEVSgoKbuBA-RaevEOQ7Ievey72m4FI079VvaV]--></g></svg>