<svg xmlns="http://www.w3.org/2000/svg" xmlns:xlink="http://www.w3.org/1999/xlink" contentstyletype="text/css" data-diagram-type="CLASS" height="314px" preserveAspectRatio="none" style="width:471px;height:314px;background:#FFFFFF;" version="1.1" viewBox="0 0 471 314" width="471px" zoomAndPan="magnify"><defs></defs><g><!--class Client--><g class="entity" data-entity="Client" data-source-line="2" data-uid="ent0002" id="entity_Client"><rect fill="#F1F1F1" height="48" rx="2.5" ry="2.5" style="stroke:#181818;stroke-width:0.5;" width="67.793" x="7" y="35.68"></rect><ellipse cx="22" cy="51.68" fill="#ADD1B2" rx="11" ry="11" style="stroke:#181818;stroke-width:1;"></ellipse><path d="M21.3438,57.5394 Q19.3594,57.5394 18.1875,56.0706 Q17.0313,54.5863 17.0313,51.5081 Q17.0313,48.8988 18.25,47.1488 Q19.4844,45.3988 21.6094,45.3988 Q22.1094,45.3988 22.6406,45.5394 Q23.0781,45.7269 23.3438,45.7269 Q23.5625,45.7269 23.6563,45.68 Q23.7656,45.6331 24.2188,45.0394 L24.9844,48.7738 L24.0938,49.0394 Q23.6406,47.5863 23.0313,46.9925 Q22.4375,46.3831 21.4844,46.3831 Q20.2656,46.3831 19.5469,47.8206 Q18.8281,49.2425 18.8281,51.43 Q18.8281,53.8363 19.4375,55.1331 Q20.0625,56.4144 21.4219,56.4144 Q22.375,56.4144 23.0625,55.7269 Q23.75,55.0238 24.0781,53.5238 L24.9844,53.93 Q24.5781,55.6331 23.6094,56.5863 Q22.6563,57.5394 21.3438,57.5394 Z " fill="#000000"></path><text fill="#000000" font-family="sans-serif" font-size="14" lengthAdjust="spacing" textLength="35.793" x="36" y="58.1639">Client</text><line style="stroke:#181818;stroke-width:0.5;" x1="8" x2="73.793" y1="67.68" y2="67.68"></line><line style="stroke:#181818;stroke-width:0.5;" x1="8" x2="73.793" y1="75.68" y2="75.68"></line></g><!--class Robot--><g class="entity" data-entity="Robot" data-source-line="6" data-uid="ent0003" id="entity_Robot"><rect fill="#F1F1F1" height="86.2402" rx="2.5" ry="2.5" style="stroke:#181818;stroke-width:0.5;" width="103.0205" x="28.39" y="206.51"></rect><ellipse cx="58.5379" cy="222.51" fill="#B4A7E5" rx="11" ry="11" style="stroke:#181818;stroke-width:1;"></ellipse><path d="M55.1317,217.2913 L55.1317,216.3538 L60.9754,216.3538 L60.9754,217.2913 L59.1786,217.2913 Q59.0067,217.2913 58.9286,217.3538 Q58.8504,217.4163 58.8504,217.5569 L58.8504,227.0413 Q58.8504,227.1819 58.9286,227.2444 Q59.0067,227.3069 59.1786,227.3069 L60.9754,227.3069 L60.9754,228.2444 L55.1317,228.2444 L55.1317,227.3069 L56.9286,227.3069 Q57.1473,227.3069 57.1942,227.26 Q57.2567,227.1975 57.2567,227.0413 L57.2567,217.5569 Q57.2567,217.4006 57.1942,217.3538 Q57.1473,217.2913 56.9286,217.2913 L55.1317,217.2913 Z " fill="#000000"></path><text fill="#000000" font-family="sans-serif" font-size="14" font-style="italic" lengthAdjust="spacing" textLength="37.3584" x="75.9042" y="228.9939">Robot</text><line style="stroke:#181818;stroke-width:0.5;" x1="29.39" x2="130.4105" y1="238.51" y2="238.51"></line><line style="stroke:#181818;stroke-width:0.5;" x1="29.39" x2="130.4105" y1="246.51" y2="246.51"></line><ellipse cx="39.39" cy="261.5701" fill="#84BE84" rx="3" ry="3" style="stroke:#038048;stroke-width:1;"></ellipse><text fill="#000000" font-family="sans-serif" font-size="14" lengthAdjust="spacing" textLength="61.4482" x="48.39" y="266.5539">cry(): void</text><ellipse cx="39.39" cy="280.6902" fill="#84BE84" rx="3" ry="3" style="stroke:#038048;stroke-width:1;"></ellipse><text fill="#000000" font-family="sans-serif" font-size="14" lengthAdjust="spacing" textLength="77.0205" x="48.39" y="285.6741">move(): void</text></g><!--class Dog--><g class="entity" data-entity="Dog" data-source-line="12" data-uid="ent0004" id="entity_Dog"><rect fill="#F1F1F1" height="86.2402" rx="2.5" ry="2.5" style="stroke:#181818;stroke-width:0.5;" width="102.2549" x="205.77" y="206.51"></rect><ellipse cx="240.8275" cy="222.51" fill="#ADD1B2" rx="11" ry="11" style="stroke:#181818;stroke-width:1;"></ellipse><path d="M240.1713,228.3694 Q238.1869,228.3694 237.015,226.9006 Q235.8588,225.4163 235.8588,222.3381 Q235.8588,219.7288 237.0775,217.9788 Q238.3119,216.2288 240.4369,216.2288 Q240.9369,216.2288 241.4681,216.3694 Q241.9056,216.5569 242.1713,216.5569 Q242.39,216.5569 242.4838,216.51 Q242.5931,216.4631 243.0463,215.8694 L243.8119,219.6038 L242.9213,219.8694 Q242.4681,218.4163 241.8588,217.8225 Q241.265,217.2131 240.3119,217.2131 Q239.0931,217.2131 238.3744,218.6506 Q237.6556,220.0725 237.6556,222.26 Q237.6556,224.6663 238.265,225.9631 Q238.89,227.2444 240.2494,227.2444 Q241.2025,227.2444 241.89,226.5569 Q242.5775,225.8538 242.9056,224.3538 L243.8119,224.76 Q243.4056,226.4631 242.4369,227.4163 Q241.4838,228.3694 240.1713,228.3694 Z " fill="#000000"></path><text fill="#000000" font-family="sans-serif" font-size="14" lengthAdjust="spacing" textLength="25.6826" x="259.2847" y="228.9939">Dog</text><line style="stroke:#181818;stroke-width:0.5;" x1="206.77" x2="307.0249" y1="238.51" y2="238.51"></line><line style="stroke:#181818;stroke-width:0.5;" x1="206.77" x2="307.0249" y1="246.51" y2="246.51"></line><ellipse cx="216.77" cy="261.5701" fill="#84BE84" rx="3" ry="3" style="stroke:#038048;stroke-width:1;"></ellipse><text fill="#000000" font-family="sans-serif" font-size="14" lengthAdjust="spacing" textLength="76.2549" x="225.77" y="266.5539">wang(): void</text><ellipse cx="216.77" cy="280.6902" fill="#84BE84" rx="3" ry="3" style="stroke:#038048;stroke-width:1;"></ellipse><text fill="#000000" font-family="sans-serif" font-size="14" lengthAdjust="spacing" textLength="63.0205" x="225.77" y="285.6741">run(): void</text></g><!--class DogAdapter--><g class="entity" data-entity="DogAdapter" data-source-line="18" data-uid="ent0005" id="entity_DogAdapter"><rect fill="#F1F1F1" height="105.3604" rx="2.5" ry="2.5" style="stroke:#181818;stroke-width:0.5;" width="106.7168" x="203.54" y="7"></rect><ellipse cx="218.54" cy="23" fill="#ADD1B2" rx="11" ry="11" style="stroke:#181818;stroke-width:1;"></ellipse><path d="M217.8838,28.8594 Q215.8994,28.8594 214.7275,27.3906 Q213.5713,25.9063 213.5713,22.8281 Q213.5713,20.2188 214.79,18.4688 Q216.0244,16.7188 218.1494,16.7188 Q218.6494,16.7188 219.1806,16.8594 Q219.6181,17.0469 219.8838,17.0469 Q220.1025,17.0469 220.1963,17 Q220.3056,16.9531 220.7588,16.3594 L221.5244,20.0938 L220.6338,20.3594 Q220.1806,18.9063 219.5713,18.3125 Q218.9775,17.7031 218.0244,17.7031 Q216.8056,17.7031 216.0869,19.1406 Q215.3681,20.5625 215.3681,22.75 Q215.3681,25.1563 215.9775,26.4531 Q216.6025,27.7344 217.9619,27.7344 Q218.915,27.7344 219.6025,27.0469 Q220.29,26.3438 220.6181,24.8438 L221.5244,25.25 Q221.1181,26.9531 220.1494,27.9063 Q219.1963,28.8594 217.8838,28.8594 Z " fill="#000000"></path><text fill="#000000" font-family="sans-serif" font-size="14" lengthAdjust="spacing" textLength="74.7168" x="232.54" y="29.4839">DogAdapter</text><line style="stroke:#181818;stroke-width:0.5;" x1="204.54" x2="309.2568" y1="39" y2="39"></line><rect fill="none" height="6" style="stroke:#C82930;stroke-width:1;" width="6" x="211.54" y="51.0601"></rect><text fill="#000000" font-family="sans-serif" font-size="14" lengthAdjust="spacing" textLength="56.8203" x="223.54" y="59.0439">dog: Dog</text><line style="stroke:#181818;stroke-width:0.5;" x1="204.54" x2="309.2568" y1="66.1201" y2="66.1201"></line><ellipse cx="214.54" cy="81.1802" fill="#84BE84" rx="3" ry="3" style="stroke:#038048;stroke-width:1;"></ellipse><text fill="#000000" font-family="sans-serif" font-size="14" lengthAdjust="spacing" textLength="61.4482" x="223.54" y="86.1641">cry(): void</text><ellipse cx="214.54" cy="100.3003" fill="#84BE84" rx="3" ry="3" style="stroke:#038048;stroke-width:1;"></ellipse><text fill="#000000" font-family="sans-serif" font-size="14" lengthAdjust="spacing" textLength="77.0205" x="223.54" y="105.2842">move(): void</text></g><g class="entity" data-entity="GMN9" data-source-line="29" data-uid="ent0010" id="entity_GMN9"><path d="M342.82,191.36 L342.82,307.8864 L464.9763,307.8864 L464.9763,201.36 L454.9763,191.36 L342.82,191.36" fill="#FEFFDD" style="stroke:#181818;stroke-width:0.5;"></path><path d="M454.9763,191.36 L454.9763,201.36 L464.9763,201.36 L454.9763,191.36" fill="#FEFFDD" style="stroke:#181818;stroke-width:1;"></path><text fill="#000000" font-family="sans-serif" font-size="13" lengthAdjust="spacing" textLength="33.9409" x="348.82" y="211.2579">cry() {</text><text fill="#000000" font-family="sans-serif" font-size="13" lengthAdjust="spacing" textLength="68.6499" x="377.7145" y="229.0123">dog.wang();</text><text fill="#000000" font-family="sans-serif" font-size="13" lengthAdjust="spacing" textLength="4.3418" x="348.82" y="246.7667">}</text><text fill="#000000" font-family="sans-serif" font-size="13" lengthAdjust="spacing" textLength="48.4009" x="348.82" y="264.5211">move() {</text><text fill="#000000" font-family="sans-serif" font-size="13" lengthAdjust="spacing" textLength="56.3608" x="377.7145" y="282.2755">dog.run();</text><text fill="#000000" font-family="sans-serif" font-size="13" lengthAdjust="spacing" textLength="4.3418" x="348.82" y="300.0299">}</text></g><!--link DogAdapter to Robot--><g class="link" data-entity-1="DogAdapter" data-entity-2="Robot" data-source-line="24" data-uid="lnk6" id="link_DogAdapter_Robot"><path codeline="24" d="M208.06,112.54 C180.33,141.98 158.3897,165.2753 132.2597,193.0253" fill="none" id="DogAdapter-to-Robot" style="stroke:#181818;stroke-width:1;stroke-dasharray:7,7;"></path><polygon fill="none" points="119.92,206.13,136.6279,197.1385,127.8914,188.9121,119.92,206.13" style="stroke:#181818;stroke-width:1;"></polygon><text fill="#000000" font-family="sans-serif" font-size="13" lengthAdjust="spacing" textLength="66.4663" x="179.99" y="158.2579">implements</text></g><!--link DogAdapter to Dog--><g class="link" data-entity-1="DogAdapter" data-entity-2="Dog" data-source-line="25" data-uid="lnk7" id="link_DogAdapter_Dog"><path codeline="25" d="M256.9,124.54 C256.9,153.98 256.9,172.38 256.9,200.13" fill="none" id="DogAdapter-Dog" style="stroke:#181818;stroke-width:1;"></path><polygon fill="#181818" points="256.9,112.54,252.9,118.54,256.9,124.54,260.9,118.54,256.9,112.54" style="stroke:#181818;stroke-width:1;"></polygon><polygon fill="#181818" points="256.9,206.13,260.9,197.13,256.9,201.13,252.9,197.13,256.9,206.13" style="stroke:#181818;stroke-width:1;"></polygon><text fill="#000000" font-family="sans-serif" font-size="13" lengthAdjust="spacing" textLength="69.3672" x="257.9" y="158.2579">composition</text></g><!--link Client to Robot--><g class="link" data-entity-1="Client" data-entity-2="Robot" data-source-line="26" data-uid="lnk8" id="link_Client_Robot"><path codeline="26" d="M36.94,83.8 C34.18,104.41 31.95,135.28 37.9,161.36 C41.37,176.61 45.1992,186.9172 52.0592,200.7172" fill="none" id="Client-to-Robot" style="stroke:#181818;stroke-width:1;"></path><polygon fill="#181818" points="54.73,206.09,54.3056,196.2503,52.5043,201.6127,47.1419,199.8114,54.73,206.09" style="stroke:#181818;stroke-width:1;"></polygon><text fill="#000000" font-family="sans-serif" font-size="13" lengthAdjust="spacing" textLength="66.479" x="38.9" y="158.2579">Association</text></g><!--link DogAdapter to GMN9--><g class="link" data-entity-1="DogAdapter" data-entity-2="GMN9" data-source-line="29" data-uid="lnk11" id="link_DogAdapter_GMN9"><path d="M309.92,112.44 C318.94,122.09 327.94,132.3 335.9,142.36 C347.85,157.48 359.62,174.76 369.92,190.93" fill="none" id="DogAdapter-GMN9" style="stroke:#181818;stroke-width:1;stroke-dasharray:7,7;"></path></g><!--SRC=[RL1RQiCm4FpMdcB_qiJO1t0X498JX5v0bJT6O6cDfBW4DtUl7YPs8GA1DBCpExjgaDxZUT1ammnFW1r-ITTJ06q3kPjKX5V-vaXYF9LoZuzzYnFhhW269teXMN_gv1Y8G6Nh2_SpYEf7slvL9Yftj-z4RXKjGD9kUuh_3KNTST-c-cIpoh1fVeybU8lQZ0EPEA3VLXpg-fY4BIes8tiTD5iecy34BUgJzwoqp2nO3eGH3coGRvkS22B7n3c-H0pLb8a_u_SPRqczida12qcsmsGCVm00]--></g></svg>