<svg xmlns="http://www.w3.org/2000/svg" xmlns:xlink="http://www.w3.org/1999/xlink" contentstyletype="text/css" data-diagram-type="CLASS" height="246px" preserveAspectRatio="none" style="width:332px;height:246px;background:#FFFFFF;" version="1.1" viewBox="0 0 332 246" width="332px" zoomAndPan="magnify"><defs></defs><g><!--class Client--><g class="entity" data-entity="Client" data-source-line="1" data-uid="ent0002" id="entity_Client"><rect fill="#F1F1F1" height="48" rx="2.5" ry="2.5" style="stroke:#181818;stroke-width:0.5;" width="67.793" x="7" y="26.12"></rect><ellipse cx="22" cy="42.12" fill="#ADD1B2" rx="11" ry="11" style="stroke:#181818;stroke-width:1;"></ellipse><path d="M21.3438,47.9794 Q19.3594,47.9794 18.1875,46.5106 Q17.0313,45.0263 17.0313,41.9481 Q17.0313,39.3388 18.25,37.5888 Q19.4844,35.8388 21.6094,35.8388 Q22.1094,35.8388 22.6406,35.9794 Q23.0781,36.1669 23.3438,36.1669 Q23.5625,36.1669 23.6563,36.12 Q23.7656,36.0731 24.2188,35.4794 L24.9844,39.2138 L24.0938,39.4794 Q23.6406,38.0263 23.0313,37.4325 Q22.4375,36.8231 21.4844,36.8231 Q20.2656,36.8231 19.5469,38.2606 Q18.8281,39.6825 18.8281,41.87 Q18.8281,44.2763 19.4375,45.5731 Q20.0625,46.8544 21.4219,46.8544 Q22.375,46.8544 23.0625,46.1669 Q23.75,45.4638 24.0781,43.9638 L24.9844,44.37 Q24.5781,46.0731 23.6094,47.0263 Q22.6563,47.9794 21.3438,47.9794 Z " fill="#000000"></path><text fill="#000000" font-family="sans-serif" font-size="14" lengthAdjust="spacing" textLength="35.793" x="36" y="48.6039">Client</text><line style="stroke:#181818;stroke-width:0.5;" x1="8" x2="73.793" y1="58.12" y2="58.12"></line><line style="stroke:#181818;stroke-width:0.5;" x1="8" x2="73.793" y1="66.12" y2="66.12"></line></g><!--class Target--><g class="entity" data-entity="Target" data-source-line="4" data-uid="ent0003" id="entity_Target"><rect fill="#F1F1F1" height="67.1201" rx="2.5" ry="2.5" style="stroke:#181818;stroke-width:0.5;" width="82.0205" x="35.89" y="172.24"></rect><ellipse cx="55.1914" cy="188.24" fill="#B4A7E5" rx="11" ry="11" style="stroke:#181818;stroke-width:1;"></ellipse><path d="M51.7851,183.0213 L51.7851,182.0838 L57.6289,182.0838 L57.6289,183.0213 L55.832,183.0213 Q55.6601,183.0213 55.582,183.0838 Q55.5039,183.1463 55.5039,183.2869 L55.5039,192.7713 Q55.5039,192.9119 55.582,192.9744 Q55.6601,193.0369 55.832,193.0369 L57.6289,193.0369 L57.6289,193.9744 L51.7851,193.9744 L51.7851,193.0369 L53.582,193.0369 Q53.8007,193.0369 53.8476,192.99 Q53.9101,192.9275 53.9101,192.7713 L53.9101,183.2869 Q53.9101,183.1306 53.8476,183.0838 Q53.8007,183.0213 53.582,183.0213 L51.7851,183.0213 Z " fill="#000000"></path><text fill="#000000" font-family="sans-serif" font-size="14" font-style="italic" lengthAdjust="spacing" textLength="40.4619" x="70.1472" y="194.7239">Target</text><line style="stroke:#181818;stroke-width:0.5;" x1="36.89" x2="116.9105" y1="204.24" y2="204.24"></line><line style="stroke:#181818;stroke-width:0.5;" x1="36.89" x2="116.9105" y1="212.24" y2="212.24"></line><ellipse cx="46.89" cy="227.3001" fill="#84BE84" rx="3" ry="3" style="stroke:#038048;stroke-width:1;"></ellipse><text fill="#000000" font-family="sans-serif" font-size="14" lengthAdjust="spacing" textLength="56.0205" x="55.89" y="232.2839">request()</text></g><!--class Adaptee--><g class="entity" data-entity="Adaptee" data-source-line="8" data-uid="ent0004" id="entity_Adaptee"><rect fill="#F1F1F1" height="67.1201" rx="2.5" ry="2.5" style="stroke:#181818;stroke-width:0.5;" width="136.4893" x="188.65" y="172.24"></rect><ellipse cx="227.199" cy="188.24" fill="#ADD1B2" rx="11" ry="11" style="stroke:#181818;stroke-width:1;"></ellipse><path d="M226.5427,194.0994 Q224.5583,194.0994 223.3865,192.6306 Q222.2302,191.1463 222.2302,188.0681 Q222.2302,185.4588 223.449,183.7088 Q224.6833,181.9588 226.8083,181.9588 Q227.3083,181.9588 227.8396,182.0994 Q228.2771,182.2869 228.5427,182.2869 Q228.7615,182.2869 228.8552,182.24 Q228.9646,182.1931 229.4177,181.5994 L230.1833,185.3338 L229.2927,185.5994 Q228.8396,184.1463 228.2302,183.5525 Q227.6365,182.9431 226.6833,182.9431 Q225.4646,182.9431 224.7458,184.3806 Q224.0271,185.8025 224.0271,187.99 Q224.0271,190.3963 224.6365,191.6931 Q225.2615,192.9744 226.6208,192.9744 Q227.574,192.9744 228.2615,192.2869 Q228.949,191.5838 229.2771,190.0838 L230.1833,190.49 Q229.7771,192.1931 228.8083,193.1463 Q227.8552,194.0994 226.5427,194.0994 Z " fill="#000000"></path><text fill="#000000" font-family="sans-serif" font-size="14" lengthAdjust="spacing" textLength="52.1582" x="246.4321" y="194.7239">Adaptee</text><line style="stroke:#181818;stroke-width:0.5;" x1="189.65" x2="324.1393" y1="204.24" y2="204.24"></line><line style="stroke:#181818;stroke-width:0.5;" x1="189.65" x2="324.1393" y1="212.24" y2="212.24"></line><ellipse cx="199.65" cy="227.3001" fill="#84BE84" rx="3" ry="3" style="stroke:#038048;stroke-width:1;"></ellipse><text fill="#000000" font-family="sans-serif" font-size="14" lengthAdjust="spacing" textLength="110.4893" x="208.65" y="232.2839">SpecificRequest()</text></g><!--class Adapter--><g class="entity" data-entity="Adapter" data-source-line="12" data-uid="ent0005" id="entity_Adapter"><rect fill="#F1F1F1" height="86.2402" rx="2.5" ry="2.5" style="stroke:#181818;stroke-width:0.5;" width="132.6543" x="149.57" y="7"></rect><ellipse cx="187.7991" cy="23" fill="#ADD1B2" rx="11" ry="11" style="stroke:#181818;stroke-width:1;"></ellipse><path d="M187.1428,28.8594 Q185.1584,28.8594 183.9866,27.3906 Q182.8303,25.9063 182.8303,22.8281 Q182.8303,20.2188 184.0491,18.4688 Q185.2834,16.7188 187.4084,16.7188 Q187.9084,16.7188 188.4397,16.8594 Q188.8772,17.0469 189.1428,17.0469 Q189.3616,17.0469 189.4553,17 Q189.5647,16.9531 190.0178,16.3594 L190.7834,20.0938 L189.8928,20.3594 Q189.4397,18.9063 188.8303,18.3125 Q188.2366,17.7031 187.2834,17.7031 Q186.0647,17.7031 185.3459,19.1406 Q184.6272,20.5625 184.6272,22.75 Q184.6272,25.1563 185.2366,26.4531 Q185.8616,27.7344 187.2209,27.7344 Q188.1741,27.7344 188.8616,27.0469 Q189.5491,26.3438 189.8772,24.8438 L190.7834,25.25 Q190.3772,26.9531 189.4084,27.9063 Q188.4553,28.8594 187.1428,28.8594 Z " fill="#000000"></path><text fill="#000000" font-family="sans-serif" font-size="14" lengthAdjust="spacing" textLength="49.0342" x="206.9611" y="29.4839">Adapter</text><line style="stroke:#181818;stroke-width:0.5;" x1="150.57" x2="281.2243" y1="39" y2="39"></line><rect fill="none" height="6" style="stroke:#C82930;stroke-width:1;" width="6" x="157.57" y="51.0601"></rect><text fill="#000000" font-family="sans-serif" font-size="14" lengthAdjust="spacing" textLength="106.6543" x="169.57" y="59.0439">Adaptee adaptee</text><line style="stroke:#181818;stroke-width:0.5;" x1="150.57" x2="281.2243" y1="66.1201" y2="66.1201"></line><ellipse cx="160.57" cy="81.1802" fill="#84BE84" rx="3" ry="3" style="stroke:#038048;stroke-width:1;"></ellipse><text fill="#000000" font-family="sans-serif" font-size="14" lengthAdjust="spacing" textLength="56.0205" x="169.57" y="86.1641">request()</text></g><!--link Client to Target--><g class="link" data-entity-1="Client" data-entity-2="Target" data-source-line="17" data-uid="lnk6" id="link_Client_Target"><path codeline="17" d="M36.25,74.44 C33.43,93.15 31.49,119.87 37.9,142.24 C40.85,152.58 42.9121,157.7583 48.5821,166.9183" fill="none" id="Client-to-Target" style="stroke:#181818;stroke-width:1;"></path><polygon fill="#181818" points="51.74,172.02,50.4042,162.2621,49.1084,167.7686,43.602,166.4727,51.74,172.02" style="stroke:#181818;stroke-width:1;"></polygon><text fill="#000000" font-family="sans-serif" font-size="13" lengthAdjust="spacing" textLength="66.479" x="38.9" y="139.1379">Association</text></g><!--link Adapter to Target--><g class="link" data-entity-1="Adapter" data-entity-2="Target" data-source-line="18" data-uid="lnk7" id="link_Adapter_Target"><path codeline="18" d="M177.55,93.52 C155.21,118.22 139.5232,135.5495 118.8232,158.4395" fill="none" id="Adapter-to-Target" style="stroke:#181818;stroke-width:1;stroke-dasharray:7,7;"></path><polygon fill="none" points="106.75,171.79,123.2734,162.4639,114.3731,154.415,106.75,171.79" style="stroke:#181818;stroke-width:1;"></polygon><text fill="#000000" font-family="sans-serif" font-size="13" lengthAdjust="spacing" textLength="66.4663" x="151.56" y="139.1379">implements</text></g><!--link Adapter to Adaptee--><g class="link" data-entity-1="Adapter" data-entity-2="Adaptee" data-source-line="19" data-uid="lnk8" id="link_Adapter_Adaptee"><path codeline="19" d="M227.21,93.52 C233.8,118.22 240.4326,143.103 246.5426,165.993" fill="none" id="Adapter-to-Adaptee" style="stroke:#181818;stroke-width:1;"></path><polygon fill="#181818" points="248.09,171.79,249.6336,162.0629,246.8005,166.9591,241.9042,164.126,248.09,171.79" style="stroke:#181818;stroke-width:1;"></polygon><text fill="#000000" font-family="sans-serif" font-size="13" lengthAdjust="spacing" textLength="66.479" x="241.07" y="139.1379">Association</text></g><!--SRC=[NOvB3i8m30NNv1HUWb1w01P85JS0Bc2vBhAKfY5ELy3TIThmNLdoctasELI5WnFswMOUneXF77iaXZF62-VbQXlvEh6czGOAGRFITXWISubFWKbweUCB-wTYfcmL09VvNLluvGMmTbyFxw1L7KamoUXDBOAckNy06OBZ8MlwpejVB_qKF040]--></g></svg>